<svg width="1132" height="285" viewBox="0 0 1132 285" fill="none" xmlns="http://www.w3.org/2000/svg">
<g filter="url(#filter0_d_83_2118)">
<rect x="21.5" y="21.5" width="1089" height="147" rx="73.5" fill="#0B0B0B" stroke="white" stroke-width="3"/>
<path d="M204.279 75.83L210.699 58.4H218.439L224.859 76.01H227.589L239.139 58.4H244.089L230.139 80H221.859L215.349 62.42H213.819L207.219 80H199.059L185.139 58.4H189.969L201.519 75.83H204.279ZM251.585 58.4H287.075V62.63H255.815V67.1H286.355V71.3H255.815V75.77H287.075V80H251.585V58.4ZM346.591 66.56C346.591 66.04 346.501 65.55 346.321 65.09C346.141 64.61 345.871 64.19 345.511 63.83C345.171 63.47 344.761 63.18 344.281 62.96C343.801 62.74 343.261 62.63 342.661 62.63H322.081C321.501 62.63 320.961 62.73 320.461 62.93C319.961 63.11 319.531 63.38 319.171 63.74C318.811 64.1 318.521 64.54 318.301 65.06C318.101 65.56 318.001 66.13 318.001 66.77V71.75C318.001 72.35 318.101 72.9 318.301 73.4C318.521 73.88 318.811 74.3 319.171 74.66C319.551 75.02 319.991 75.3 320.491 75.5C320.991 75.68 321.531 75.77 322.111 75.77H342.661C343.121 75.77 343.581 75.67 344.041 75.47C344.521 75.27 344.951 74.99 345.331 74.63C345.711 74.27 346.011 73.84 346.231 73.34C346.471 72.84 346.591 72.29 346.591 71.69H350.791V72.29C350.791 73.23 350.621 74.16 350.281 75.08C349.941 76 349.461 76.83 348.841 77.57C348.241 78.29 347.511 78.88 346.651 79.34C345.791 79.78 344.841 80 343.801 80H320.491C319.571 80 318.701 79.83 317.881 79.49C317.061 79.13 316.341 78.65 315.721 78.05C315.121 77.43 314.641 76.71 314.281 75.89C313.941 75.07 313.771 74.2 313.771 73.28V65.12C313.771 64.18 313.941 63.31 314.281 62.51C314.641 61.69 315.121 60.98 315.721 60.38C316.341 59.76 317.061 59.28 317.881 58.94C318.701 58.58 319.571 58.4 320.491 58.4H343.801C344.841 58.4 345.791 58.63 346.651 59.09C347.511 59.53 348.241 60.11 348.841 60.83C349.461 61.55 349.941 62.36 350.281 63.26C350.621 64.16 350.791 65.06 350.791 65.96V66.56H346.591ZM395.63 80H390.77L387.83 75.59H363.74L360.83 80H355.97L369.71 58.4H381.86L395.63 80ZM372.14 62.63L366.23 71.36H385.37L379.43 62.63H372.14ZM434.943 75.32V58.4H439.173V80H433.893L407.403 63.08V80H403.173V58.4H408.513L434.943 75.32ZM449.667 56.6H454.197L452.427 68H448.467L449.667 56.6ZM502.457 58.4V62.63H486.197V80H481.967V62.63H465.857V58.4H502.457ZM547.995 75.83L554.415 58.4H562.155L568.575 76.01H571.305L582.855 58.4H587.805L573.855 80H565.575L559.065 62.42H557.535L550.935 80H542.775L528.855 58.4H533.685L545.235 75.83H547.995ZM625.663 80H620.803L617.863 75.59H593.773L590.863 80H586.003L599.743 58.4H611.893L625.663 80ZM602.173 62.63L596.263 71.36H615.403L609.463 62.63H602.173ZM634.586 58.4H638.816V80H634.586V58.4ZM685.504 58.4V62.63H669.244V80H665.014V62.63H648.904V58.4H685.504ZM748.802 58.4V62.63H732.542V80H728.312V62.63H712.202V58.4H748.802ZM786.693 80H763.593C762.673 80 761.803 79.83 760.983 79.49C760.183 79.13 759.473 78.65 758.853 78.05C758.253 77.43 757.773 76.72 757.413 75.92C757.073 75.1 756.903 74.23 756.903 73.31V65.09C756.903 64.17 757.073 63.31 757.413 62.51C757.773 61.69 758.253 60.98 758.853 60.38C759.473 59.76 760.183 59.28 760.983 58.94C761.803 58.58 762.673 58.4 763.593 58.4H786.693C787.613 58.4 788.473 58.58 789.273 58.94C790.093 59.28 790.803 59.76 791.403 60.38C792.023 60.98 792.503 61.69 792.843 62.51C793.203 63.31 793.383 64.17 793.383 65.09V73.31C793.383 74.23 793.203 75.1 792.843 75.92C792.503 76.72 792.023 77.43 791.403 78.05C790.803 78.65 790.093 79.13 789.273 79.49C788.473 79.83 787.613 80 786.693 80ZM789.153 71.75V66.68C789.153 66.14 789.053 65.63 788.853 65.15C788.673 64.65 788.413 64.22 788.073 63.86C787.733 63.48 787.313 63.18 786.813 62.96C786.333 62.74 785.803 62.63 785.223 62.63H765.243C764.643 62.63 764.093 62.73 763.593 62.93C763.093 63.13 762.663 63.41 762.303 63.77C761.943 64.13 761.653 64.56 761.433 65.06C761.233 65.54 761.133 66.07 761.133 66.65V71.78C761.133 72.32 761.223 72.83 761.403 73.31C761.603 73.79 761.883 74.22 762.243 74.6C762.603 74.96 763.023 75.25 763.503 75.47C764.003 75.67 764.553 75.77 765.153 75.77H785.073C785.693 75.77 786.253 75.67 786.753 75.47C787.253 75.25 787.683 74.96 788.043 74.6C788.403 74.22 788.673 73.79 788.853 73.31C789.053 72.81 789.153 72.29 789.153 71.75ZM852.965 65.96C852.965 65.6 852.885 65.22 852.725 64.82C852.565 64.42 852.325 64.06 852.005 63.74C851.685 63.4 851.275 63.13 850.775 62.93C850.275 62.71 849.695 62.6 849.035 62.6L827.435 62.63C826.995 62.63 826.575 62.69 826.175 62.81C825.795 62.93 825.455 63.11 825.155 63.35C824.855 63.57 824.615 63.85 824.435 64.19C824.255 64.53 824.165 64.93 824.165 65.39C824.165 66.69 825.305 67.34 827.585 67.34L850.385 67.31C851.345 67.31 852.235 67.43 853.055 67.67C853.875 67.91 854.595 68.28 855.215 68.78C855.835 69.28 856.315 69.91 856.655 70.67C857.015 71.41 857.195 72.28 857.195 73.28C857.195 74.2 857.015 75.07 856.655 75.89C856.315 76.71 855.835 77.43 855.215 78.05C854.615 78.65 853.905 79.13 853.085 79.49C852.285 79.83 851.415 80 850.475 80H827.075C826.035 80 825.085 79.78 824.225 79.34C823.385 78.88 822.655 78.29 822.035 77.57C821.415 76.85 820.935 76.04 820.595 75.14C820.255 74.24 820.085 73.34 820.085 72.44H824.315C824.315 72.8 824.385 73.18 824.525 73.58C824.665 73.96 824.885 74.32 825.185 74.66C825.505 74.98 825.915 75.25 826.415 75.47C826.935 75.67 827.555 75.77 828.275 75.77H849.635C850.115 75.77 850.565 75.7 850.985 75.56C851.405 75.4 851.765 75.2 852.065 74.96C852.365 74.7 852.595 74.41 852.755 74.09C852.935 73.75 853.025 73.4 853.025 73.04C853.025 72.26 852.725 71.76 852.125 71.54C851.545 71.32 850.715 71.21 849.635 71.21H827.165C826.245 71.21 825.355 71.09 824.495 70.85C823.635 70.59 822.875 70.21 822.215 69.71C821.575 69.19 821.055 68.55 820.655 67.79C820.275 67.03 820.085 66.14 820.085 65.12C820.085 64.18 820.255 63.31 820.595 62.51C820.955 61.69 821.435 60.98 822.035 60.38C822.655 59.76 823.375 59.28 824.195 58.94C825.015 58.58 825.885 58.4 826.805 58.4H850.205C851.245 58.4 852.195 58.63 853.055 59.09C853.915 59.53 854.645 60.11 855.245 60.83C855.865 61.55 856.345 62.36 856.685 63.26C857.025 64.16 857.195 65.06 857.195 65.96H852.965ZM865.87 58.4H901.36V62.63H870.1V67.1H900.64V71.3H870.1V75.77H901.36V80H865.87V58.4ZM910.073 58.4H945.563V62.63H914.303V67.1H944.843V71.3H914.303V75.77H945.563V80H910.073V58.4ZM194.848 113.54L204.778 103.4H210.418L196.708 117.8H193.258V125H189.028V117.8H185.548L171.628 103.4H177.298L187.378 113.54H194.848ZM245.006 125H221.906C220.986 125 220.116 124.83 219.296 124.49C218.496 124.13 217.786 123.65 217.166 123.05C216.566 122.43 216.086 121.72 215.726 120.92C215.386 120.1 215.216 119.23 215.216 118.31V110.09C215.216 109.17 215.386 108.31 215.726 107.51C216.086 106.69 216.566 105.98 217.166 105.38C217.786 104.76 218.496 104.28 219.296 103.94C220.116 103.58 220.986 103.4 221.906 103.4H245.006C245.926 103.4 246.786 103.58 247.586 103.94C248.406 104.28 249.116 104.76 249.716 105.38C250.336 105.98 250.816 106.69 251.156 107.51C251.516 108.31 251.696 109.17 251.696 110.09V118.31C251.696 119.23 251.516 120.1 251.156 120.92C250.816 121.72 250.336 122.43 249.716 123.05C249.116 123.65 248.406 124.13 247.586 124.49C246.786 124.83 245.926 125 245.006 125ZM247.466 116.75V111.68C247.466 111.14 247.366 110.63 247.166 110.15C246.986 109.65 246.726 109.22 246.386 108.86C246.046 108.48 245.626 108.18 245.126 107.96C244.646 107.74 244.116 107.63 243.536 107.63H223.556C222.956 107.63 222.406 107.73 221.906 107.93C221.406 108.13 220.976 108.41 220.616 108.77C220.256 109.13 219.966 109.56 219.746 110.06C219.546 110.54 219.446 111.07 219.446 111.65V116.78C219.446 117.32 219.536 117.83 219.716 118.31C219.916 118.79 220.196 119.22 220.556 119.6C220.916 119.96 221.336 120.25 221.816 120.47C222.316 120.67 222.866 120.77 223.466 120.77H243.386C244.006 120.77 244.566 120.67 245.066 120.47C245.566 120.25 245.996 119.96 246.356 119.6C246.716 119.22 246.986 118.79 247.166 118.31C247.366 117.81 247.466 117.29 247.466 116.75ZM296.775 103.43V118.28C296.775 119.2 296.595 120.07 296.235 120.89C295.895 121.71 295.415 122.43 294.795 123.05C294.195 123.65 293.485 124.13 292.665 124.49C291.865 124.83 290.995 125 290.055 125H267.135C266.215 125 265.345 124.83 264.525 124.49C263.705 124.13 262.985 123.65 262.365 123.05C261.765 122.43 261.285 121.71 260.925 120.89C260.585 120.07 260.415 119.2 260.415 118.28V103.43H264.645V116.78C264.645 117.38 264.755 117.93 264.975 118.43C265.195 118.91 265.485 119.33 265.845 119.69C266.225 120.03 266.655 120.3 267.135 120.5C267.635 120.68 268.155 120.77 268.695 120.77H288.465C289.025 120.77 289.555 120.68 290.055 120.5C290.555 120.3 290.985 120.03 291.345 119.69C291.725 119.33 292.025 118.91 292.245 118.43C292.465 117.93 292.575 117.38 292.575 116.78V103.43H296.775ZM324.83 103.4H329.06V125H324.83V103.4ZM371.211 120.32V103.4H375.441V125H370.161L343.671 108.08V125H339.441V103.4H344.781L371.211 120.32ZM438.724 103.4V107.63H422.464V125H418.234V107.63H402.124V103.4H438.724ZM478.911 112.16V103.4H483.141V125H478.911V116.39H451.671V125H447.441V103.4H451.671V112.16H478.911ZM492.142 103.4H527.632V107.63H496.372V112.1H526.912V116.3H496.372V120.77H527.632V125H492.142V103.4ZM592.487 103.4V125H588.257V109.22L573.707 125H573.437L558.887 109.25V125H554.657V103.4H559.667L573.587 118.4L587.507 103.4H592.487ZM601.665 103.4H637.155V107.63H605.895V112.1H636.435V116.3H605.895V120.77H637.155V125H601.665V103.4ZM682.175 103.4V107.63H665.915V125H661.685V107.63H645.575V103.4H682.175ZM723.245 125H718.385L715.445 120.59H691.355L688.445 125H683.585L697.325 103.4H709.475L723.245 125ZM699.755 107.63L693.845 116.36H712.985L707.045 107.63H699.755ZM739.281 121.31H746.511L759.291 103.4H764.211L749.181 125H736.641L721.611 103.4H726.591L739.281 121.31ZM772.003 103.4H807.493V107.63H776.233V112.1H806.773V116.3H776.233V120.77H807.493V125H772.003V103.4ZM852.236 125H847.046L842.756 118.76H820.436V125H816.206V103.4H845.876C846.816 103.4 847.686 103.57 848.486 103.91C849.306 104.25 850.016 104.7 850.616 105.26C851.236 105.82 851.716 106.47 852.056 107.21C852.416 107.93 852.596 108.67 852.596 109.43V112.58C852.596 113.22 852.456 113.87 852.176 114.53C851.916 115.19 851.556 115.8 851.096 116.36C850.656 116.92 850.136 117.4 849.536 117.8C848.956 118.18 848.356 118.43 847.736 118.55L852.236 125ZM848.366 111.53V110.48C848.366 110.1 848.276 109.74 848.096 109.4C847.936 109.04 847.706 108.73 847.406 108.47C847.106 108.21 846.736 108.01 846.296 107.87C845.876 107.71 845.406 107.63 844.886 107.63H820.436V114.53H844.886C845.506 114.53 846.036 114.44 846.476 114.26C846.916 114.08 847.276 113.85 847.556 113.57C847.836 113.27 848.036 112.95 848.156 112.61C848.296 112.25 848.366 111.89 848.366 111.53ZM893.582 110.96C893.582 110.6 893.502 110.22 893.342 109.82C893.182 109.42 892.942 109.06 892.622 108.74C892.302 108.4 891.892 108.13 891.392 107.93C890.892 107.71 890.312 107.6 889.652 107.6L868.052 107.63C867.612 107.63 867.192 107.69 866.792 107.81C866.412 107.93 866.072 108.11 865.772 108.35C865.472 108.57 865.232 108.85 865.052 109.19C864.872 109.53 864.782 109.93 864.782 110.39C864.782 111.69 865.922 112.34 868.202 112.34L891.002 112.31C891.962 112.31 892.852 112.43 893.672 112.67C894.492 112.91 895.212 113.28 895.832 113.78C896.452 114.28 896.932 114.91 897.272 115.67C897.632 116.41 897.812 117.28 897.812 118.28C897.812 119.2 897.632 120.07 897.272 120.89C896.932 121.71 896.452 122.43 895.832 123.05C895.232 123.65 894.522 124.13 893.702 124.49C892.902 124.83 892.032 125 891.092 125H867.692C866.652 125 865.702 124.78 864.842 124.34C864.002 123.88 863.272 123.29 862.652 122.57C862.032 121.85 861.552 121.04 861.212 120.14C860.872 119.24 860.702 118.34 860.702 117.44H864.932C864.932 117.8 865.002 118.18 865.142 118.58C865.282 118.96 865.502 119.32 865.802 119.66C866.122 119.98 866.532 120.25 867.032 120.47C867.552 120.67 868.172 120.77 868.892 120.77H890.252C890.732 120.77 891.182 120.7 891.602 120.56C892.022 120.4 892.382 120.2 892.682 119.96C892.982 119.7 893.212 119.41 893.372 119.09C893.552 118.75 893.642 118.4 893.642 118.04C893.642 117.26 893.342 116.76 892.742 116.54C892.162 116.32 891.332 116.21 890.252 116.21H867.782C866.862 116.21 865.972 116.09 865.112 115.85C864.252 115.59 863.492 115.21 862.832 114.71C862.192 114.19 861.672 113.55 861.272 112.79C860.892 112.03 860.702 111.14 860.702 110.12C860.702 109.18 860.872 108.31 861.212 107.51C861.572 106.69 862.052 105.98 862.652 105.38C863.272 104.76 863.992 104.28 864.812 103.94C865.632 103.58 866.502 103.4 867.422 103.4H890.822C891.862 103.4 892.812 103.63 893.672 104.09C894.532 104.53 895.262 105.11 895.862 105.83C896.482 106.55 896.962 107.36 897.302 108.26C897.642 109.16 897.812 110.06 897.812 110.96H893.582ZM906.487 103.4H941.977V107.63H910.717V112.1H941.257V116.3H910.717V120.77H941.977V125H906.487V103.4ZM952.184 103.4H958.184L957.314 117.8H953.054L952.184 103.4ZM952.034 125V121.16H958.274V125H952.034Z" fill="white"/>
</g>
<defs>
<filter id="filter0_d_83_2118" x="-95" y="-95" width="1322" height="380" filterUnits="userSpaceOnUse" color-interpolation-filters="sRGB">
<feFlood flood-opacity="0" result="BackgroundImageFix"/>
<feColorMatrix in="SourceAlpha" type="matrix" values="0 0 0 0 0 0 0 0 0 0 0 0 0 0 0 0 0 0 127 0" result="hardAlpha"/>
<feOffset/>
<feGaussianBlur stdDeviation="57.5"/>
<feComposite in2="hardAlpha" operator="out"/>
<feColorMatrix type="matrix" values="0 0 0 0 0.3 0 0 0 0 0.3 0 0 0 0 0.3 0 0 0 0.2 0"/>
<feBlend mode="normal" in2="BackgroundImageFix" result="effect1_dropShadow_83_2118"/>
<feBlend mode="normal" in="SourceGraphic" in2="effect1_dropShadow_83_2118" result="shape"/>
</filter>
</defs>
</svg>
