<svg width="44" height="26" viewBox="0 0 44 26" fill="none" xmlns="http://www.w3.org/2000/svg">
<path d="M43.8321 12.6332C40.4556 5.28333 31.688 0.352295 22 0.352295H21.9565C12.2872 0.364731 3.53194 5.30198 0.167891 12.6332L0 13.0001L0.167891 13.367C3.54438 20.7169 12.312 25.6479 22 25.6479H22.0435C31.7128 25.6355 40.4681 20.6983 43.8321 13.367L44 13.0001L43.8321 12.6332ZM39.8462 9.66716C39.8462 9.68582 39.8462 9.70447 39.8462 9.71691V10.5439C39.4545 10.3325 39.0503 10.1335 38.6399 9.94076C38.6586 9.87236 38.671 9.79774 38.671 9.72313V8.40487C39.0876 8.80283 39.4856 9.22567 39.8525 9.66094L39.8462 9.66716ZM36.9175 6.90628C36.905 6.96224 36.8988 7.01821 36.8988 7.07417V9.18214C36.5133 9.02669 36.1215 8.88367 35.7236 8.74065V6.05439C36.134 6.32799 36.5319 6.60781 36.9175 6.90006V6.90628ZM33.9576 5.01595V8.16858C33.5721 8.05043 33.1803 7.94472 32.7824 7.83901V4.42522C33.1803 4.61176 33.5721 4.80453 33.9576 5.00973V5.01595ZM31.0164 3.70391V7.42861C30.6246 7.34777 30.2391 7.26694 29.8412 7.19232V3.30594C30.2391 3.43031 30.6309 3.56089 31.0164 3.70391ZM22 5.49475C26.1413 5.49475 29.5054 8.86502 29.5054 13.0001C29.5054 17.1352 26.1351 20.5055 22 20.5055C17.8649 20.5055 14.4946 17.1352 14.4946 13.0001C14.4946 8.86502 17.8649 5.49475 22 5.49475ZM28.0752 2.8147V5.99842C27.7083 5.67508 27.3166 5.38904 26.8999 5.12787V2.56598C27.2979 2.64059 27.6897 2.72143 28.0752 2.8147ZM25.134 2.29859V4.26976C24.7547 4.13296 24.3629 4.01482 23.9587 3.93398V2.18666C24.3505 2.21154 24.7422 2.24885 25.134 2.29859ZM21.9565 2.11205H22.1928V3.72878C22.1306 3.72878 22.0622 3.72878 22 3.72878C21.6704 3.72878 21.3409 3.74743 21.0175 3.77852V2.13692C21.3284 2.12448 21.6456 2.11826 21.9565 2.11826V2.11205ZM19.2516 2.25507V4.13918C18.8474 4.26354 18.4556 4.419 18.0763 4.59933V2.4043C18.4618 2.34834 18.8598 2.29859 19.2516 2.25507ZM16.3103 2.72765V5.60668C16.3103 5.60668 16.3103 5.6502 16.3166 5.67508C15.8937 6.01086 15.4958 6.37152 15.1351 6.7757V3.01369C15.5206 2.90798 15.9186 2.8147 16.3103 2.72765ZM13.3691 3.56089V7.34155C12.9712 7.42239 12.5794 7.50323 12.1939 7.59028V4.00238C12.5794 3.84693 12.9712 3.69769 13.3691 3.56089ZM10.4279 4.81696V8.05665C10.03 8.16858 9.63821 8.28672 9.25269 8.41109V5.45744C9.632 5.23358 10.03 5.02217 10.4279 4.81696ZM7.48672 6.60781V9.02669C7.08253 9.18214 6.697 9.34382 6.31148 9.51171V7.52188C6.69079 7.19854 7.08253 6.89385 7.48672 6.60159V6.60781ZM2.99096 11.1968C3.45732 10.5066 3.97343 9.84749 4.54551 9.21945V10.3076C4.54551 10.3076 4.54551 10.3263 4.54551 10.3387C4.01074 10.6123 3.48219 10.8984 2.98474 11.2031L2.99096 11.1968ZM22.0435 23.882H22C13.4686 23.882 5.72075 19.8277 2.30073 13.6779C2.41888 13.653 2.53081 13.6157 2.6303 13.5411C5.5342 11.5015 9.30865 9.98429 13.5868 9.10131C13.0396 10.289 12.7287 11.6072 12.7287 13.0001C12.7287 18.1115 16.8886 22.2715 22 22.2715C27.1114 22.2715 31.2713 18.1115 31.2713 13.0001C31.2713 11.6072 30.9604 10.289 30.4132 9.10131C34.6914 9.97807 38.4658 11.5015 41.3697 13.5411C41.4692 13.6095 41.5811 13.653 41.6993 13.6717C41.6993 13.6717 41.6993 13.6717 41.6993 13.6779C38.2917 19.809 30.5562 23.8695 22.0435 23.882Z" fill="white"/>
<path d="M21.9946 18.1051C24.8114 18.1051 27.0997 15.8168 27.0997 12.9999C27.0997 10.1831 24.8114 7.89478 21.9946 7.89478C20.9375 7.89478 19.955 8.21812 19.1404 8.77154C19.5695 8.72801 20.0172 8.83994 20.3903 9.11354C21.2173 9.71049 21.41 10.8671 20.8131 11.6941C20.2162 12.5211 19.0596 12.7077 18.2325 12.1107C17.7413 11.7625 17.4801 11.2153 17.4677 10.6619C17.1008 11.3645 16.8956 12.1605 16.8956 13.0061C16.8956 15.823 19.1839 18.1113 22.0008 18.1113L21.9946 18.1051ZM24.9544 13.9327C25.1099 13.715 25.4146 13.6653 25.626 13.8207C25.8436 13.9824 25.8934 14.2809 25.7379 14.4985C25.5825 14.7161 25.2778 14.7659 25.0601 14.6104C24.8425 14.455 24.7927 14.1503 24.9482 13.9327H24.9544ZM23.2569 14.9773C23.5367 14.5918 24.0777 14.5047 24.4694 14.7845C24.8549 15.0644 24.9482 15.6053 24.6684 15.9971C24.3886 16.3888 23.8476 16.4759 23.4558 16.1961C23.0703 15.9163 22.977 15.3753 23.2569 14.9835V14.9773Z" fill="#FF5C9D"/>
</svg>
