<svg width="469" height="22" viewBox="0 0 469 22" fill="none" xmlns="http://www.w3.org/2000/svg">
<g clip-path="url(#clip0_282_4020)">
<path d="M426.176 0V16.3802C426.176 19.3098 427.864 21.6901 429.942 21.6901L469.01 21.6901V0L426.176 0Z" fill="white"/>
<path d="M415.467 0L406.896 0V21.6901H415.467V0Z" fill="white"/>
<path d="M396.198 0L387.627 0V21.6901H396.198V0Z" fill="white"/>
<path d="M376.918 0L368.347 0V21.6901H376.918V0Z" fill="white"/>
<path d="M357.649 0L349.078 0V21.6901H357.649V0Z" fill="white"/>
<path d="M338.369 0L329.798 0V21.6901H338.369V0Z" fill="white"/>
<path d="M276.266 16.3802C276.266 19.3098 277.954 21.6901 280.031 21.6901L319.1 21.6901V0L276.266 0V16.3802Z" fill="white"/>
<path d="M265.557 0L256.986 0V21.6901H265.557V0Z" fill="white"/>
<path d="M246.287 0L237.717 0V21.6901H246.287V0Z" fill="white"/>
<path d="M227.008 0L218.437 0V21.6901H227.008V0Z" fill="white"/>
<path d="M188.459 16.3802C188.459 19.3098 190.147 21.6901 192.225 21.6901L207.739 21.6901V0L188.469 0V16.3802H188.459Z" fill="white"/>
<path d="M169.18 17.4366C169.18 19.7887 170.528 21.6901 172.196 21.6901H177.741V0L169.17 0V17.4366H169.18Z" fill="white"/>
<path d="M149.91 17.4366C149.91 19.7887 151.259 21.6901 152.927 21.6901H158.471V0L149.9 0V17.4366H149.91Z" fill="white"/>
<path d="M139.202 0L130.631 0V22H139.202V0Z" fill="white"/>
<path d="M119.932 0L111.361 0V21.6901H119.932V0Z" fill="white"/>
<path d="M62.1138 0L53.5429 0V21.6901H62.1138V0Z" fill="white"/>
<path d="M0 16.3802C0 19.3098 1.6882 21.6901 3.76599 21.6901L42.8343 21.6901V0L0 0L0 16.3802Z" fill="white"/>
</g>
<defs>
<clipPath id="clip0_282_4020">
<rect width="469" height="22" fill="white"/>
</clipPath>
</defs>
</svg>
