<svg width="469" height="22" viewBox="0 0 469 22" fill="none" xmlns="http://www.w3.org/2000/svg">
<g clip-path="url(#clip0_282_7751)">
<path d="M42.8243 22.0002L42.8243 5.62C42.8243 2.69043 41.1362 0.310152 39.0584 0.310152L-0.00999643 0.310148L-0.00999832 22.0002L42.8243 22.0002Z" fill="white"/>
<path d="M53.5329 22.0002L62.1038 22.0002L62.1038 0.310152L53.5329 0.310151L53.5329 22.0002Z" fill="white"/>
<path d="M72.8024 22.0002L81.3733 22.0002L81.3733 0.310152L72.8024 0.310151L72.8024 22.0002Z" fill="white"/>
<path d="M92.0818 22.0002L100.653 22.0002L100.653 0.310152L92.0818 0.310151L92.0818 22.0002Z" fill="white"/>
<path d="M111.351 22.0002L119.922 22.0002L119.922 0.310152L111.351 0.310151L111.351 22.0002Z" fill="white"/>
<path d="M130.631 22.0002L139.202 22.0002L139.202 0.310152L130.631 0.310151L130.631 22.0002Z" fill="white"/>
<path d="M192.734 5.62C192.734 2.69043 191.046 0.310152 188.969 0.310152L149.9 0.310148L149.9 22.0002L192.734 22.0002L192.734 5.62Z" fill="white"/>
<path d="M203.443 22.0002L212.014 22.0002L212.014 0.310152L203.443 0.310151L203.443 22.0002Z" fill="white"/>
<path d="M222.713 22.0002L231.283 22.0002L231.283 0.310152L222.713 0.310151L222.713 22.0002Z" fill="white"/>
<path d="M241.992 22.0002L250.563 22.0002L250.563 0.310152L241.992 0.310151L241.992 22.0002Z" fill="white"/>
<path d="M280.541 5.62C280.541 2.69043 278.853 0.310152 276.775 0.310152L261.261 0.31015L261.261 22.0002L280.531 22.0002L280.531 5.62L280.541 5.62Z" fill="white"/>
<path d="M299.82 4.56366C299.82 2.21156 298.472 0.310152 296.804 0.310152L291.259 0.310151L291.259 22.0002L299.83 22.0002L299.83 4.56366L299.82 4.56366Z" fill="white"/>
<path d="M319.09 4.56366C319.09 2.21156 317.741 0.310152 316.073 0.310152L310.529 0.310151L310.529 22.0002L319.1 22.0002L319.1 4.56366L319.09 4.56366Z" fill="white"/>
<path d="M329.798 22.0002L338.369 22.0002L338.369 0.000293732L329.798 0.000292982L329.798 22.0002Z" fill="white"/>
<path d="M349.068 22.0002L357.639 22.0002L357.639 0.310152L349.068 0.310151L349.068 22.0002Z" fill="white"/>
<path d="M406.886 22.0002L415.457 22.0002L415.457 0.310152L406.886 0.310151L406.886 22.0002Z" fill="white"/>
<path d="M469 5.62C469 2.69043 467.312 0.310152 465.234 0.310152L426.166 0.310148L426.166 22.0002L469 22.0002L469 5.62Z" fill="white"/>
</g>
<defs>
<clipPath id="clip0_282_7751">
<rect width="469" height="22" fill="white" transform="translate(469 22.0002) rotate(-180)"/>
</clipPath>
</defs>
</svg>
