<svg width="772" height="144" viewBox="0 0 772 144" fill="none" xmlns="http://www.w3.org/2000/svg">
<path fill-rule="evenodd" clip-rule="evenodd" d="M51.012 42.768L87.48 86.544L96.588 75.6L129.6 115.2H122.58L96.624 84.024V115.2H14.4C17.64 119.484 21.348 123.408 25.416 126.9H118.584C134.136 113.688 144 93.996 144 72C144 32.22 111.78 0 72 0C32.22 0 0 32.22 0 72C0 81.216 1.728 90 4.896 98.1C6.48 102.204 8.46 106.092 10.728 109.8H68.112L83.988 90.756L51.012 51.192V98.1L4.896 98.1L51.012 42.768ZM96.588 28.8C106.524 28.8 114.588 36.864 114.588 46.8C114.588 56.736 106.524 64.8 96.588 64.8C86.652 64.8 78.588 56.736 78.588 46.8C78.588 36.864 86.652 28.8 96.588 28.8ZM60.012 24.768C60.012 19.8 55.98 15.768 51.012 15.768C46.044 15.768 42.012 19.8 42.012 24.768C42.012 29.736 46.044 33.768 51.012 33.768C55.98 33.768 60.012 29.736 60.012 24.768Z" fill="white"/>
<path d="M32.652 132.3C43.956 139.68 57.492 144 72 144C86.508 144 100.044 139.68 111.348 132.3H32.652Z" fill="white"/>
<path d="M181.625 38.3594V106H207.687C227.984 106 239.937 93.3906 239.937 71.9219C239.937 50.4531 227.984 38.3594 207.687 38.3594H181.625ZM195.781 50.0312H206C218.469 50.0312 225.5 57.8125 225.5 71.9687C225.5 86.5937 218.656 94.2812 206 94.2812H195.781V50.0312Z" fill="white"/>
<path d="M270.462 63.7188C276.791 63.7188 281.197 68.125 281.431 74.875H259.166C259.634 68.2656 264.228 63.7188 270.462 63.7188ZM281.619 90.25C280.306 94.2344 276.228 96.6719 271.072 96.6719C263.853 96.6719 259.025 91.6562 259.025 84.2031V83.3594H294.65V79.1406C294.65 63.4375 285.181 53.5 270.322 53.5C255.181 53.5 245.525 64 245.525 80.4062C245.525 96.8125 255.134 106.891 270.837 106.891C283.4 106.891 292.728 100.234 294.228 90.25H281.619Z" fill="white"/>
<path d="M348.05 73.4219C347.394 61.9375 338.534 53.5 324.659 53.5C309.331 53.5 299.487 63.8125 299.487 80.1719C299.487 96.7656 309.331 106.891 324.753 106.891C338.3 106.891 347.3 99.25 348.097 87.25H335.347C334.456 92.9219 330.659 96.0625 324.894 96.0625C317.816 96.0625 313.362 90.25 313.362 80.1719C313.362 70.2812 317.816 64.2812 324.847 64.2812C330.8 64.2812 334.55 68.0781 335.3 73.4219H348.05Z" fill="white"/>
<path d="M377.356 63.7188C383.684 63.7188 388.091 68.125 388.325 74.875H366.059C366.528 68.2656 371.122 63.7188 377.356 63.7188ZM388.512 90.25C387.2 94.2344 383.122 96.6719 377.966 96.6719C370.747 96.6719 365.919 91.6562 365.919 84.2031V83.3594H401.544V79.1406C401.544 63.4375 392.075 53.5 377.216 53.5C362.075 53.5 352.419 64 352.419 80.4062C352.419 96.8125 362.028 106.891 377.731 106.891C390.294 106.891 399.622 100.234 401.122 90.25H388.512Z" fill="white"/>
<path d="M408.303 106H421.991V76.5625C421.991 69.7187 425.928 65.0312 432.491 65.0312C438.959 65.0312 442.147 68.9219 442.147 75.7656V106H455.834V72.9062C455.834 60.8594 449.366 53.6406 437.928 53.6406C430.006 53.6406 424.756 57.1094 421.803 63.625H421.522V54.3906H408.303V106Z" fill="white"/>
<path d="M467.984 42.9062V54.3906H461V64.75H467.984V92.0781C467.984 102.156 472.672 106.188 484.625 106.188C487.391 106.188 489.828 105.906 491.234 105.625V95.5C490.391 95.6406 489.031 95.7344 487.812 95.7344C483.641 95.7344 481.672 93.8125 481.672 89.8281V64.75H491.234V54.3906H481.672V42.9062H467.984Z" fill="white"/>
<path d="M498.509 106H512.197V77.125C512.197 69.9062 516.275 65.5937 523.212 65.5937C525.228 65.5937 527.103 65.9219 528.275 66.3906V54.2969C527.291 53.9688 525.884 53.7812 524.291 53.7812C518.197 53.7812 513.744 57.25 512.009 63.625H511.728V54.3906H498.509V106Z" fill="white"/>
<path d="M552.05 96.625C547.081 96.625 543.847 94.2344 543.847 90.4375C543.847 86.6406 546.894 84.3906 552.612 84.0156L563.441 83.2656V87.0625C563.441 92.6875 558.378 96.625 552.05 96.625ZM547.597 106.609C554.206 106.609 560.581 103.422 563.394 98.0312H563.675V106H576.894V70.6094C576.894 60.2969 568.222 53.5 554.956 53.5C542.066 53.5 533.159 60.2969 532.784 70.1406H545.3C545.956 66.3906 549.425 63.7656 554.394 63.7656C560.019 63.7656 563.441 66.4844 563.441 71.4531V74.875L550.55 75.6719C537.378 76.4687 530.206 81.7656 530.206 91.1406C530.206 100.375 537.659 106.609 547.597 106.609Z" fill="white"/>
<path d="M585.903 106H599.591V35.125H585.903V106Z" fill="white"/>
<path d="M628.381 96.625C623.412 96.625 620.178 94.2344 620.178 90.4375C620.178 86.6406 623.225 84.3906 628.944 84.0156L639.772 83.2656V87.0625C639.772 92.6875 634.709 96.625 628.381 96.625ZM623.928 106.609C630.537 106.609 636.912 103.422 639.725 98.0312H640.006V106H653.225V70.6094C653.225 60.2969 644.553 53.5 631.287 53.5C618.397 53.5 609.491 60.2969 609.116 70.1406H621.631C622.287 66.3906 625.756 63.7656 630.725 63.7656C636.35 63.7656 639.772 66.4844 639.772 71.4531V74.875L626.881 75.6719C613.709 76.4687 606.537 81.7656 606.537 91.1406C606.537 100.375 613.991 106.609 623.928 106.609Z" fill="white"/>
<path d="M661.859 106H675.547V76.5625C675.547 69.7187 679.484 65.0312 686.047 65.0312C692.516 65.0312 695.703 68.9219 695.703 75.7656V106H709.391V72.9062C709.391 60.8594 702.922 53.6406 691.484 53.6406C683.562 53.6406 678.312 57.1094 675.359 63.625H675.078V54.3906H661.859V106Z" fill="white"/>
<path d="M737.103 106.609C744.697 106.609 750.65 102.859 753.181 97.1875H753.416V106H766.916V35.125H753.228V63.2031H752.947C750.369 57.4844 744.603 53.7812 737.15 53.7812C724.306 53.7812 715.962 63.9531 715.962 80.125C715.962 96.3906 724.259 106.609 737.103 106.609ZM741.65 64.8437C748.728 64.8437 753.322 70.8906 753.322 80.2187C753.322 89.5469 748.728 95.5469 741.65 95.5469C734.525 95.5469 729.978 89.6406 729.978 80.1719C729.978 70.7969 734.525 64.8437 741.65 64.8437Z" fill="white"/>
</svg>
