<svg width="926" height="332" viewBox="0 0 926 332" fill="none" xmlns="http://www.w3.org/2000/svg">
<g filter="url(#filter0_d_59_219)">
<path d="M161.88 138.932L172.028 149.083C172.431 149.487 172.655 150.064 172.554 150.626C172.41 151.47 171.689 152.053 170.867 152.053H147.501C146.932 152.053 146.37 151.808 146.038 151.34C145.541 150.64 145.642 149.718 146.218 149.134L156.568 138.781L93.0926 54.921C92.1341 53.6521 90.6349 52.9023 89.0421 52.9023H85.4384L82.6059 55.7356L34.0786 104.277L31.3398 107.016V229.065L79.0671 181.324L82.0726 178.317V135.356C82.0726 134.621 82.541 133.965 83.2402 133.734C83.4131 133.677 83.5933 133.655 83.7663 133.655C84.2924 133.655 84.8114 133.893 85.1429 134.333L159.026 232.446L233.161 134.073C233.5 133.633 234.004 133.396 234.537 133.396C234.718 133.396 234.891 133.424 235.071 133.475C235.763 133.706 236.238 134.362 236.238 135.097V232.561H286.964V149.4L227.143 53.0249L161.88 138.932V138.932Z" fill="white"/>
<path d="M76.2482 232.489C79.2464 232.489 81.6825 230.059 81.6825 227.053V183.948L33.1553 232.489H76.2482Z" fill="white"/>
<path d="M610.9 149.054L602.338 140.259L593.696 149.054H610.9Z" fill="white"/>
<path d="M668.76 54.9498L605.357 138.392L605.025 138.932L615.231 149.134C615.851 149.754 615.923 150.785 615.288 151.491C614.957 151.859 614.467 152.053 613.97 152.053H590.625C590.128 152.053 589.637 151.866 589.306 151.491C588.679 150.785 588.744 149.754 589.364 149.134L599.713 138.781L534.998 53.3565L474.413 150.972V232.561H525.139V135.364C525.139 134.628 525.607 133.972 526.306 133.742C526.479 133.684 526.659 133.662 526.832 133.662C527.358 133.662 527.877 133.9 528.209 134.34L602.092 232.453L675.715 134.758V52.9023H672.883C671.261 52.9023 669.733 53.6593 668.753 54.9498H668.76Z" fill="white"/>
<path d="M36.8894 53.1187C33.8912 53.1187 31.4551 55.5482 31.4551 58.5546V101.66L79.9895 53.1187H36.8894Z" fill="white"/>
<path d="M167.754 149.054C167.754 149.054 159.328 140.547 159.184 140.259C159.055 140.489 150.55 149.054 150.55 149.054H167.754V149.054Z" fill="white"/>
<path d="M474.421 52.9023H471.74L387.335 188.144C387.025 188.641 386.477 188.951 385.886 188.951H375.969C375.378 188.951 374.83 188.641 374.52 188.137L290.871 52.9023H231.086L342.598 232.568H419.753L531.266 52.9023H474.414H474.421Z" fill="white"/>
<path d="M888.03 52.9023H844.938L893.465 101.443V58.3382C893.465 55.3391 891.036 52.9023 888.03 52.9023V52.9023Z" fill="white"/>
<path d="M840.397 52.9023H732.676V103.909H891.389L840.397 52.9023Z" fill="white"/>
<path d="M678.821 228.538C678.821 231.537 681.25 233.974 684.256 233.974H727.349L678.821 185.433V228.538V228.538Z" fill="white"/>
<path d="M893.465 117.831H732.676V168.585H893.465V117.831Z" fill="white"/>
<path d="M678.981 180.35L681.446 182.816L729.67 231.054V52.9023H678.981V180.35Z" fill="white"/>
<path d="M750.658 179.32V191.107H748.561V182.398L741.915 191.107H741.75L735.119 182.413V191.107H733.021V179.32H735.522L741.887 187.654H741.786L748.15 179.32H750.636H750.658Z" fill="white"/>
<path d="M752.769 179.32H768.676V181.418H754.86V184.165H768.28V186.262H754.86V189.009H768.676V191.107H752.769V179.32Z" fill="white"/>
<path d="M787.04 179.32V181.418H779.689V191.107H777.591V181.418H770.305V179.32H787.033H787.04Z" fill="white"/>
<path d="M802.363 191.107H799.941L798.241 188.606H787.638L785.952 191.107H783.53L791.177 179.32H794.731L802.378 191.107H802.363ZM792.359 181.418L788.871 186.508H797.022L793.505 181.418H792.359Z" fill="white"/>
<path d="M807.532 189.276H808.771L815.993 179.32H818.451L810.105 191.107H806.227L797.881 179.32H800.353L807.539 189.276H807.532Z" fill="white"/>
<path d="M819.762 179.32H835.668V181.418H821.852V184.165H835.272V186.262H821.852V189.009H835.668V191.107H819.762V179.32Z" fill="white"/>
<path d="M853.838 191.107H851.265L848.923 187.704H839.56V191.107H837.463V179.32H850.357C850.869 179.32 851.344 179.414 851.791 179.601C852.231 179.788 852.62 180.034 852.952 180.336C853.283 180.639 853.543 180.992 853.737 181.389C853.925 181.785 854.026 182.196 854.026 182.607V184.323C854.026 184.669 853.953 185.03 853.802 185.39C853.658 185.751 853.456 186.082 853.211 186.392C852.966 186.695 852.685 186.955 852.361 187.171C852.036 187.387 851.712 187.524 851.373 187.589L853.831 191.107H853.838ZM851.943 183.804V183.134C851.943 182.903 851.892 182.687 851.784 182.478C851.683 182.268 851.539 182.088 851.359 181.93C851.179 181.771 850.962 181.648 850.71 181.555C850.458 181.461 850.184 181.418 849.874 181.418H839.56V185.606H849.874C850.242 185.606 850.559 185.549 850.825 185.441C851.092 185.332 851.301 185.188 851.467 185.015C851.633 184.842 851.748 184.648 851.827 184.431C851.907 184.222 851.943 184.006 851.943 183.804Z" fill="white"/>
<path d="M870.466 183.443C870.466 183.227 870.422 182.997 870.329 182.766C870.235 182.528 870.091 182.312 869.903 182.11C869.709 181.908 869.471 181.742 869.183 181.612C868.894 181.483 868.549 181.418 868.159 181.418H859.503C859.244 181.418 858.992 181.454 858.754 181.533C858.516 181.612 858.307 181.72 858.119 181.865C857.939 182.009 857.795 182.182 857.694 182.398C857.593 182.614 857.536 182.852 857.536 183.126C857.536 183.508 857.701 183.797 858.047 183.991C858.386 184.186 858.905 184.287 859.604 184.287H868.851C869.377 184.287 869.86 184.345 870.307 184.467C870.754 184.59 871.15 184.777 871.489 185.037C871.828 185.296 872.095 185.628 872.282 186.024C872.477 186.421 872.57 186.897 872.57 187.438C872.57 187.942 872.477 188.418 872.282 188.865C872.095 189.312 871.828 189.701 871.496 190.033C871.165 190.365 870.776 190.631 870.336 190.819C869.896 191.006 869.413 191.107 868.902 191.107H859.33C858.761 191.107 858.249 190.985 857.781 190.739C857.319 190.494 856.916 190.177 856.577 189.781C856.238 189.391 855.979 188.944 855.791 188.454C855.604 187.964 855.518 187.474 855.518 186.983H857.615C857.615 187.192 857.658 187.409 857.737 187.647C857.817 187.884 857.954 188.101 858.141 188.31C858.328 188.519 858.566 188.685 858.862 188.815C859.157 188.944 859.518 189.009 859.943 189.009H868.484C868.786 189.009 869.067 188.966 869.313 188.872C869.558 188.778 869.774 188.656 869.954 188.497C870.134 188.339 870.271 188.158 870.372 187.957C870.473 187.755 870.523 187.546 870.523 187.322C870.523 187.084 870.48 186.89 870.394 186.753C870.307 186.608 870.177 186.5 870.004 186.421C869.831 186.342 869.615 186.284 869.363 186.255C869.111 186.226 868.822 186.212 868.498 186.212H859.431C858.927 186.212 858.437 186.147 857.968 186.024C857.5 185.902 857.074 185.7 856.714 185.433C856.354 185.167 856.065 184.828 855.856 184.424C855.647 184.02 855.539 183.537 855.539 182.982C855.539 182.47 855.633 181.994 855.828 181.547C856.022 181.1 856.282 180.718 856.613 180.387C856.945 180.055 857.334 179.788 857.781 179.601C858.228 179.413 858.703 179.312 859.208 179.312H868.786C869.356 179.312 869.875 179.435 870.343 179.68C870.812 179.925 871.215 180.243 871.547 180.639C871.878 181.028 872.138 181.475 872.325 181.966C872.513 182.456 872.606 182.946 872.606 183.436H870.509L870.466 183.443Z" fill="white"/>
<path d="M874.365 179.32H890.272V181.418H876.455V184.165H889.876V186.262H876.455V189.009H890.272V191.107H874.365V179.32Z" fill="white"/>
<path d="M750.658 195.613V207.4H748.561V198.691L741.915 207.4H741.75L735.119 198.706V207.4H733.021V195.613H735.522L741.887 203.947H741.786L748.15 195.613H750.636H750.658Z" fill="white"/>
<path d="M769.151 195.635V203.738C769.151 204.243 769.057 204.719 768.863 205.166C768.668 205.613 768.409 206.002 768.077 206.334C767.746 206.665 767.357 206.932 766.917 207.119C766.477 207.307 765.994 207.408 765.483 207.408H756.264C755.76 207.408 755.284 207.314 754.837 207.119C754.39 206.925 754.001 206.665 753.67 206.334C753.338 206.002 753.071 205.613 752.884 205.166C752.689 204.719 752.596 204.243 752.596 203.738V195.635H754.693V203.003C754.693 203.349 754.758 203.666 754.888 203.954C755.017 204.236 755.19 204.481 755.4 204.683C755.609 204.884 755.861 205.043 756.142 205.151C756.423 205.259 756.726 205.317 757.043 205.317H764.668C764.993 205.317 765.302 205.259 765.584 205.151C765.865 205.043 766.117 204.884 766.333 204.675C766.549 204.466 766.722 204.228 766.845 203.947C766.967 203.666 767.032 203.356 767.032 203.003V195.635H769.13H769.151Z" fill="white"/>
<path d="M785.585 199.744C785.585 199.528 785.541 199.297 785.448 199.066C785.354 198.828 785.217 198.612 785.023 198.41C784.828 198.208 784.59 198.042 784.302 197.913C784.014 197.783 783.675 197.718 783.278 197.718H774.622C774.363 197.718 774.111 197.754 773.873 197.833C773.635 197.913 773.426 198.021 773.246 198.165C773.065 198.309 772.921 198.482 772.82 198.698C772.72 198.915 772.669 199.153 772.669 199.427C772.669 199.809 772.835 200.097 773.174 200.292C773.512 200.486 774.031 200.587 774.73 200.587H783.977C784.504 200.587 784.986 200.645 785.433 200.768C785.88 200.89 786.277 201.078 786.608 201.337C786.94 201.597 787.214 201.928 787.401 202.325C787.588 202.721 787.689 203.197 787.689 203.738C787.689 204.242 787.596 204.718 787.401 205.165C787.206 205.612 786.947 206.002 786.615 206.333C786.284 206.665 785.895 206.932 785.455 207.119C785.015 207.306 784.532 207.407 784.021 207.407H774.442C773.873 207.407 773.361 207.285 772.892 207.04C772.431 206.795 772.028 206.477 771.689 206.081C771.35 205.692 771.091 205.245 770.903 204.754C770.716 204.264 770.622 203.774 770.622 203.284H772.72C772.72 203.493 772.763 203.709 772.842 203.947C772.921 204.185 773.058 204.401 773.238 204.61C773.426 204.819 773.664 204.985 773.959 205.115C774.255 205.245 774.615 205.309 775.04 205.309H783.588C783.891 205.309 784.165 205.266 784.417 205.172C784.662 205.079 784.871 204.956 785.051 204.798C785.231 204.639 785.368 204.459 785.469 204.257C785.57 204.055 785.614 203.846 785.614 203.622C785.614 203.385 785.57 203.19 785.484 203.053C785.397 202.909 785.268 202.801 785.095 202.721C784.922 202.642 784.705 202.584 784.46 202.555C784.208 202.527 783.92 202.512 783.595 202.512H774.529C774.024 202.512 773.541 202.447 773.065 202.325C772.59 202.202 772.172 202 771.811 201.734C771.451 201.467 771.163 201.128 770.954 200.724C770.745 200.321 770.637 199.838 770.637 199.282C770.637 198.771 770.73 198.295 770.925 197.848C771.112 197.408 771.379 197.019 771.71 196.687C772.042 196.355 772.431 196.089 772.878 195.901C773.325 195.714 773.801 195.613 774.305 195.613H783.877C784.446 195.613 784.965 195.735 785.433 195.98C785.902 196.226 786.305 196.543 786.637 196.939C786.969 197.329 787.228 197.776 787.415 198.266C787.603 198.756 787.689 199.246 787.689 199.737H785.592L785.585 199.744Z" fill="white"/>
<path d="M790.335 195.613H792.432V207.4H790.335V195.613Z" fill="white"/>
<path d="M810.04 200.068C810.04 199.751 809.982 199.455 809.874 199.167C809.766 198.886 809.607 198.634 809.406 198.424C809.204 198.215 808.966 198.042 808.685 197.913C808.404 197.783 808.094 197.718 807.741 197.718H799.56C799.229 197.718 798.926 197.776 798.638 197.891C798.349 198.006 798.097 198.172 797.874 198.381C797.658 198.597 797.485 198.85 797.369 199.145C797.247 199.441 797.189 199.773 797.189 200.14V202.988C797.189 203.341 797.247 203.651 797.369 203.94C797.492 204.221 797.658 204.466 797.874 204.675C798.09 204.884 798.349 205.043 798.645 205.151C798.94 205.259 799.258 205.317 799.596 205.317H807.748C808.007 205.317 808.274 205.259 808.548 205.136C808.822 205.014 809.067 204.855 809.283 204.646C809.499 204.437 809.679 204.185 809.824 203.875C809.968 203.565 810.033 203.233 810.033 202.88H812.13V203.204C812.13 203.716 812.036 204.228 811.856 204.725C811.669 205.23 811.409 205.677 811.078 206.074C810.746 206.47 810.343 206.795 809.874 207.04C809.406 207.285 808.887 207.407 808.317 207.407H798.76C798.256 207.407 797.78 207.314 797.333 207.119C796.886 206.932 796.497 206.665 796.166 206.333C795.834 206.002 795.575 205.612 795.38 205.165C795.186 204.718 795.092 204.242 795.092 203.738V199.282C795.092 198.771 795.186 198.295 795.38 197.848C795.575 197.401 795.834 197.019 796.166 196.687C796.497 196.355 796.886 196.089 797.333 195.901C797.78 195.714 798.256 195.613 798.76 195.613H808.317C808.887 195.613 809.406 195.735 809.874 195.98C810.343 196.226 810.746 196.543 811.078 196.939C811.409 197.329 811.669 197.776 811.856 198.266C812.044 198.756 812.13 199.246 812.13 199.737V200.061H810.033L810.04 200.068Z" fill="white"/>
<path d="M732.769 211.914H748.315V214.012H734.859V216.758H747.919V218.856H734.859V223.701H732.762V211.914H732.769Z" fill="white"/>
<path d="M749.958 211.914H765.865V214.012H752.048V216.758H765.468V218.856H752.048V221.603H765.865V223.701H749.958V211.914V211.914Z" fill="white"/>
<path d="M782.464 216.037C782.464 215.821 782.42 215.59 782.327 215.36C782.233 215.122 782.089 214.905 781.901 214.704C781.707 214.502 781.469 214.336 781.181 214.206C780.892 214.076 780.546 214.011 780.157 214.011H771.501C771.242 214.011 770.989 214.047 770.752 214.127C770.514 214.206 770.305 214.314 770.117 214.458C769.937 214.603 769.793 214.776 769.692 214.992C769.591 215.208 769.534 215.446 769.534 215.72C769.534 216.102 769.699 216.391 770.045 216.585C770.384 216.78 770.903 216.881 771.602 216.881H780.849C781.375 216.881 781.858 216.938 782.305 217.061C782.752 217.184 783.148 217.371 783.487 217.631C783.826 217.89 784.092 218.222 784.28 218.618C784.474 219.015 784.568 219.491 784.568 220.031C784.568 220.536 784.474 221.012 784.28 221.459C784.092 221.906 783.826 222.295 783.494 222.627C783.163 222.958 782.773 223.225 782.334 223.413C781.894 223.6 781.411 223.701 780.9 223.701H771.328C770.759 223.701 770.247 223.578 769.779 223.333C769.317 223.088 768.914 222.771 768.575 222.374C768.236 221.985 767.977 221.538 767.789 221.048C767.602 220.558 767.516 220.067 767.516 219.577H769.613C769.613 219.786 769.656 220.002 769.735 220.24C769.815 220.478 769.952 220.695 770.139 220.904C770.326 221.113 770.564 221.278 770.86 221.408C771.155 221.538 771.516 221.603 771.941 221.603H780.482C780.784 221.603 781.065 221.56 781.31 221.466C781.555 221.372 781.772 221.25 781.952 221.091C782.132 220.932 782.269 220.752 782.37 220.55C782.471 220.348 782.521 220.139 782.521 219.916C782.521 219.678 782.478 219.483 782.392 219.346C782.305 219.202 782.175 219.094 782.002 219.015C781.829 218.935 781.613 218.878 781.361 218.849C781.109 218.82 780.82 218.806 780.496 218.806H771.429C770.925 218.806 770.435 218.741 769.966 218.618C769.498 218.496 769.072 218.294 768.712 218.027C768.352 217.76 768.063 217.421 767.854 217.018C767.645 216.614 767.537 216.131 767.537 215.576C767.537 215.064 767.631 214.588 767.825 214.141C768.02 213.694 768.279 213.312 768.611 212.98C768.943 212.649 769.332 212.382 769.779 212.195C770.225 212.007 770.701 211.906 771.206 211.906H780.784C781.354 211.906 781.873 212.029 782.341 212.274C782.81 212.519 783.213 212.836 783.545 213.233C783.876 213.622 784.136 214.069 784.323 214.559C784.51 215.05 784.604 215.54 784.604 216.03H782.507L782.464 216.037Z" fill="white"/>
<path d="M802.429 211.914V214.012H795.077V223.701H792.98V214.012H785.693V211.914H802.421H802.429Z" fill="white"/>
<path d="M805.081 211.914H807.178V223.701H805.081V211.914V211.914Z" fill="white"/>
<path d="M819.005 221.87H820.245L827.467 211.914H829.924L821.578 223.701H817.701L809.354 211.914H811.827L819.012 221.87H819.005Z" fill="white"/>
<path d="M845.067 223.701H842.646L840.945 221.199H830.343L828.656 223.701H826.234L833.881 211.914H837.435L845.082 223.701H845.067ZM835.063 214.012L831.575 219.101H839.727L836.209 214.012H835.063Z" fill="white"/>
<path d="M846.263 223.665L846.249 211.914H848.346V221.589H862.228V223.701L846.271 223.665H846.263Z" fill="white"/>
</g>
<g filter="url(#filter1_d_59_219)">
<path d="M317.962 285.478H314.913V288.528H317.962V285.478Z" fill="white"/>
<path d="M317.962 276.322H314.913V279.372H317.962V276.322Z" fill="white"/>
<path d="M317.962 264.117H314.913V267.166H317.962V264.117Z" fill="white"/>
<path d="M314.906 285.478H311.857V288.528H314.906V285.478Z" fill="white"/>
<path d="M314.906 279.372H311.857V282.422H314.906V279.372Z" fill="white"/>
<path d="M311.858 285.478H308.809V288.528H311.858V285.478Z" fill="white"/>
<path d="M311.858 276.322H308.809V279.372H311.858V276.322Z" fill="white"/>
<path d="M308.808 285.478H305.76V288.528H308.808V285.478Z" fill="white"/>
<path d="M308.808 279.372H305.76V282.422H308.808V279.372Z" fill="white"/>
<path d="M305.753 285.478H302.704V288.528H305.753V285.478Z" fill="white"/>
<path d="M305.753 276.322H302.704V279.372H305.753V276.322Z" fill="white"/>
<path d="M302.704 285.478H299.655V288.528H302.704V285.478Z" fill="white"/>
<path d="M302.704 279.372H299.655V282.422H302.704V279.372Z" fill="white"/>
<path d="M314.906 270.216H311.857V273.265H314.906V270.216Z" fill="white"/>
<path d="M314.906 264.117H311.857V267.166H314.906V264.117Z" fill="white"/>
<path d="M311.858 264.117H308.809V267.166H311.858V264.117Z" fill="white"/>
<path d="M308.808 270.216H305.76V273.265H308.808V270.216Z" fill="white"/>
<path d="M308.808 264.117H305.76V267.166H308.808V264.117Z" fill="white"/>
<path d="M305.753 264.117H302.704V267.166H305.753V264.117Z" fill="white"/>
<path d="M302.704 270.216H299.655V273.265H302.704V270.216Z" fill="white"/>
<path d="M302.704 264.117H299.655V267.166H302.704V264.117Z" fill="white"/>
<path d="M299.656 285.478H296.607V288.528H299.656V285.478Z" fill="white"/>
<path d="M296.599 285.478H293.551V288.528H296.599V285.478Z" fill="white"/>
<path d="M296.599 279.372H293.551V282.422H296.599V279.372Z" fill="white"/>
<path d="M296.599 276.322H293.551V279.372H296.599V276.322Z" fill="white"/>
<path d="M293.552 285.478H290.503V288.528H293.552V285.478Z" fill="white"/>
<path d="M293.552 279.372H290.503V282.422H293.552V279.372Z" fill="white"/>
<path d="M290.502 285.478H287.453V288.528H290.502V285.478Z" fill="white"/>
<path d="M290.502 279.372H287.453V282.422H290.502V279.372Z" fill="white"/>
<path d="M287.446 285.478H284.397V288.528H287.446V285.478Z" fill="white"/>
<path d="M287.446 279.372H284.397V282.422H287.446V279.372Z" fill="white"/>
<path d="M284.397 285.478H281.349V288.528H284.397V285.478Z" fill="white"/>
<path d="M284.397 279.372H281.349V282.422H284.397V279.372Z" fill="white"/>
<path d="M281.349 285.478H278.301V288.528H281.349V285.478Z" fill="white"/>
<path d="M281.349 279.372H278.301V282.422H281.349V279.372Z" fill="white"/>
<path d="M281.349 276.322H278.301V279.372H281.349V276.322Z" fill="white"/>
<path d="M278.292 285.478H275.243V288.528H278.292V285.478Z" fill="white"/>
<path d="M299.656 264.117H296.607V267.166H299.656V264.117Z" fill="white"/>
<path d="M296.599 273.272H293.551V276.322H296.599V273.272Z" fill="white"/>
<path d="M296.599 270.216H293.551V273.265H296.599V270.216Z" fill="white"/>
<path d="M296.599 267.167H293.551V270.216H296.599V267.167Z" fill="white"/>
<path d="M296.599 264.117H293.551V267.166H296.599V264.117Z" fill="white"/>
<path d="M287.446 273.272H284.397V276.322H287.446V273.272Z" fill="white"/>
<path d="M287.446 270.216H284.397V273.265H287.446V270.216Z" fill="white"/>
<path d="M287.446 267.167H284.397V270.216H287.446V267.167Z" fill="white"/>
<path d="M287.446 264.117H284.397V267.166H287.446V264.117Z" fill="white"/>
<path d="M281.349 273.272H278.301V276.322H281.349V273.272Z" fill="white"/>
<path d="M281.349 270.216H278.301V273.265H281.349V270.216Z" fill="white"/>
<path d="M281.349 267.167H278.301V270.216H281.349V267.167Z" fill="white"/>
<path d="M281.349 264.117H278.301V267.166H281.349V264.117Z" fill="white"/>
<path d="M278.292 264.117H275.243V267.166H278.292V264.117Z" fill="white"/>
<path d="M275.244 285.478H272.195V288.528H275.244V285.478Z" fill="white"/>
<path d="M272.195 285.478H269.146V288.528H272.195V285.478Z" fill="white"/>
<path d="M272.195 279.372H269.146V282.422H272.195V279.372Z" fill="white"/>
<path d="M269.139 285.478H266.091V288.528H269.139V285.478Z" fill="white"/>
<path d="M269.139 279.372H266.091V282.422H269.139V279.372Z" fill="white"/>
<path d="M266.09 285.478H263.041V288.528H266.09V285.478Z" fill="white"/>
<path d="M266.09 279.372H263.041V282.422H266.09V279.372Z" fill="white"/>
<path d="M263.042 285.478H259.993V288.528H263.042V285.478Z" fill="white"/>
<path d="M263.042 279.372H259.993V282.422H263.042V279.372Z" fill="white"/>
<path d="M259.986 285.478H256.937V288.528H259.986V285.478Z" fill="white"/>
<path d="M259.986 279.372H256.937V282.422H259.986V279.372Z" fill="white"/>
<path d="M256.937 285.478H253.889V288.528H256.937V285.478Z" fill="white"/>
<path d="M256.937 279.372H253.889V282.422H256.937V279.372Z" fill="white"/>
<path d="M275.244 264.117H272.195V267.166H275.244V264.117Z" fill="white"/>
<path d="M272.195 270.216H269.146V273.265H272.195V270.216Z" fill="white"/>
<path d="M272.195 264.117H269.146V267.166H272.195V264.117Z" fill="white"/>
<path d="M266.09 273.272H263.041V276.322H266.09V273.272Z" fill="white"/>
<path d="M266.09 270.216H263.041V273.265H266.09V270.216Z" fill="white"/>
<path d="M266.09 267.167H263.041V270.216H266.09V267.167Z" fill="white"/>
<path d="M266.09 264.117H263.041V267.166H266.09V264.117Z" fill="white"/>
<path d="M263.042 273.272H259.993V276.322H263.042V273.272Z" fill="white"/>
<path d="M263.042 270.216H259.993V273.265H263.042V270.216Z" fill="white"/>
<path d="M263.042 267.167H259.993V270.216H263.042V267.167Z" fill="white"/>
<path d="M263.042 264.117H259.993V267.166H263.042V264.117Z" fill="white"/>
<path d="M256.937 270.216H253.889V273.265H256.937V270.216Z" fill="white"/>
<path d="M256.937 264.117H253.889V267.166H256.937V264.117Z" fill="white"/>
<path d="M778.665 264.117H775.616V267.166H778.665V264.117Z" fill="white"/>
<path d="M775.609 264.117H772.561V267.166H775.609V264.117Z" fill="white"/>
<path d="M775.609 270.216H772.561V273.265H775.609V270.216Z" fill="white"/>
<path d="M772.561 264.117H769.513V267.166H772.561V264.117Z" fill="white"/>
<path d="M772.561 270.216H769.513V273.265H772.561V270.216Z" fill="white"/>
<path d="M769.513 264.117H766.464V267.166H769.513V264.117Z" fill="white"/>
<path d="M769.513 270.216H766.464V273.265H769.513V270.216Z" fill="white"/>
<path d="M766.457 264.117H763.408V267.166H766.457V264.117Z" fill="white"/>
<path d="M766.457 267.167H763.408V273.273H766.457V267.167Z" fill="white"/>
<path d="M763.407 264.117H760.359V267.166H763.407V264.117Z" fill="white"/>
<path d="M763.407 270.216H760.359V273.265H763.407V270.216Z" fill="white"/>
<path d="M760.359 264.117H757.311V267.166H760.359V264.117Z" fill="white"/>
<path d="M760.359 270.216H757.311V273.265H760.359V270.216Z" fill="white"/>
<path d="M757.302 264.117H754.254V267.166H757.302V264.117Z" fill="white"/>
<path d="M778.838 285.478H775.616V288.528H778.838V285.478Z" fill="white"/>
<path d="M773.563 279.372H758.831V282.422H773.563V279.372Z" fill="white"/>
<path d="M775.609 285.478H772.561V288.528H775.609V285.478Z" fill="white"/>
<path d="M769.513 276.322H766.464V279.372H769.513V276.322Z" fill="white"/>
<path d="M769.513 279.372H766.464V282.422H769.513V279.372Z" fill="white"/>
<path d="M769.513 282.429H766.464V285.478H769.513V282.429Z" fill="white"/>
<path d="M769.513 285.478H766.464V288.528H769.513V285.478Z" fill="white"/>
<path d="M766.457 276.322H763.408V279.372H766.457V276.322Z" fill="white"/>
<path d="M766.457 279.372H763.408V282.422H766.457V279.372Z" fill="white"/>
<path d="M766.457 282.429H763.408V285.478H766.457V282.429Z" fill="white"/>
<path d="M766.457 285.478H763.408V288.528H766.457V285.478Z" fill="white"/>
<path d="M760.359 279.372H757.311V282.422H760.359V279.372Z" fill="white"/>
<path d="M760.359 285.478H757.311V288.528H760.359V285.478Z" fill="white"/>
<path d="M757.302 285.478H754.254V288.528H757.302V285.478Z" fill="white"/>
<path d="M754.255 264.117H751.206V267.166H754.255V264.117Z" fill="white"/>
<path d="M754.255 270.216H751.206V273.265H754.255V270.216Z" fill="white"/>
<path d="M754.255 273.272H751.206V276.322H754.255V273.272Z" fill="white"/>
<path d="M751.205 264.117H748.156V267.166H751.205V264.117Z" fill="white"/>
<path d="M751.205 270.216H748.156V273.265H751.205V270.216Z" fill="white"/>
<path d="M748.149 264.117H745.101V267.166H748.149V264.117Z" fill="white"/>
<path d="M748.149 270.216H745.101V273.265H748.149V270.216Z" fill="white"/>
<path d="M745.1 264.117H742.052V267.166H745.1V264.117Z" fill="white"/>
<path d="M745.1 270.216H742.052V273.265H745.1V270.216Z" fill="white"/>
<path d="M742.052 264.117H739.004V267.166H742.052V264.117Z" fill="white"/>
<path d="M742.052 270.216H739.004V273.265H742.052V270.216Z" fill="white"/>
<path d="M738.997 264.117H735.948V267.166H738.997V264.117Z" fill="white"/>
<path d="M738.997 270.216H735.948V273.265H738.997V270.216Z" fill="white"/>
<path d="M735.947 264.117H732.898V267.166H735.947V264.117Z" fill="white"/>
<path d="M735.947 270.216H732.898V273.265H735.947V270.216Z" fill="white"/>
<path d="M732.898 264.117H729.85V267.166H732.898V264.117Z" fill="white"/>
<path d="M732.898 267.167H729.85V273.273H732.898V267.167Z" fill="white"/>
<path d="M732.898 273.272H729.85V276.322H732.898V273.272Z" fill="white"/>
<path d="M754.255 276.322H751.206V279.372H754.255V276.322Z" fill="white"/>
<path d="M754.255 279.372H751.206V282.422H754.255V279.372Z" fill="white"/>
<path d="M754.255 282.429H751.206V285.478H754.255V282.429Z" fill="white"/>
<path d="M754.255 285.478H751.206V288.528H754.255V285.478Z" fill="white"/>
<path d="M751.205 276.322H748.156V279.372H751.205V276.322Z" fill="white"/>
<path d="M751.205 282.429H748.156V285.478H751.205V282.429Z" fill="white"/>
<path d="M745.1 276.322H742.052V279.372H745.1V276.322Z" fill="white"/>
<path d="M745.1 282.429H742.052V285.478H745.1V282.429Z" fill="white"/>
<path d="M742.052 279.372H739.004V282.422H742.052V279.372Z" fill="white"/>
<path d="M742.052 285.478H739.004V288.528H742.052V285.478Z" fill="white"/>
<path d="M735.947 276.322H732.898V279.372H735.947V276.322Z" fill="white"/>
<path d="M735.947 282.429H732.898V285.478H735.947V282.429Z" fill="white"/>
<path d="M732.898 276.322H729.85V279.372H732.898V276.322Z" fill="white"/>
<path d="M732.898 279.372H729.85V282.422H732.898V279.372Z" fill="white"/>
<path d="M732.898 282.429H729.85V285.478H732.898V282.429Z" fill="white"/>
<path d="M732.898 285.478H729.85V288.528H732.898V285.478Z" fill="white"/>
<path d="M729.843 264.117H726.794V267.166H729.843V264.117Z" fill="white"/>
<path d="M729.843 273.272H726.794V276.322H729.843V273.272Z" fill="white"/>
<path d="M726.794 264.117H723.745V267.166H726.794V264.117Z" fill="white"/>
<path d="M726.794 270.216H723.745V273.265H726.794V270.216Z" fill="white"/>
<path d="M723.746 264.117H720.697V267.166H723.746V264.117Z" fill="white"/>
<path d="M723.745 273.272H714.592V276.322H723.745V273.272Z" fill="white"/>
<path d="M720.696 264.117H717.648V267.166H720.696V264.117Z" fill="white"/>
<path d="M717.641 264.117H714.592V267.166H717.641V264.117Z" fill="white"/>
<path d="M714.592 264.117H711.543V267.166H714.592V264.117Z" fill="white"/>
<path d="M714.592 270.216H711.543V273.265H714.592V270.216Z" fill="white"/>
<path d="M711.544 264.117H708.495V267.166H711.544V264.117Z" fill="white"/>
<path d="M711.544 273.272H708.495V276.322H711.544V273.272Z" fill="white"/>
<path d="M708.488 264.117H705.439V267.166H708.488V264.117Z" fill="white"/>
<path d="M708.488 270.216H705.439V273.265H708.488V270.216Z" fill="white"/>
<path d="M729.843 285.478H726.794V288.528H729.843V285.478Z" fill="white"/>
<path d="M726.794 279.372H723.745V282.422H726.794V279.372Z" fill="white"/>
<path d="M726.794 285.478H723.745V288.528H726.794V285.478Z" fill="white"/>
<path d="M723.746 285.478H720.697V288.528H723.746V285.478Z" fill="white"/>
<path d="M720.696 276.322H717.648V282.429H720.696V276.322Z" fill="white"/>
<path d="M720.696 285.478H717.648V288.528H720.696V285.478Z" fill="white"/>
<path d="M717.641 285.478H714.592V288.528H717.641V285.478Z" fill="white"/>
<path d="M714.592 279.372H711.543V282.422H714.592V279.372Z" fill="white"/>
<path d="M714.592 285.478H711.543V288.528H714.592V285.478Z" fill="white"/>
<path d="M711.544 285.478H708.495V288.528H711.544V285.478Z" fill="white"/>
<path d="M708.488 279.372H705.439V282.422H708.488V279.372Z" fill="white"/>
<path d="M708.488 285.478H705.439V288.528H708.488V285.478Z" fill="white"/>
<path d="M705.438 264.117H702.39V267.166H705.438V264.117Z" fill="white"/>
<path d="M702.389 264.117H699.341V267.166H702.389V264.117Z" fill="white"/>
<path d="M702.389 270.216H699.341V273.265H702.389V270.216Z" fill="white"/>
<path d="M702.389 273.272H699.341V276.322H702.389V273.272Z" fill="white"/>
<path d="M699.334 264.117H696.285V267.166H699.334V264.117Z" fill="white"/>
<path d="M699.334 270.216H696.285V273.265H699.334V270.216Z" fill="white"/>
<path d="M696.286 264.117H693.237V267.166H696.286V264.117Z" fill="white"/>
<path d="M696.286 270.216H693.237V273.265H696.286V270.216Z" fill="white"/>
<path d="M693.236 264.117H690.188V267.166H693.236V264.117Z" fill="white"/>
<path d="M693.236 270.216H690.188V273.265H693.236V270.216Z" fill="white"/>
<path d="M690.181 264.117H687.132V267.166H690.181V264.117Z" fill="white"/>
<path d="M690.181 270.216H687.132V273.265H690.181V270.216Z" fill="white"/>
<path d="M687.132 264.117H684.083V267.166H687.132V264.117Z" fill="white"/>
<path d="M687.132 270.216H684.083V273.265H687.132V270.216Z" fill="white"/>
<path d="M687.132 273.272H684.083V276.322H687.132V273.272Z" fill="white"/>
<path d="M684.083 264.117H681.034V267.166H684.083V264.117Z" fill="white"/>
<path d="M705.438 285.478H702.39V288.528H705.438V285.478Z" fill="white"/>
<path d="M702.389 276.322H699.341V279.372H702.389V276.322Z" fill="white"/>
<path d="M702.389 279.372H699.341V282.422H702.389V279.372Z" fill="white"/>
<path d="M702.389 282.429H699.341V285.478H702.389V282.429Z" fill="white"/>
<path d="M702.389 285.478H699.341V288.528H702.389V285.478Z" fill="white"/>
<path d="M696.286 279.372H693.237V282.422H696.286V279.372Z" fill="white"/>
<path d="M696.286 285.478H693.237V288.528H696.286V285.478Z" fill="white"/>
<path d="M693.236 276.322H690.188V279.372H693.236V276.322Z" fill="white"/>
<path d="M693.236 282.429H690.188V285.478H693.236V282.429Z" fill="white"/>
<path d="M687.132 276.322H684.083V279.372H687.132V276.322Z" fill="white"/>
<path d="M687.132 279.372H684.083V282.422H687.132V279.372Z" fill="white"/>
<path d="M687.132 282.429H684.083V285.478H687.132V282.429Z" fill="white"/>
<path d="M687.132 285.478H684.083V288.528H687.132V285.478Z" fill="white"/>
<path d="M684.083 285.478H681.034V288.528H684.083V285.478Z" fill="white"/>
<path d="M681.027 264.117H677.979V267.166H681.027V264.117Z" fill="white"/>
<path d="M677.979 264.117H674.931V267.166H677.979V264.117Z" fill="white"/>
<path d="M678.736 270.216H674.931V273.265H678.736V270.216Z" fill="white"/>
<path d="M674.93 264.117H671.881V267.166H674.93V264.117Z" fill="white"/>
<path d="M674.93 270.216H671.881V273.265H674.93V270.216Z" fill="white"/>
<path d="M671.874 264.117H668.825V267.166H671.874V264.117Z" fill="white"/>
<path d="M671.874 270.216H668.825V273.265H671.874V270.216Z" fill="white"/>
<path d="M668.825 264.117H665.776V267.166H668.825V264.117Z" fill="white"/>
<path d="M668.825 270.216H665.776V273.265H668.825V270.216Z" fill="white"/>
<path d="M665.777 264.117H662.729V267.166H665.777V264.117Z" fill="white"/>
<path d="M665.777 270.216H662.729V273.265H665.777V270.216Z" fill="white"/>
<path d="M662.72 264.117H659.671V267.166H662.72V264.117Z" fill="white"/>
<path d="M662.72 270.216H659.671V273.265H662.72V270.216Z" fill="white"/>
<path d="M659.672 264.117H656.623V267.166H659.672V264.117Z" fill="white"/>
<path d="M681.027 285.478H677.979V288.528H681.027V285.478Z" fill="white"/>
<path d="M684.617 279.372H674.931V282.422H684.617V279.372Z" fill="white"/>
<path d="M677.986 285.478H671.881V288.528H677.986V285.478Z" fill="white"/>
<path d="M671.874 276.322H668.825V279.372H671.874V276.322Z" fill="white"/>
<path d="M671.874 279.372H668.825V282.422H671.874V279.372Z" fill="white"/>
<path d="M671.874 282.429H668.825V285.478H671.874V282.429Z" fill="white"/>
<path d="M671.874 285.478H668.825V288.528H671.874V285.478Z" fill="white"/>
<path d="M668.825 273.272H665.776V279.379H668.825V273.272Z" fill="white"/>
<path d="M668.825 279.372H665.776V282.422H668.825V279.372Z" fill="white"/>
<path d="M668.825 282.429H665.776V285.478H668.825V282.429Z" fill="white"/>
<path d="M668.825 285.478H665.776V288.528H668.825V285.478Z" fill="white"/>
<path d="M662.72 279.372H659.671V282.422H662.72V279.372Z" fill="white"/>
<path d="M662.72 285.478H659.671V288.528H662.72V285.478Z" fill="white"/>
<path d="M659.672 285.478H656.623V288.528H659.672V285.478Z" fill="white"/>
<path d="M656.623 264.117H653.574V267.166H656.623V264.117Z" fill="white"/>
<path d="M656.623 270.216H653.574V273.265H656.623V270.216Z" fill="white"/>
<path d="M656.623 273.272H653.574V276.322H656.623V273.272Z" fill="white"/>
<path d="M653.575 264.117H650.526V267.166H653.575V264.117Z" fill="white"/>
<path d="M653.575 270.216H650.526V273.265H653.575V270.216Z" fill="white"/>
<path d="M650.517 264.117H647.469V267.166H650.517V264.117Z" fill="white"/>
<path d="M650.517 270.216H647.469V273.265H650.517V270.216Z" fill="white"/>
<path d="M647.47 264.117H644.421V267.166H647.47V264.117Z" fill="white"/>
<path d="M647.47 270.216H644.421V273.265H647.47V270.216Z" fill="white"/>
<path d="M644.421 264.117H641.372V267.166H644.421V264.117Z" fill="white"/>
<path d="M644.421 270.216H641.372V273.265H644.421V270.216Z" fill="white"/>
<path d="M641.365 264.117H638.316V267.166H641.365V264.117Z" fill="white"/>
<path d="M641.365 270.216H638.316V273.265H641.365V270.216Z" fill="white"/>
<path d="M638.316 264.117H635.268V267.166H638.316V264.117Z" fill="white"/>
<path d="M638.316 270.216H635.268V273.265H638.316V270.216Z" fill="white"/>
<path d="M635.268 264.117H632.22V267.166H635.268V264.117Z" fill="white"/>
<path d="M635.268 270.216H632.22V273.265H635.268V270.216Z" fill="white"/>
<path d="M635.268 273.272H632.22V276.322H635.268V273.272Z" fill="white"/>
<path d="M656.623 276.322H653.574V279.372H656.623V276.322Z" fill="white"/>
<path d="M656.623 279.372H653.574V282.422H656.623V279.372Z" fill="white"/>
<path d="M656.623 282.429H653.574V285.478H656.623V282.429Z" fill="white"/>
<path d="M656.623 285.478H653.574V288.528H656.623V285.478Z" fill="white"/>
<path d="M653.575 276.322H650.526V279.372H653.575V276.322Z" fill="white"/>
<path d="M653.575 282.429H650.526V285.478H653.575V282.429Z" fill="white"/>
<path d="M647.47 276.322H644.421V279.372H647.47V276.322Z" fill="white"/>
<path d="M647.47 282.429H644.421V285.478H647.47V282.429Z" fill="white"/>
<path d="M644.421 279.372H641.372V282.422H644.421V279.372Z" fill="white"/>
<path d="M644.421 285.478H641.372V288.528H644.421V285.478Z" fill="white"/>
<path d="M638.316 276.322H635.268V279.372H638.316V276.322Z" fill="white"/>
<path d="M638.316 282.429H635.268V285.478H638.316V282.429Z" fill="white"/>
<path d="M635.268 276.322H632.22V279.372H635.268V276.322Z" fill="white"/>
<path d="M635.268 279.372H632.22V282.422H635.268V279.372Z" fill="white"/>
<path d="M635.268 282.429H632.22V285.478H635.268V282.429Z" fill="white"/>
<path d="M635.268 285.478H632.22V288.528H635.268V285.478Z" fill="white"/>
<path d="M632.213 264.117H629.164V267.166H632.213V264.117Z" fill="white"/>
<path d="M632.213 273.272H629.164V276.322H632.213V273.272Z" fill="white"/>
<path d="M629.163 264.117H626.114V267.166H629.163V264.117Z" fill="white"/>
<path d="M629.163 270.216H626.114V273.265H629.163V270.216Z" fill="white"/>
<path d="M626.114 264.117H623.065V267.166H626.114V264.117Z" fill="white"/>
<path d="M626.114 273.272H623.065V276.322H626.114V273.272Z" fill="white"/>
<path d="M623.059 264.117H620.01V267.166H623.059V264.117Z" fill="white"/>
<path d="M623.059 270.216H620.01V273.265H623.059V270.216Z" fill="white"/>
<path d="M620.009 264.117H616.96V267.166H620.009V264.117Z" fill="white"/>
<path d="M620.009 273.272H616.96V276.322H620.009V273.272Z" fill="white"/>
<path d="M632.213 285.478H629.164V288.528H632.213V285.478Z" fill="white"/>
<path d="M629.163 279.372H626.114V282.422H629.163V279.372Z" fill="white"/>
<path d="M629.163 285.478H626.114V288.528H629.163V285.478Z" fill="white"/>
<path d="M626.114 285.478H623.065V288.528H626.114V285.478Z" fill="white"/>
<path d="M623.059 279.372H620.01V282.422H623.059V279.372Z" fill="white"/>
<path d="M623.059 285.478H620.01V288.528H623.059V285.478Z" fill="white"/>
<path d="M620.009 285.478H616.96V288.528H620.009V285.478Z" fill="white"/>
<path d="M433.901 264.117H430.852V267.166H433.901V264.117Z" fill="white"/>
<path d="M436.949 264.117H433.9V267.166H436.949V264.117Z" fill="white"/>
<path d="M436.949 270.216H433.9V273.265H436.949V270.216Z" fill="white"/>
<path d="M436.949 273.272H433.9V276.322H436.949V273.272Z" fill="white"/>
<path d="M439.998 264.117H436.949V267.166H439.998V264.117Z" fill="white"/>
<path d="M439.998 270.216H436.949V273.265H439.998V270.216Z" fill="white"/>
<path d="M443.054 264.117H440.005V267.166H443.054V264.117Z" fill="white"/>
<path d="M443.054 270.216H440.005V273.265H443.054V270.216Z" fill="white"/>
<path d="M446.103 264.117H443.055V267.166H446.103V264.117Z" fill="white"/>
<path d="M446.103 270.216H443.055V273.265H446.103V270.216Z" fill="white"/>
<path d="M449.151 264.117H446.103V267.166H449.151V264.117Z" fill="white"/>
<path d="M449.151 270.216H446.103V273.265H449.151V270.216Z" fill="white"/>
<path d="M452.208 264.117H449.159V267.166H452.208V264.117Z" fill="white"/>
<path d="M452.208 270.216H449.159V273.265H452.208V270.216Z" fill="white"/>
<path d="M452.208 273.272H449.159V276.322H452.208V273.272Z" fill="white"/>
<path d="M455.256 264.117H452.207V267.166H455.256V264.117Z" fill="white"/>
<path d="M433.901 285.478H430.852V288.528H433.901V285.478Z" fill="white"/>
<path d="M436.949 276.322H433.9V279.372H436.949V276.322Z" fill="white"/>
<path d="M436.949 279.372H433.9V282.422H436.949V279.372Z" fill="white"/>
<path d="M436.949 282.429H433.9V285.478H436.949V282.429Z" fill="white"/>
<path d="M436.949 285.478H433.9V288.528H436.949V285.478Z" fill="white"/>
<path d="M443.054 276.322H440.005V279.372H443.054V276.322Z" fill="white"/>
<path d="M443.054 279.372H440.005V282.422H443.054V279.372Z" fill="white"/>
<path d="M443.054 282.429H440.005V285.478H443.054V282.429Z" fill="white"/>
<path d="M443.054 285.478H440.005V288.528H443.054V285.478Z" fill="white"/>
<path d="M446.103 276.322H443.055V279.372H446.103V276.322Z" fill="white"/>
<path d="M446.103 279.372H443.055V282.422H446.103V279.372Z" fill="white"/>
<path d="M446.103 282.429H443.055V285.478H446.103V282.429Z" fill="white"/>
<path d="M446.103 285.478H443.055V288.528H446.103V285.478Z" fill="white"/>
<path d="M458.313 276.322H449.159V279.372H458.313V276.322Z" fill="white"/>
<path d="M452.208 279.372H449.159V282.422H452.208V279.372Z" fill="white"/>
<path d="M452.208 282.429H449.159V285.478H452.208V282.429Z" fill="white"/>
<path d="M452.208 285.478H449.159V288.528H452.208V285.478Z" fill="white"/>
<path d="M455.256 285.478H452.207V288.528H455.256V285.478Z" fill="white"/>
<path d="M458.305 264.117H455.256V267.166H458.305V264.117Z" fill="white"/>
<path d="M461.354 264.117H458.306V267.166H461.354V264.117Z" fill="white"/>
<path d="M461.354 270.216H458.306V273.265H461.354V270.216Z" fill="white"/>
<path d="M464.41 264.117H461.361V267.166H464.41V264.117Z" fill="white"/>
<path d="M464.41 270.216H461.361V273.265H464.41V270.216Z" fill="white"/>
<path d="M467.458 264.117H464.409V267.166H467.458V264.117Z" fill="white"/>
<path d="M467.458 270.216H464.409V273.265H467.458V270.216Z" fill="white"/>
<path d="M470.507 264.117H467.458V267.166H470.507V264.117Z" fill="white"/>
<path d="M470.507 270.216H467.458V273.265H470.507V270.216Z" fill="white"/>
<path d="M473.562 264.117H470.514V267.166H473.562V264.117Z" fill="white"/>
<path d="M473.562 270.216H470.514V273.265H473.562V270.216Z" fill="white"/>
<path d="M476.612 264.117H473.563V267.166H476.612V264.117Z" fill="white"/>
<path d="M476.612 270.216H473.563V273.265H476.612V270.216Z" fill="white"/>
<path d="M479.66 264.117H476.611V267.166H479.66V264.117Z" fill="white"/>
<path d="M458.305 285.478H455.256V288.528H458.305V285.478Z" fill="white"/>
<path d="M461.354 273.272H458.306V282.428H461.354V273.272Z" fill="white"/>
<path d="M461.354 285.478H458.306V288.528H461.354V285.478Z" fill="white"/>
<path d="M464.41 285.478H461.361V288.528H464.41V285.478Z" fill="white"/>
<path d="M467.458 285.478H464.409V288.528H467.458V285.478Z" fill="white"/>
<path d="M470.002 285.478H466.953V288.528H470.002V285.478Z" fill="white"/>
<path d="M473.058 285.478H470.01V288.528H473.058V285.478Z" fill="white"/>
<path d="M467.458 279.372H464.409V282.422H467.458V279.372Z" fill="white"/>
<path d="M470.507 279.372H467.458V282.422H470.507V279.372Z" fill="white"/>
<path d="M476.612 279.372H473.563V282.422H476.612V279.372Z" fill="white"/>
<path d="M476.612 285.478H473.563V288.528H476.612V285.478Z" fill="white"/>
<path d="M479.66 285.478H476.611V288.528H479.66V285.478Z" fill="white"/>
<path d="M482.717 264.117H479.668V267.166H482.717V264.117Z" fill="white"/>
<path d="M482.717 270.216H479.668V273.265H482.717V270.216Z" fill="white"/>
<path d="M482.717 273.272H479.668V276.322H482.717V273.272Z" fill="white"/>
<path d="M485.765 264.117H482.716V267.166H485.765V264.117Z" fill="white"/>
<path d="M485.765 270.216H482.716V273.265H485.765V270.216Z" fill="white"/>
<path d="M488.814 264.117H485.766V267.166H488.814V264.117Z" fill="white"/>
<path d="M488.814 270.216H485.766V273.265H488.814V270.216Z" fill="white"/>
<path d="M491.87 264.117H488.821V267.166H491.87V264.117Z" fill="white"/>
<path d="M491.87 270.216H488.821V273.265H491.87V270.216Z" fill="white"/>
<path d="M494.919 264.117H491.87V267.166H494.919V264.117Z" fill="white"/>
<path d="M494.919 270.216H491.87V273.265H494.919V270.216Z" fill="white"/>
<path d="M497.967 264.117H494.918V267.166H497.967V264.117Z" fill="white"/>
<path d="M497.967 270.216H494.918V273.265H497.967V270.216Z" fill="white"/>
<path d="M501.023 264.117H497.974V267.166H501.023V264.117Z" fill="white"/>
<path d="M501.023 270.216H497.974V273.265H501.023V270.216Z" fill="white"/>
<path d="M504.072 264.117H501.023V267.166H504.072V264.117Z" fill="white"/>
<path d="M504.072 270.216H501.023V273.265H504.072V270.216Z" fill="white"/>
<path d="M504.072 273.272H501.023V276.322H504.072V273.272Z" fill="white"/>
<path d="M482.717 276.322H479.668V279.372H482.717V276.322Z" fill="white"/>
<path d="M482.717 279.372H479.668V282.422H482.717V279.372Z" fill="white"/>
<path d="M482.717 282.429H479.668V285.478H482.717V282.429Z" fill="white"/>
<path d="M482.717 285.478H479.668V288.528H482.717V285.478Z" fill="white"/>
<path d="M485.765 276.322H482.716V279.372H485.765V276.322Z" fill="white"/>
<path d="M485.765 282.429H482.716V285.478H485.765V282.429Z" fill="white"/>
<path d="M491.87 276.322H488.821V279.372H491.87V276.322Z" fill="white"/>
<path d="M491.87 282.429H488.821V285.478H491.87V282.429Z" fill="white"/>
<path d="M494.919 279.372H491.87V282.422H494.919V279.372Z" fill="white"/>
<path d="M494.919 285.478H491.87V288.528H494.919V285.478Z" fill="white"/>
<path d="M501.023 276.322H497.974V279.372H501.023V276.322Z" fill="white"/>
<path d="M501.023 282.429H497.974V285.478H501.023V282.429Z" fill="white"/>
<path d="M504.072 276.322H501.023V279.372H504.072V276.322Z" fill="white"/>
<path d="M504.072 279.372H501.023V282.422H504.072V279.372Z" fill="white"/>
<path d="M504.072 282.429H501.023V285.478H504.072V282.429Z" fill="white"/>
<path d="M504.072 285.478H501.023V288.528H504.072V285.478Z" fill="white"/>
<path d="M507.121 264.117H504.072V267.166H507.121V264.117Z" fill="white"/>
<path d="M507.121 273.272H504.072V276.322H507.121V273.272Z" fill="white"/>
<path d="M510.177 264.117H507.128V267.166H510.177V264.117Z" fill="white"/>
<path d="M510.177 270.216H507.128V273.265H510.177V270.216Z" fill="white"/>
<path d="M513.225 264.117H510.176V267.166H513.225V264.117Z" fill="white"/>
<path d="M513.225 273.272H510.176V276.322H513.225V273.272Z" fill="white"/>
<path d="M516.273 264.117H513.225V267.166H516.273V264.117Z" fill="white"/>
<path d="M516.273 270.216H513.225V273.265H516.273V270.216Z" fill="white"/>
<path d="M519.329 264.117H516.28V267.166H519.329V264.117Z" fill="white"/>
<path d="M519.329 273.272H516.28V276.322H519.329V273.272Z" fill="white"/>
<path d="M522.379 264.117H519.33V267.166H522.379V264.117Z" fill="white"/>
<path d="M522.379 270.216H519.33V273.265H522.379V270.216Z" fill="white"/>
<path d="M525.428 264.117H522.379V267.166H525.428V264.117Z" fill="white"/>
<path d="M525.428 273.272H522.379V276.322H525.428V273.272Z" fill="white"/>
<path d="M528.476 264.117H525.427V267.166H528.476V264.117Z" fill="white"/>
<path d="M528.476 270.216H525.427V273.265H528.476V270.216Z" fill="white"/>
<path d="M507.121 285.478H504.072V288.528H507.121V285.478Z" fill="white"/>
<path d="M510.177 279.372H507.128V282.422H510.177V279.372Z" fill="white"/>
<path d="M510.177 285.478H507.128V288.528H510.177V285.478Z" fill="white"/>
<path d="M513.225 285.478H510.176V288.528H513.225V285.478Z" fill="white"/>
<path d="M516.273 279.372H513.225V282.422H516.273V279.372Z" fill="white"/>
<path d="M516.273 285.478H513.225V288.528H516.273V285.478Z" fill="white"/>
<path d="M519.329 285.478H516.28V288.528H519.329V285.478Z" fill="white"/>
<path d="M522.379 279.372H519.33V282.422H522.379V279.372Z" fill="white"/>
<path d="M522.379 285.478H519.33V288.528H522.379V285.478Z" fill="white"/>
<path d="M525.428 285.478H522.379V288.528H525.428V285.478Z" fill="white"/>
<path d="M528.476 279.372H525.427V282.422H528.476V279.372Z" fill="white"/>
<path d="M528.476 285.478H525.427V288.528H528.476V285.478Z" fill="white"/>
<path d="M531.531 264.117H528.482V267.166H531.531V264.117Z" fill="white"/>
<path d="M534.581 264.117H531.532V267.166H534.581V264.117Z" fill="white"/>
<path d="M537.63 264.117H534.581V267.166H537.63V264.117Z" fill="white"/>
<path d="M537.63 270.216H534.581V273.265H537.63V270.216Z" fill="white"/>
<path d="M540.686 264.117H537.637V267.166H540.686V264.117Z" fill="white"/>
<path d="M540.686 270.216H537.637V273.265H540.686V270.216Z" fill="white"/>
<path d="M543.733 264.117H540.685V267.166H543.733V264.117Z" fill="white"/>
<path d="M543.733 270.216H540.685V273.265H543.733V270.216Z" fill="white"/>
<path d="M546.783 264.117H543.734V267.166H546.783V264.117Z" fill="white"/>
<path d="M546.783 270.216H543.734V273.265H546.783V270.216Z" fill="white"/>
<path d="M549.839 264.117H546.79V267.166H549.839V264.117Z" fill="white"/>
<path d="M549.839 270.216H546.79V273.265H549.839V270.216Z" fill="white"/>
<path d="M549.839 273.272H546.79V276.322H549.839V273.272Z" fill="white"/>
<path d="M552.888 264.117H549.839V267.166H552.888V264.117Z" fill="white"/>
<path d="M531.531 285.478H528.482V288.528H531.531V285.478Z" fill="white"/>
<path d="M534.581 285.478H531.532V288.528H534.581V285.478Z" fill="white"/>
<path d="M540.686 276.322H537.637V279.372H540.686V276.322Z" fill="white"/>
<path d="M540.686 279.372H537.637V282.422H540.686V279.372Z" fill="white"/>
<path d="M540.686 282.429H537.637V285.478H540.686V282.429Z" fill="white"/>
<path d="M540.686 285.478H537.637V288.528H540.686V285.478Z" fill="white"/>
<path d="M543.733 276.322H540.685V279.372H543.733V276.322Z" fill="white"/>
<path d="M543.733 279.372H540.685V282.422H543.733V279.372Z" fill="white"/>
<path d="M543.733 282.429H540.685V285.478H543.733V282.429Z" fill="white"/>
<path d="M543.733 285.478H540.685V288.528H543.733V285.478Z" fill="white"/>
<path d="M549.839 276.322H546.79V279.372H549.839V276.322Z" fill="white"/>
<path d="M549.839 279.372H546.79V282.422H549.839V279.372Z" fill="white"/>
<path d="M549.839 282.429H546.79V285.478H549.839V282.429Z" fill="white"/>
<path d="M549.839 285.478H546.79V288.528H549.839V285.478Z" fill="white"/>
<path d="M552.888 285.478H549.839V288.528H552.888V285.478Z" fill="white"/>
<path d="M555.935 264.117H552.887V267.166H555.935V264.117Z" fill="white"/>
<path d="M558.992 264.117H555.943V267.166H558.992V264.117Z" fill="white"/>
<path d="M558.992 270.216H555.943V273.265H558.992V270.216Z" fill="white"/>
<path d="M562.04 264.117H558.991V267.166H562.04V264.117Z" fill="white"/>
<path d="M562.04 270.216H558.991V273.265H562.04V270.216Z" fill="white"/>
<path d="M565.09 264.117H562.041V267.166H565.09V264.117Z" fill="white"/>
<path d="M565.09 270.216H562.041V273.265H565.09V270.216Z" fill="white"/>
<path d="M568.145 264.117H565.097V267.166H568.145V264.117Z" fill="white"/>
<path d="M568.145 270.216H565.097V273.265H568.145V270.216Z" fill="white"/>
<path d="M571.194 264.117H568.146V267.166H571.194V264.117Z" fill="white"/>
<path d="M571.194 270.216H568.146V273.265H571.194V270.216Z" fill="white"/>
<path d="M574.242 264.117H571.193V267.166H574.242V264.117Z" fill="white"/>
<path d="M574.242 270.216H571.193V273.265H574.242V270.216Z" fill="white"/>
<path d="M577.298 264.117H574.249V267.166H577.298V264.117Z" fill="white"/>
<path d="M555.935 285.478H552.887V288.528H555.935V285.478Z" fill="white"/>
<path d="M558.992 279.372H549.839V282.422H558.992V279.372Z" fill="white"/>
<path d="M558.992 285.478H555.943V288.528H558.992V285.478Z" fill="white"/>
<path d="M565.09 276.322H562.041V279.372H565.09V276.322Z" fill="white"/>
<path d="M565.09 279.372H562.041V282.422H565.09V279.372Z" fill="white"/>
<path d="M565.09 282.429H562.041V285.478H565.09V282.429Z" fill="white"/>
<path d="M565.09 285.478H562.041V288.528H565.09V285.478Z" fill="white"/>
<path d="M568.145 276.322H565.097V279.372H568.145V276.322Z" fill="white"/>
<path d="M568.145 279.372H565.097V282.422H568.145V279.372Z" fill="white"/>
<path d="M568.145 282.429H565.097V285.478H568.145V282.429Z" fill="white"/>
<path d="M568.145 285.478H565.097V288.528H568.145V285.478Z" fill="white"/>
<path d="M574.242 279.372H571.193V282.422H574.242V279.372Z" fill="white"/>
<path d="M574.242 285.478H571.193V288.528H574.242V285.478Z" fill="white"/>
<path d="M577.298 285.478H574.249V288.528H577.298V285.478Z" fill="white"/>
<path d="M580.348 264.117H577.299V267.166H580.348V264.117Z" fill="white"/>
<path d="M580.348 270.216H577.299V273.265H580.348V270.216Z" fill="white"/>
<path d="M580.348 273.272H577.299V276.322H580.348V273.272Z" fill="white"/>
<path d="M583.396 264.117H580.348V267.166H583.396V264.117Z" fill="white"/>
<path d="M583.396 270.216H580.348V273.265H583.396V270.216Z" fill="white"/>
<path d="M586.452 264.117H583.403V267.166H586.452V264.117Z" fill="white"/>
<path d="M586.452 270.216H583.403V273.265H586.452V270.216Z" fill="white"/>
<path d="M589.502 264.117H586.453V267.166H589.502V264.117Z" fill="white"/>
<path d="M589.502 270.216H586.453V273.265H589.502V270.216Z" fill="white"/>
<path d="M592.55 264.117H589.501V267.166H592.55V264.117Z" fill="white"/>
<path d="M592.55 270.216H589.501V273.265H592.55V270.216Z" fill="white"/>
<path d="M595.598 264.117H592.55V267.166H595.598V264.117Z" fill="white"/>
<path d="M595.598 270.216H592.55V273.265H595.598V270.216Z" fill="white"/>
<path d="M598.654 264.117H595.605V267.166H598.654V264.117Z" fill="white"/>
<path d="M598.654 270.216H595.605V273.265H598.654V270.216Z" fill="white"/>
<path d="M601.703 264.117H598.654V267.166H601.703V264.117Z" fill="white"/>
<path d="M601.703 270.216H598.654V273.265H601.703V270.216Z" fill="white"/>
<path d="M601.703 273.272H598.654V276.322H601.703V273.272Z" fill="white"/>
<path d="M580.348 276.322H577.299V279.372H580.348V276.322Z" fill="white"/>
<path d="M580.348 279.372H577.299V282.422H580.348V279.372Z" fill="white"/>
<path d="M580.348 282.429H577.299V285.478H580.348V282.429Z" fill="white"/>
<path d="M580.348 285.478H577.299V288.528H580.348V285.478Z" fill="white"/>
<path d="M583.396 276.322H580.348V279.372H583.396V276.322Z" fill="white"/>
<path d="M583.396 282.429H580.348V285.478H583.396V282.429Z" fill="white"/>
<path d="M589.502 276.322H586.453V279.372H589.502V276.322Z" fill="white"/>
<path d="M589.502 282.429H586.453V285.478H589.502V282.429Z" fill="white"/>
<path d="M592.55 279.372H589.501V282.422H592.55V279.372Z" fill="white"/>
<path d="M598.654 276.322H595.605V279.372H598.654V276.322Z" fill="white"/>
<path d="M598.654 282.429H595.605V285.478H598.654V282.429Z" fill="white"/>
<path d="M601.703 276.322H598.654V279.372H601.703V276.322Z" fill="white"/>
<path d="M601.703 279.372H598.654V282.422H601.703V279.372Z" fill="white"/>
<path d="M601.703 282.429H598.654V285.478H601.703V282.429Z" fill="white"/>
<path d="M601.703 285.478H598.654V288.528H601.703V285.478Z" fill="white"/>
<path d="M604.751 264.117H601.702V267.166H604.751V264.117Z" fill="white"/>
<path d="M604.751 273.272H601.702V276.322H604.751V273.272Z" fill="white"/>
<path d="M607.807 264.117H604.758V267.166H607.807V264.117Z" fill="white"/>
<path d="M607.807 270.216H604.758V273.265H607.807V270.216Z" fill="white"/>
<path d="M610.856 264.117H607.807V267.166H610.856V264.117Z" fill="white"/>
<path d="M610.856 273.272H607.807V276.322H610.856V273.272Z" fill="white"/>
<path d="M613.905 264.117H610.857V267.166H613.905V264.117Z" fill="white"/>
<path d="M613.905 270.216H610.857V273.265H613.905V270.216Z" fill="white"/>
<path d="M616.961 264.117H613.912V267.166H616.961V264.117Z" fill="white"/>
<path d="M616.961 273.272H613.912V276.322H616.961V273.272Z" fill="white"/>
<path d="M604.751 285.478H601.702V288.528H604.751V285.478Z" fill="white"/>
<path d="M607.807 279.372H604.758V282.422H607.807V279.372Z" fill="white"/>
<path d="M607.807 285.478H604.758V288.528H607.807V285.478Z" fill="white"/>
<path d="M610.856 285.478H607.807V288.528H610.856V285.478Z" fill="white"/>
<path d="M613.905 279.372H610.857V282.422H613.905V279.372Z" fill="white"/>
<path d="M613.905 285.478H610.857V288.528H613.905V285.478Z" fill="white"/>
<path d="M616.961 285.478H613.912V288.528H616.961V285.478Z" fill="white"/>
<path d="M321.012 285.478H317.963V288.528H321.012V285.478Z" fill="white"/>
<path d="M321.012 279.372H317.963V282.422H321.012V279.372Z" fill="white"/>
<path d="M324.06 285.478H321.012V288.528H324.06V285.478Z" fill="white"/>
<path d="M324.06 276.322H321.012V279.372H324.06V276.322Z" fill="white"/>
<path d="M327.108 285.478H324.06V288.528H327.108V285.478Z" fill="white"/>
<path d="M327.108 279.372H324.06V282.422H327.108V279.372Z" fill="white"/>
<path d="M330.164 285.478H327.115V288.528H330.164V285.478Z" fill="white"/>
<path d="M330.164 276.322H327.115V279.372H330.164V276.322Z" fill="white"/>
<path d="M333.214 285.478H330.165V288.528H333.214V285.478Z" fill="white"/>
<path d="M333.214 279.372H330.165V282.422H333.214V279.372Z" fill="white"/>
<path d="M321.012 270.216H317.963V273.265H321.012V270.216Z" fill="white"/>
<path d="M321.012 264.117H317.963V267.166H321.012V264.117Z" fill="white"/>
<path d="M324.06 264.117H321.012V267.166H324.06V264.117Z" fill="white"/>
<path d="M327.108 270.216H324.06V273.265H327.108V270.216Z" fill="white"/>
<path d="M327.108 264.117H324.06V267.166H327.108V264.117Z" fill="white"/>
<path d="M330.164 264.117H327.115V267.166H330.164V264.117Z" fill="white"/>
<path d="M333.214 270.216H330.165V273.265H333.214V270.216Z" fill="white"/>
<path d="M333.214 264.117H330.165V267.166H333.214V264.117Z" fill="white"/>
<path d="M336.263 285.478H333.214V288.528H336.263V285.478Z" fill="white"/>
<path d="M339.318 285.478H336.27V288.528H339.318V285.478Z" fill="white"/>
<path d="M339.318 279.372H336.27V282.422H339.318V279.372Z" fill="white"/>
<path d="M339.318 276.322H336.27V279.372H339.318V276.322Z" fill="white"/>
<path d="M342.366 285.478H339.317V288.528H342.366V285.478Z" fill="white"/>
<path d="M342.366 279.372H339.317V282.422H342.366V279.372Z" fill="white"/>
<path d="M345.416 285.478H342.367V288.528H345.416V285.478Z" fill="white"/>
<path d="M345.416 279.372H342.367V282.422H345.416V279.372Z" fill="white"/>
<path d="M348.471 285.478H345.423V288.528H348.471V285.478Z" fill="white"/>
<path d="M348.471 279.372H345.423V282.422H348.471V279.372Z" fill="white"/>
<path d="M351.521 285.478H348.472V288.528H351.521V285.478Z" fill="white"/>
<path d="M351.521 279.372H348.472V282.422H351.521V279.372Z" fill="white"/>
<path d="M354.57 285.478H351.521V288.528H354.57V285.478Z" fill="white"/>
<path d="M354.57 279.372H351.521V282.422H354.57V279.372Z" fill="white"/>
<path d="M354.57 276.322H351.521V279.372H354.57V276.322Z" fill="white"/>
<path d="M357.626 285.478H354.577V288.528H357.626V285.478Z" fill="white"/>
<path d="M336.263 264.117H333.214V267.166H336.263V264.117Z" fill="white"/>
<path d="M339.318 273.272H336.27V276.322H339.318V273.272Z" fill="white"/>
<path d="M339.318 270.216H336.27V273.265H339.318V270.216Z" fill="white"/>
<path d="M339.318 267.167H336.27V270.216H339.318V267.167Z" fill="white"/>
<path d="M339.318 264.117H336.27V267.166H339.318V264.117Z" fill="white"/>
<path d="M345.416 273.272H342.367V276.322H345.416V273.272Z" fill="white"/>
<path d="M345.416 270.216H342.367V273.265H345.416V270.216Z" fill="white"/>
<path d="M345.416 267.167H342.367V270.216H345.416V267.167Z" fill="white"/>
<path d="M345.416 264.117H342.367V267.166H345.416V264.117Z" fill="white"/>
<path d="M348.471 273.272H345.423V276.322H348.471V273.272Z" fill="white"/>
<path d="M348.471 270.216H345.423V273.265H348.471V270.216Z" fill="white"/>
<path d="M348.471 267.167H345.423V270.216H348.471V267.167Z" fill="white"/>
<path d="M348.471 264.117H345.423V267.166H348.471V264.117Z" fill="white"/>
<path d="M354.57 273.272H351.521V276.322H354.57V273.272Z" fill="white"/>
<path d="M354.57 270.216H351.521V273.265H354.57V270.216Z" fill="white"/>
<path d="M354.57 267.167H351.521V270.216H354.57V267.167Z" fill="white"/>
<path d="M354.57 264.117H351.521V267.166H354.57V264.117Z" fill="white"/>
<path d="M357.626 264.117H354.577V267.166H357.626V264.117Z" fill="white"/>
<path d="M360.674 285.478H357.625V288.528H360.674V285.478Z" fill="white"/>
<path d="M363.723 285.478H360.674V288.528H363.723V285.478Z" fill="white"/>
<path d="M363.723 279.372H360.674V282.422H363.723V279.372Z" fill="white"/>
<path d="M366.778 285.478H363.729V288.528H366.778V285.478Z" fill="white"/>
<path d="M366.778 279.372H363.729V282.422H366.778V279.372Z" fill="white"/>
<path d="M369.827 285.478H366.778V288.528H369.827V285.478Z" fill="white"/>
<path d="M369.827 279.372H366.778V282.422H369.827V279.372Z" fill="white"/>
<path d="M372.875 285.478H369.826V288.528H372.875V285.478Z" fill="white"/>
<path d="M372.875 279.372H369.826V282.422H372.875V279.372Z" fill="white"/>
<path d="M375.932 285.478H372.884V288.528H375.932V285.478Z" fill="white"/>
<path d="M375.932 279.372H372.884V282.422H375.932V279.372Z" fill="white"/>
<path d="M378.98 285.478H375.932V288.528H378.98V285.478Z" fill="white"/>
<path d="M378.98 279.372H375.932V282.422H378.98V279.372Z" fill="white"/>
<path d="M382.029 279.372H378.98V282.422H382.029V279.372Z" fill="white"/>
<path d="M382.029 285.478H378.98V288.528H382.029V285.478Z" fill="white"/>
<path d="M360.674 264.117H357.625V267.166H360.674V264.117Z" fill="white"/>
<path d="M363.723 270.216H360.674V273.265H363.723V270.216Z" fill="white"/>
<path d="M363.723 264.117H360.674V267.166H363.723V264.117Z" fill="white"/>
<path d="M369.827 273.272H366.778V276.322H369.827V273.272Z" fill="white"/>
<path d="M369.827 270.216H366.778V273.265H369.827V270.216Z" fill="white"/>
<path d="M369.827 267.167H366.778V270.216H369.827V267.167Z" fill="white"/>
<path d="M369.827 264.117H366.778V267.166H369.827V264.117Z" fill="white"/>
<path d="M372.875 273.272H369.826V276.322H372.875V273.272Z" fill="white"/>
<path d="M372.875 270.216H369.826V273.265H372.875V270.216Z" fill="white"/>
<path d="M372.875 267.167H369.826V270.216H372.875V267.167Z" fill="white"/>
<path d="M372.875 264.117H369.826V267.166H372.875V264.117Z" fill="white"/>
<path d="M378.98 270.216H375.932V273.265H378.98V270.216Z" fill="white"/>
<path d="M378.98 264.117H375.932V267.166H378.98V264.117Z" fill="white"/>
<path d="M382.029 264.117H378.98V267.166H382.029V264.117Z" fill="white"/>
<path d="M385.085 285.478H382.036V288.528H385.085V285.478Z" fill="white"/>
<path d="M385.085 279.372H382.036V282.422H385.085V279.372Z" fill="white"/>
<path d="M388.135 285.478H385.086V288.528H388.135V285.478Z" fill="white"/>
<path d="M388.135 279.372H385.086V282.422H388.135V279.372Z" fill="white"/>
<path d="M391.182 285.478H388.134V288.528H391.182V285.478Z" fill="white"/>
<path d="M391.182 279.372H388.134V282.422H391.182V279.372Z" fill="white"/>
<path d="M394.231 285.478H391.183V288.528H394.231V285.478Z" fill="white"/>
<path d="M394.231 279.372H391.183V282.422H394.231V279.372Z" fill="white"/>
<path d="M397.287 285.478H394.239V288.528H397.287V285.478Z" fill="white"/>
<path d="M397.287 279.372H394.239V282.422H397.287V279.372Z" fill="white"/>
<path d="M400.337 285.478H397.288V288.528H400.337V285.478Z" fill="white"/>
<path d="M400.337 279.372H397.288V282.422H400.337V279.372Z" fill="white"/>
<path d="M403.385 285.478H400.336V288.528H403.385V285.478Z" fill="white"/>
<path d="M403.385 279.372H400.336V282.422H403.385V279.372Z" fill="white"/>
<path d="M406.44 285.478H403.392V288.528H406.44V285.478Z" fill="white"/>
<path d="M406.44 279.372H403.392V282.422H406.44V279.372Z" fill="white"/>
<path d="M406.44 276.322H403.392V279.372H406.44V276.322Z" fill="white"/>
<path d="M385.085 273.272H382.036V276.322H385.085V273.272Z" fill="white"/>
<path d="M385.085 267.167H382.036V270.216H385.085V267.167Z" fill="white"/>
<path d="M385.085 264.117H382.036V267.166H385.085V264.117Z" fill="white"/>
<path d="M388.135 273.272H385.086V276.322H388.135V273.272Z" fill="white"/>
<path d="M388.135 267.167H385.086V270.216H388.135V267.167Z" fill="white"/>
<path d="M394.231 273.272H391.183V276.322H394.231V273.272Z" fill="white"/>
<path d="M394.231 267.167H391.183V270.216H394.231V267.167Z" fill="white"/>
<path d="M397.287 270.216H394.239V273.265H397.287V270.216Z" fill="white"/>
<path d="M397.287 264.117H394.239V267.166H397.287V264.117Z" fill="white"/>
<path d="M403.385 273.272H400.336V276.322H403.385V273.272Z" fill="white"/>
<path d="M403.385 267.167H400.336V270.216H403.385V267.167Z" fill="white"/>
<path d="M406.44 273.272H403.392V276.322H406.44V273.272Z" fill="white"/>
<path d="M406.44 270.216H403.392V273.265H406.44V270.216Z" fill="white"/>
<path d="M406.44 267.167H403.392V270.216H406.44V267.167Z" fill="white"/>
<path d="M406.44 264.117H403.392V267.166H406.44V264.117Z" fill="white"/>
<path d="M409.489 285.478H406.44V288.528H409.489V285.478Z" fill="white"/>
<path d="M409.489 276.322H406.44V279.372H409.489V276.322Z" fill="white"/>
<path d="M412.538 285.478H409.489V288.528H412.538V285.478Z" fill="white"/>
<path d="M412.538 279.372H409.489V282.422H412.538V279.372Z" fill="white"/>
<path d="M415.594 285.478H412.545V288.528H415.594V285.478Z" fill="white"/>
<path d="M415.594 276.322H412.545V279.372H415.594V276.322Z" fill="white"/>
<path d="M418.643 285.478H415.595V288.528H418.643V285.478Z" fill="white"/>
<path d="M418.643 279.372H415.595V282.422H418.643V279.372Z" fill="white"/>
<path d="M421.691 285.478H418.642V288.528H421.691V285.478Z" fill="white"/>
<path d="M421.691 276.322H418.642V279.372H421.691V276.322Z" fill="white"/>
<path d="M424.747 285.478H421.698V288.528H424.747V285.478Z" fill="white"/>
<path d="M424.747 279.372H421.698V282.422H424.747V279.372Z" fill="white"/>
<path d="M427.796 285.478H424.747V288.528H427.796V285.478Z" fill="white"/>
<path d="M427.796 276.322H424.747V279.372H427.796V276.322Z" fill="white"/>
<path d="M430.846 285.478H427.797V288.528H430.846V285.478Z" fill="white"/>
<path d="M430.846 279.372H427.797V282.422H430.846V279.372Z" fill="white"/>
<path d="M409.489 264.117H406.44V267.166H409.489V264.117Z" fill="white"/>
<path d="M433.901 270.216H409.489V273.265H433.901V270.216Z" fill="white"/>
<path d="M412.538 264.117H409.489V267.166H412.538V264.117Z" fill="white"/>
<path d="M415.594 264.117H412.545V267.166H415.594V264.117Z" fill="white"/>
<path d="M418.643 264.117H415.595V267.166H418.643V264.117Z" fill="white"/>
<path d="M421.691 264.117H418.642V267.166H421.691V264.117Z" fill="white"/>
<path d="M424.747 264.117H421.698V267.166H424.747V264.117Z" fill="white"/>
<path d="M427.796 264.117H424.747V267.166H427.796V264.117Z" fill="white"/>
<path d="M430.846 264.117H427.797V267.166H430.846V264.117Z" fill="white"/>
<path d="M253.96 264.117H250.911V267.166H253.96V264.117Z" fill="white"/>
<path d="M253.96 270.216H250.911V273.265H253.96V270.216Z" fill="white"/>
<path d="M250.904 264.117H247.855V267.166H250.904V264.117Z" fill="white"/>
<path d="M250.912 273.272H241.759V276.322H250.912V273.272Z" fill="white"/>
<path d="M247.855 264.117H244.807V267.166H247.855V264.117Z" fill="white"/>
<path d="M244.808 264.117H241.759V267.166H244.808V264.117Z" fill="white"/>
<path d="M241.752 264.117H238.703V267.166H241.752V264.117Z" fill="white"/>
<path d="M241.752 270.216H238.703V273.265H241.752V270.216Z" fill="white"/>
<path d="M238.702 264.117H235.653V267.166H238.702V264.117Z" fill="white"/>
<path d="M238.702 273.272H235.653V276.322H238.702V273.272Z" fill="white"/>
<path d="M235.653 264.117H232.604V267.166H235.653V264.117Z" fill="white"/>
<path d="M235.653 270.216H232.604V273.265H235.653V270.216Z" fill="white"/>
<path d="M253.96 279.372H250.911V282.422H253.96V279.372Z" fill="white"/>
<path d="M253.96 285.478H250.911V288.528H253.96V285.478Z" fill="white"/>
<path d="M250.904 285.478H247.855V288.528H250.904V285.478Z" fill="white"/>
<path d="M247.855 276.322H244.807V282.429H247.855V276.322Z" fill="white"/>
<path d="M247.855 285.478H244.807V288.528H247.855V285.478Z" fill="white"/>
<path d="M244.808 285.478H241.759V288.528H244.808V285.478Z" fill="white"/>
<path d="M241.752 279.372H238.703V282.422H241.752V279.372Z" fill="white"/>
<path d="M241.752 285.478H238.703V288.528H241.752V285.478Z" fill="white"/>
<path d="M238.702 285.478H235.653V288.528H238.702V285.478Z" fill="white"/>
<path d="M235.653 279.372H232.604V282.422H235.653V279.372Z" fill="white"/>
<path d="M235.653 285.478H232.604V288.528H235.653V285.478Z" fill="white"/>
<path d="M232.598 264.117H229.549V267.166H232.598V264.117Z" fill="white"/>
<path d="M229.55 264.117H226.501V267.166H229.55V264.117Z" fill="white"/>
<path d="M229.55 270.216H226.501V273.265H229.55V270.216Z" fill="white"/>
<path d="M229.55 273.272H226.501V276.322H229.55V273.272Z" fill="white"/>
<path d="M226.5 264.117H223.451V267.166H226.5V264.117Z" fill="white"/>
<path d="M226.5 270.216H223.451V273.265H226.5V270.216Z" fill="white"/>
<path d="M223.444 264.117H220.396V267.166H223.444V264.117Z" fill="white"/>
<path d="M223.444 270.216H220.396V273.265H223.444V270.216Z" fill="white"/>
<path d="M220.395 264.117H217.347V267.166H220.395V264.117Z" fill="white"/>
<path d="M220.395 270.216H217.347V273.265H220.395V270.216Z" fill="white"/>
<path d="M217.347 264.117H214.299V267.166H217.347V264.117Z" fill="white"/>
<path d="M217.347 270.216H214.299V273.265H217.347V270.216Z" fill="white"/>
<path d="M214.298 264.117H211.249V267.166H214.298V264.117Z" fill="white"/>
<path d="M214.298 270.216H211.249V273.265H214.298V270.216Z" fill="white"/>
<path d="M214.298 273.272H211.249V276.322H214.298V273.272Z" fill="white"/>
<path d="M211.242 264.117H208.193V267.166H211.242V264.117Z" fill="white"/>
<path d="M232.598 285.478H229.549V288.528H232.598V285.478Z" fill="white"/>
<path d="M229.55 276.322H226.501V279.372H229.55V276.322Z" fill="white"/>
<path d="M229.55 279.372H226.501V282.422H229.55V279.372Z" fill="white"/>
<path d="M229.55 282.429H226.501V285.478H229.55V282.429Z" fill="white"/>
<path d="M229.55 285.478H226.501V288.528H229.55V285.478Z" fill="white"/>
<path d="M223.444 279.372H220.396V282.422H223.444V279.372Z" fill="white"/>
<path d="M223.444 285.478H220.396V288.528H223.444V285.478Z" fill="white"/>
<path d="M220.395 276.322H217.347V279.372H220.395V276.322Z" fill="white"/>
<path d="M220.395 282.429H217.347V285.478H220.395V282.429Z" fill="white"/>
<path d="M214.298 276.322H211.249V279.372H214.298V276.322Z" fill="white"/>
<path d="M214.298 279.372H211.249V282.422H214.298V279.372Z" fill="white"/>
<path d="M214.298 282.429H211.249V285.478H214.298V282.429Z" fill="white"/>
<path d="M214.298 285.478H211.249V288.528H214.298V285.478Z" fill="white"/>
<path d="M211.242 285.478H208.193V288.528H211.242V285.478Z" fill="white"/>
<path d="M208.193 264.117H205.145V267.166H208.193V264.117Z" fill="white"/>
<path d="M205.144 264.117H202.096V267.166H205.144V264.117Z" fill="white"/>
<path d="M205.144 270.216H202.096V273.265H205.144V270.216Z" fill="white"/>
<path d="M202.089 264.117H199.04V267.166H202.089V264.117Z" fill="white"/>
<path d="M202.089 270.216H199.04V273.265H202.089V270.216Z" fill="white"/>
<path d="M199.041 264.117H195.992V267.166H199.041V264.117Z" fill="white"/>
<path d="M199.041 270.216H195.992V273.265H199.041V270.216Z" fill="white"/>
<path d="M195.991 264.117H192.943V267.166H195.991V264.117Z" fill="white"/>
<path d="M195.991 270.216H192.943V273.265H195.991V270.216Z" fill="white"/>
<path d="M192.936 264.117H189.887V267.166H192.936V264.117Z" fill="white"/>
<path d="M192.936 270.216H189.887V273.265H192.936V270.216Z" fill="white"/>
<path d="M189.887 264.117H186.838V267.166H189.887V264.117Z" fill="white"/>
<path d="M189.887 270.216H186.838V273.265H189.887V270.216Z" fill="white"/>
<path d="M186.839 264.117H183.79V267.166H186.839V264.117Z" fill="white"/>
<path d="M208.193 285.478H205.145V288.528H208.193V285.478Z" fill="white"/>
<path d="M211.782 279.372H202.096V282.422H211.782V279.372Z" fill="white"/>
<path d="M205.145 285.478H199.04V288.528H205.145V285.478Z" fill="white"/>
<path d="M199.041 276.322H195.992V279.372H199.041V276.322Z" fill="white"/>
<path d="M199.041 279.372H195.992V282.422H199.041V279.372Z" fill="white"/>
<path d="M199.041 282.429H195.992V285.478H199.041V282.429Z" fill="white"/>
<path d="M199.041 285.478H195.992V288.528H199.041V285.478Z" fill="white"/>
<path d="M195.991 273.272H192.943V279.379H195.991V273.272Z" fill="white"/>
<path d="M195.991 279.372H192.943V282.422H195.991V279.372Z" fill="white"/>
<path d="M195.991 282.429H192.943V285.478H195.991V282.429Z" fill="white"/>
<path d="M195.991 285.478H192.943V288.528H195.991V285.478Z" fill="white"/>
<path d="M189.887 279.372H186.838V282.422H189.887V279.372Z" fill="white"/>
<path d="M189.887 285.478H186.838V288.528H189.887V285.478Z" fill="white"/>
<path d="M186.839 285.478H183.79V288.528H186.839V285.478Z" fill="white"/>
<path d="M183.781 264.117H180.732V267.166H183.781V264.117Z" fill="white"/>
<path d="M183.781 270.216H180.732V273.265H183.781V270.216Z" fill="white"/>
<path d="M183.781 273.272H180.732V276.322H183.781V273.272Z" fill="white"/>
<path d="M180.733 264.117H177.685V267.166H180.733V264.117Z" fill="white"/>
<path d="M180.733 270.216H177.685V273.265H180.733V270.216Z" fill="white"/>
<path d="M177.684 264.117H174.636V267.166H177.684V264.117Z" fill="white"/>
<path d="M177.684 270.216H174.636V273.265H177.684V270.216Z" fill="white"/>
<path d="M174.629 264.117H171.58V267.166H174.629V264.117Z" fill="white"/>
<path d="M174.629 270.216H171.58V273.265H174.629V270.216Z" fill="white"/>
<path d="M171.579 264.117H168.53V267.166H171.579V264.117Z" fill="white"/>
<path d="M171.579 270.216H168.53V273.265H171.579V270.216Z" fill="white"/>
<path d="M168.531 264.117H165.482V267.166H168.531V264.117Z" fill="white"/>
<path d="M168.531 270.216H165.482V273.265H168.531V270.216Z" fill="white"/>
<path d="M165.475 264.117H162.427V267.166H165.475V264.117Z" fill="white"/>
<path d="M165.475 270.216H162.427V273.265H165.475V270.216Z" fill="white"/>
<path d="M162.427 264.117H159.378V267.166H162.427V264.117Z" fill="white"/>
<path d="M162.427 270.216H159.378V273.265H162.427V270.216Z" fill="white"/>
<path d="M162.427 273.272H159.378V276.322H162.427V273.272Z" fill="white"/>
<path d="M183.781 276.322H180.732V279.372H183.781V276.322Z" fill="white"/>
<path d="M183.781 279.372H180.732V282.422H183.781V279.372Z" fill="white"/>
<path d="M183.781 282.429H180.732V285.478H183.781V282.429Z" fill="white"/>
<path d="M183.781 285.478H180.732V288.528H183.781V285.478Z" fill="white"/>
<path d="M180.733 276.322H177.685V279.372H180.733V276.322Z" fill="white"/>
<path d="M180.733 282.429H177.685V285.478H180.733V282.429Z" fill="white"/>
<path d="M174.629 276.322H171.58V279.372H174.629V276.322Z" fill="white"/>
<path d="M174.629 282.429H171.58V285.478H174.629V282.429Z" fill="white"/>
<path d="M171.579 279.372H168.53V282.422H171.579V279.372Z" fill="white"/>
<path d="M171.579 285.478H168.53V288.528H171.579V285.478Z" fill="white"/>
<path d="M165.475 276.322H162.427V279.372H165.475V276.322Z" fill="white"/>
<path d="M165.475 282.429H162.427V285.478H165.475V282.429Z" fill="white"/>
<path d="M162.427 276.322H159.378V279.372H162.427V276.322Z" fill="white"/>
<path d="M162.427 279.372H159.378V282.422H162.427V279.372Z" fill="white"/>
<path d="M162.427 282.429H159.378V285.478H162.427V282.429Z" fill="white"/>
<path d="M162.427 285.478H159.378V288.528H162.427V285.478Z" fill="white"/>
<path d="M159.378 264.117H156.329V267.166H159.378V264.117Z" fill="white"/>
<path d="M159.378 273.272H156.329V276.322H159.378V273.272Z" fill="white"/>
<path d="M156.322 264.117H153.273V267.166H156.322V264.117Z" fill="white"/>
<path d="M156.322 270.216H153.273V273.265H156.322V270.216Z" fill="white"/>
<path d="M153.274 264.117H150.226V267.166H153.274V264.117Z" fill="white"/>
<path d="M153.274 273.272H150.226V276.322H153.274V273.272Z" fill="white"/>
<path d="M150.225 264.117H147.176V267.166H150.225V264.117Z" fill="white"/>
<path d="M150.225 270.216H147.176V273.265H150.225V270.216Z" fill="white"/>
<path d="M147.175 264.117H144.127V267.166H147.175V264.117Z" fill="white"/>
<path d="M147.175 273.272H144.127V276.322H147.175V273.272Z" fill="white"/>
<path d="M159.378 285.478H156.329V288.528H159.378V285.478Z" fill="white"/>
<path d="M156.322 279.372H153.273V282.422H156.322V279.372Z" fill="white"/>
<path d="M156.322 285.478H153.273V288.528H156.322V285.478Z" fill="white"/>
<path d="M153.274 285.478H150.226V288.528H153.274V285.478Z" fill="white"/>
<path d="M150.225 279.372H147.176V282.422H150.225V279.372Z" fill="white"/>
<path d="M150.225 285.478H147.176V288.528H150.225V285.478Z" fill="white"/>
<path d="M147.175 285.478H144.127V288.528H147.175V285.478Z" fill="white"/>
<path d="M50.1571 264.117H47.1084V267.166H50.1571V264.117Z" fill="white"/>
<path d="M50.1572 270.216H47.1085V273.265H50.1572V270.216Z" fill="white"/>
<path d="M50.1572 273.272H47.1085V276.322H50.1572V273.272Z" fill="white"/>
<path d="M64.7953 264.117H50.1643V267.166H64.7953V264.117Z" fill="white"/>
<path d="M64.7953 270.216H50.1643V273.265H64.7953V270.216Z" fill="white"/>
<path d="M67.8446 264.117H64.7959V267.166H67.8446V264.117Z" fill="white"/>
<path d="M67.8446 270.216H64.7959V273.265H67.8446V270.216Z" fill="white"/>
<path d="M70.9003 264.117H67.8516V267.166H70.9003V264.117Z" fill="white"/>
<path d="M70.9003 270.216H67.8516V273.265H70.9003V270.216Z" fill="white"/>
<path d="M73.9491 264.117H70.9004V267.166H73.9491V264.117Z" fill="white"/>
<path d="M73.9491 270.216H70.9004V273.265H73.9491V270.216Z" fill="white"/>
<path d="M76.997 264.117H73.9482V267.166H76.997V264.117Z" fill="white"/>
<path d="M76.997 270.216H73.9482V273.265H76.997V270.216Z" fill="white"/>
<path d="M76.997 273.272H73.9482V276.322H76.997V273.272Z" fill="white"/>
<path d="M80.0536 264.117H77.0049V267.166H80.0536V264.117Z" fill="white"/>
<path d="M50.1572 276.322H47.1085V279.372H50.1572V276.322Z" fill="white"/>
<path d="M50.1572 279.372H47.1085V282.422H50.1572V279.372Z" fill="white"/>
<path d="M50.1572 282.429H47.1085V285.478H50.1572V282.429Z" fill="white"/>
<path d="M50.1572 285.478H47.1085V288.528H50.1572V285.478Z" fill="white"/>
<path d="M67.8446 276.322H64.7959V279.372H67.8446V276.322Z" fill="white"/>
<path d="M67.8446 279.372H64.7959V282.422H67.8446V279.372Z" fill="white"/>
<path d="M67.8446 282.429H64.7959V285.478H67.8446V282.429Z" fill="white"/>
<path d="M67.8446 285.478H64.7959V288.528H67.8446V285.478Z" fill="white"/>
<path d="M76.997 276.322H73.9482V279.372H76.997V276.322Z" fill="white"/>
<path d="M76.997 279.372H73.9482V282.422H76.997V279.372Z" fill="white"/>
<path d="M76.997 282.429H73.9482V285.478H76.997V282.429Z" fill="white"/>
<path d="M76.997 285.478H73.9482V288.528H76.997V285.478Z" fill="white"/>
<path d="M80.0536 285.478H77.0049V288.528H80.0536V285.478Z" fill="white"/>
<path d="M83.1015 264.117H80.0527V267.166H83.1015V264.117Z" fill="white"/>
<path d="M86.151 264.117H83.1023V267.166H86.151V264.117Z" fill="white"/>
<path d="M86.151 270.216H83.1023V273.265H86.151V270.216Z" fill="white"/>
<path d="M89.199 264.117H86.1503V267.166H89.199V264.117Z" fill="white"/>
<path d="M89.199 270.216H86.1503V273.265H89.199V270.216Z" fill="white"/>
<path d="M92.256 264.117H89.2073V267.166H92.256V264.117Z" fill="white"/>
<path d="M92.256 270.216H89.2073V273.265H92.256V270.216Z" fill="white"/>
<path d="M95.3036 264.117H92.2549V267.166H95.3036V264.117Z" fill="white"/>
<path d="M95.3036 270.216H92.2549V273.265H95.3036V270.216Z" fill="white"/>
<path d="M98.3534 264.117H95.3047V267.166H98.3534V264.117Z" fill="white"/>
<path d="M98.3534 270.216H95.3047V273.265H98.3534V270.216Z" fill="white"/>
<path d="M101.409 264.117H98.3604V267.166H101.409V264.117Z" fill="white"/>
<path d="M101.409 270.216H98.3604V273.265H101.409V270.216Z" fill="white"/>
<path d="M104.458 264.117H101.409V267.166H104.458V264.117Z" fill="white"/>
<path d="M83.1015 285.478H80.0527V288.528H83.1015V285.478Z" fill="white"/>
<path d="M86.1583 279.372H77.0049V282.422H86.1583V279.372Z" fill="white"/>
<path d="M86.151 285.478H83.1023V288.528H86.151V285.478Z" fill="white"/>
<path d="M92.256 276.322H89.2073V279.372H92.256V276.322Z" fill="white"/>
<path d="M92.256 279.372H89.2073V282.422H92.256V279.372Z" fill="white"/>
<path d="M92.256 282.429H89.2073V285.478H92.256V282.429Z" fill="white"/>
<path d="M92.256 285.478H89.2073V288.528H92.256V285.478Z" fill="white"/>
<path d="M95.3036 276.322H92.2549V279.372H95.3036V276.322Z" fill="white"/>
<path d="M95.3036 279.372H92.2549V282.422H95.3036V279.372Z" fill="white"/>
<path d="M95.3036 282.429H92.2549V285.478H95.3036V282.429Z" fill="white"/>
<path d="M95.3036 285.478H92.2549V288.528H95.3036V285.478Z" fill="white"/>
<path d="M101.409 279.372H98.3604V282.422H101.409V279.372Z" fill="white"/>
<path d="M101.409 285.478H98.3604V288.528H101.409V285.478Z" fill="white"/>
<path d="M104.458 285.478H101.409V288.528H104.458V285.478Z" fill="white"/>
<path d="M107.506 264.117H104.457V267.166H107.506V264.117Z" fill="white"/>
<path d="M107.506 270.216H104.457V273.265H107.506V270.216Z" fill="white"/>
<path d="M107.506 273.272H104.457V276.322H107.506V273.272Z" fill="white"/>
<path d="M110.563 264.117H107.515V267.166H110.563V264.117Z" fill="white"/>
<path d="M110.563 270.216H107.515V273.265H110.563V270.216Z" fill="white"/>
<path d="M113.611 264.117H110.562V267.166H113.611V264.117Z" fill="white"/>
<path d="M113.611 270.216H110.562V273.265H113.611V270.216Z" fill="white"/>
<path d="M116.66 264.117H113.611V267.166H116.66V264.117Z" fill="white"/>
<path d="M116.66 270.216H113.611V273.265H116.66V270.216Z" fill="white"/>
<path d="M119.716 264.117H116.667V267.166H119.716V264.117Z" fill="white"/>
<path d="M119.716 270.216H116.667V273.265H119.716V270.216Z" fill="white"/>
<path d="M122.765 264.117H119.716V267.166H122.765V264.117Z" fill="white"/>
<path d="M122.765 270.216H119.716V273.265H122.765V270.216Z" fill="white"/>
<path d="M125.812 264.117H122.764V267.166H125.812V264.117Z" fill="white"/>
<path d="M125.812 270.216H122.764V273.265H125.812V270.216Z" fill="white"/>
<path d="M128.868 264.117H125.819V267.166H128.868V264.117Z" fill="white"/>
<path d="M128.868 270.216H125.819V273.265H128.868V270.216Z" fill="white"/>
<path d="M128.868 273.272H125.819V276.322H128.868V273.272Z" fill="white"/>
<path d="M107.506 276.322H104.457V279.372H107.506V276.322Z" fill="white"/>
<path d="M107.506 279.372H104.457V282.422H107.506V279.372Z" fill="white"/>
<path d="M107.506 282.429H104.457V285.478H107.506V282.429Z" fill="white"/>
<path d="M107.506 285.478H104.457V288.528H107.506V285.478Z" fill="white"/>
<path d="M110.563 276.322H107.515V279.372H110.563V276.322Z" fill="white"/>
<path d="M110.563 282.429H107.515V285.478H110.563V282.429Z" fill="white"/>
<path d="M116.66 276.322H113.611V279.372H116.66V276.322Z" fill="white"/>
<path d="M116.66 282.429H113.611V285.478H116.66V282.429Z" fill="white"/>
<path d="M119.716 279.372H116.667V282.422H119.716V279.372Z" fill="white"/>
<path d="M119.716 285.478H116.667V291.584H119.716V285.478Z" fill="white"/>
<path d="M125.812 276.322H122.764V279.372H125.812V276.322Z" fill="white"/>
<path d="M125.812 282.429H122.764V285.478H125.812V282.429Z" fill="white"/>
<path d="M128.868 276.322H125.819V279.372H128.868V276.322Z" fill="white"/>
<path d="M128.868 279.372H125.819V282.422H128.868V279.372Z" fill="white"/>
<path d="M128.868 282.429H125.819V285.478H128.868V282.429Z" fill="white"/>
<path d="M128.868 285.478H125.819V288.528H128.868V285.478Z" fill="white"/>
<path d="M131.918 264.117H128.869V267.166H131.918V264.117Z" fill="white"/>
<path d="M131.918 273.272H128.869V276.322H131.918V273.272Z" fill="white"/>
<path d="M134.967 264.117H131.918V267.166H134.967V264.117Z" fill="white"/>
<path d="M134.967 270.216H131.918V273.265H134.967V270.216Z" fill="white"/>
<path d="M138.022 264.117H134.974V267.166H138.022V264.117Z" fill="white"/>
<path d="M138.022 273.272H134.974V276.322H138.022V273.272Z" fill="white"/>
<path d="M141.07 264.117H138.021V267.166H141.07V264.117Z" fill="white"/>
<path d="M141.07 270.216H138.021V273.265H141.07V270.216Z" fill="white"/>
<path d="M144.12 264.117H141.071V267.166H144.12V264.117Z" fill="white"/>
<path d="M144.12 273.272H141.071V276.322H144.12V273.272Z" fill="white"/>
<path d="M131.918 285.478H128.869V288.528H131.918V285.478Z" fill="white"/>
<path d="M134.967 279.372H131.918V282.422H134.967V279.372Z" fill="white"/>
<path d="M134.967 285.478H131.918V288.528H134.967V285.478Z" fill="white"/>
<path d="M138.022 285.478H134.974V288.528H138.022V285.478Z" fill="white"/>
<path d="M141.07 279.372H138.021V282.422H141.07V279.372Z" fill="white"/>
<path d="M141.07 285.478H138.021V288.528H141.07V285.478Z" fill="white"/>
<path d="M144.12 285.478H141.071V288.528H144.12V285.478Z" fill="white"/>
<path d="M778.837 291.577H48.744V294.627H778.837V291.577Z" fill="white"/>
<path d="M81.9643 300.798H37.9056C34.237 300.798 31.2676 297.828 31.2676 294.158V264.275C31.2676 260.606 34.237 257.635 37.9056 257.635H81.9643V300.798Z" fill="white"/>
<path d="M678.734 301H889.298C892.296 301 894.732 298.57 894.732 295.564V263.965C894.732 260.966 892.303 258.529 889.298 258.529H678.734V300.993V301Z" fill="white"/>
<path d="M783.436 272.385C778.427 272.385 774.362 276.451 774.369 281.462V285.355C774.398 286.069 774.996 286.631 775.717 286.602C776.395 286.573 776.942 286.033 776.964 285.355V281.462C776.964 280.748 777.541 280.164 778.261 280.164C778.982 280.164 779.559 280.741 779.559 281.462V285.355C779.559 286.069 780.142 286.653 780.856 286.653C781.569 286.653 782.153 286.076 782.153 285.355V281.462C782.182 280.748 782.78 280.186 783.501 280.215C784.178 280.244 784.726 280.784 784.748 281.462V285.355C784.777 286.069 785.375 286.631 786.088 286.602C786.766 286.573 787.307 286.033 787.335 285.355V281.462C787.364 280.748 787.962 280.186 788.683 280.215C789.361 280.244 789.908 280.784 789.93 281.462V285.355C789.959 286.069 790.557 286.631 791.271 286.602C791.948 286.573 792.489 286.033 792.517 285.355V281.462C792.517 276.451 788.46 272.385 783.443 272.385H783.436Z" fill="black"/>
<path d="M794.932 272.703H797.188V278.629L803.213 272.703H806.211L800.842 277.886L806.514 286.653H803.516L799.119 279.552L797.188 281.419V286.66H794.932V272.703V272.703Z" fill="black"/>
<path d="M807.732 272.696H809.966V275.104C810.153 274.635 810.6 274.065 811.306 273.388C811.962 272.739 812.849 272.378 813.764 272.378C813.807 272.378 813.879 272.378 813.988 272.393C814.096 272.407 814.269 272.414 814.521 272.443V274.923C814.391 274.902 814.269 274.88 814.139 274.873C814.024 274.873 813.894 274.858 813.757 274.858C812.575 274.858 811.667 275.241 811.033 275.998C810.406 276.726 810.067 277.663 810.081 278.622V286.653H807.739V272.696H807.732Z" fill="black"/>
<path d="M823.279 278.232C823.819 278.16 824.179 277.937 824.36 277.555C824.482 277.266 824.533 276.964 824.518 276.654C824.518 275.853 824.237 275.269 823.668 274.909C823.098 274.548 822.284 274.368 821.224 274.368C819.999 274.368 819.134 274.7 818.623 275.363C818.334 275.731 818.147 276.271 818.06 277H815.869C815.913 275.277 816.475 274.08 817.549 273.402C818.673 272.717 819.97 272.364 821.282 272.393C822.925 272.393 824.259 272.703 825.282 273.33C826.306 273.95 826.81 274.923 826.803 276.25V284.281C826.796 284.49 826.846 284.692 826.954 284.865C827.055 285.009 827.264 285.089 827.589 285.089C827.697 285.089 827.812 285.089 827.942 285.067C828.071 285.045 828.208 285.031 828.36 285.009V286.74C828.086 286.819 827.805 286.891 827.524 286.934C827.264 286.963 827.005 286.977 826.738 286.97C825.931 286.97 825.34 286.682 824.979 286.112C824.756 285.716 824.619 285.276 824.576 284.822C824.021 285.507 823.322 286.062 822.522 286.451C821.606 286.92 820.59 287.158 819.559 287.143C818.262 287.143 817.203 286.754 816.388 285.968C815.574 285.204 815.127 284.137 815.156 283.019C815.156 281.729 815.559 280.727 816.374 280.013C817.181 279.299 818.241 278.867 819.545 278.708L823.271 278.24L823.279 278.232ZM818.334 284.569C818.839 284.959 819.459 285.168 820.093 285.153C820.929 285.153 821.751 284.959 822.493 284.584C823.797 283.949 824.446 282.911 824.446 281.477V279.588C824.1 279.797 823.725 279.948 823.336 280.042C822.904 280.157 822.457 280.244 822.01 280.301L820.59 280.489C819.74 280.604 819.098 280.777 818.673 281.022C817.945 281.426 817.585 282.082 817.585 282.969C817.556 283.589 817.83 284.187 818.327 284.577L818.334 284.569Z" fill="black"/>
<path d="M829.88 272.703H832.136V278.629L838.154 272.703H841.152L835.783 277.886L841.455 286.653H838.457L834.06 279.552L832.136 281.419V286.66H829.88V272.703V272.703Z" fill="black"/>
<path d="M851.034 273.085C851.885 273.489 852.613 274.109 853.146 274.887C853.629 275.63 853.946 276.473 854.083 277.346C854.227 277.987 854.299 279.011 854.299 280.417H844.144C844.187 281.837 844.519 282.976 845.138 283.834C845.758 284.692 846.717 285.125 848.021 285.125C849.239 285.125 850.205 284.721 850.933 283.906C851.337 283.431 851.632 282.875 851.798 282.27H854.105C854.011 282.875 853.809 283.452 853.499 283.986C853.196 284.555 852.814 285.082 852.353 285.529C851.625 286.235 850.717 286.718 849.722 286.934C849.103 287.079 848.461 287.151 847.82 287.143C846.155 287.165 844.555 286.48 843.423 285.247C842.219 283.986 841.621 282.212 841.621 279.941C841.621 277.67 842.227 275.882 843.438 274.484C844.648 273.085 846.227 272.386 848.18 272.386C849.175 272.386 850.155 272.624 851.034 273.078V273.085ZM851.877 278.564C851.784 277.548 851.56 276.74 851.222 276.135C850.58 275.003 849.521 274.44 848.029 274.44C847.005 274.419 846.025 274.844 845.34 275.601C844.612 276.38 844.23 277.367 844.187 278.564H851.885H851.877Z" fill="black"/>
<path d="M856.346 272.696H858.588V274.678C859.15 273.943 859.871 273.344 860.685 272.919C861.456 272.559 862.3 272.371 863.15 272.386C865.132 272.386 866.473 273.078 867.165 274.455C867.547 275.212 867.734 276.293 867.734 277.706V286.66H865.348V277.857C865.348 277.007 865.226 276.322 864.973 275.803C864.555 274.93 863.799 274.498 862.703 274.498C862.242 274.483 861.781 274.541 861.334 274.671C860.671 274.88 860.08 275.277 859.633 275.817C859.272 276.228 859.006 276.718 858.869 277.245C858.732 277.937 858.674 278.643 858.696 279.35V286.66H856.339V272.71L856.346 272.696Z" fill="black"/>
<path d="M712.704 282.997L715.197 276.083H717.497L719.99 283.077H720.221L724.675 276.083H726.931L721.396 284.901H718.614L716.077 277.907H716.588L714.03 284.901H711.255L705.72 276.083H707.925L712.379 282.997H712.689H712.704Z" fill="black"/>
<path d="M728.257 276.077H730.181V284.894H728.257V276.077Z" fill="black"/>
<path d="M743.746 276.077V278.002H738.801V284.894H736.877V278.002H731.99V276.077H743.738H743.746Z" fill="black"/>
<path d="M754.311 279.559V276.084H756.236V284.901H754.311V281.484H747.017V284.901H745.093V276.084H747.017V279.559H754.311Z" fill="black"/>
<path fill-rule="evenodd" clip-rule="evenodd" d="M51.2682 273.597L58.281 282.018L60.0324 279.912L66.3821 287.526H65.0343L60.0468 281.527V287.526H44.2338C44.8537 288.347 45.5672 289.104 46.3528 289.775H64.2631C67.2542 287.237 69.1497 283.445 69.1497 279.213C69.1497 271.564 62.9586 265.364 55.3044 265.364C47.6501 265.364 41.459 271.557 41.459 279.213C41.459 280.987 41.7905 282.674 42.4032 284.231C42.7059 285.017 43.0879 285.766 43.5275 286.48H54.562L57.6179 282.818L51.2754 275.212V284.231H42.4032L51.2682 273.59V273.597ZM60.0324 270.908C61.9423 270.908 63.4919 272.458 63.4919 274.368C63.4919 276.279 61.9423 277.829 60.0324 277.829C58.1224 277.829 56.5729 276.279 56.5729 274.368C56.5729 272.458 58.1224 270.908 60.0324 270.908ZM52.998 270.129C52.998 269.17 52.2196 268.399 51.2682 268.399C50.3168 268.399 49.5385 269.178 49.5385 270.129C49.5385 271.081 50.3168 271.859 51.2682 271.859C52.2196 271.859 52.998 271.081 52.998 270.129Z" fill="black"/>
<path d="M47.7443 290.813C49.9209 292.233 52.5228 293.062 55.312 293.062C58.1013 293.062 60.7031 292.233 62.8798 290.813H47.7443Z" fill="black"/>
</g>
<g filter="url(#filter2_d_59_219)">
<path d="M45.0046 42.7874H32.125V31H45.0046C45.5163 31 45.992 31.0937 46.4388 31.2884C46.8785 31.4758 47.2677 31.7426 47.5992 32.0742C47.9308 32.4058 48.1902 32.7951 48.3848 33.2349C48.5722 33.6747 48.6731 34.1577 48.6731 34.6696V39.125C48.6731 39.6297 48.5794 40.1055 48.3848 40.5525C48.1902 40.9995 47.9308 41.3888 47.5992 41.7204C47.2677 42.052 46.8785 42.3188 46.4388 42.5062C45.9992 42.6937 45.5163 42.7946 45.0046 42.7946V42.7874ZM46.5758 38.3824V35.4698C46.5758 35.1238 46.5181 34.7994 46.3956 34.511C46.2731 34.2226 46.1145 33.9703 45.9055 33.7612C45.6965 33.5521 45.4514 33.3863 45.1704 33.271C44.8893 33.1556 44.5793 33.0979 44.255 33.0979H34.2223V40.6895H44.2262C44.5505 40.6895 44.8604 40.6318 45.1415 40.5164C45.4226 40.4011 45.6749 40.2425 45.8911 40.0334C46.1073 39.8243 46.2803 39.5864 46.3956 39.3053C46.5181 39.0241 46.5758 38.7213 46.5758 38.3824V38.3824Z" fill="white"/>
<path d="M54.2363 31H70.143V33.0979H56.3265V35.8447H69.7466V37.9427H56.3265V40.6895H70.143V42.7874H54.2363V31Z" fill="white"/>
<path d="M90.3254 35.4554C90.3254 35.1382 90.2678 34.8426 90.1597 34.5542C90.0515 34.2731 89.893 34.0207 89.6912 33.8117C89.4894 33.6026 89.2515 33.4296 88.9704 33.2998C88.6893 33.17 88.3794 33.1052 88.0263 33.1052H79.8459C79.5216 33.1052 79.2117 33.1628 78.9234 33.2782C78.6351 33.3935 78.3828 33.5593 78.1594 33.7684C77.9431 33.9847 77.7702 34.237 77.6549 34.5326C77.5323 34.8282 77.4747 35.1598 77.4747 35.5275V38.3752C77.4747 38.7285 77.5323 39.0385 77.6549 39.3269C77.7774 39.608 77.9431 39.8532 78.1594 40.0622C78.3756 40.2713 78.6351 40.4299 78.9306 40.5381C79.2261 40.6462 79.5432 40.7039 79.8819 40.7039H88.0335C88.2929 40.7039 88.5596 40.6462 88.8335 40.5236C89.1074 40.4011 89.3524 40.2425 89.5686 40.0334C89.7849 39.8243 89.9651 39.572 90.1092 39.262C90.2533 38.9592 90.3182 38.6204 90.3182 38.2671H92.4156V38.5915C92.4156 39.1034 92.3219 39.6153 92.1345 40.1127C91.9471 40.6174 91.6876 41.0643 91.3561 41.4609C91.0245 41.8574 90.6209 42.1818 90.1524 42.4269C89.684 42.6721 89.165 42.7946 88.5957 42.7946H79.0387C78.5342 42.7946 78.0657 42.7009 77.6116 42.5062C77.1648 42.3188 76.7756 42.052 76.444 41.7204C76.1125 41.3888 75.8458 40.9995 75.6584 40.5525C75.4638 40.1055 75.3701 39.6297 75.3701 39.125V34.6696C75.3701 34.1577 75.4638 33.6819 75.6584 33.2349C75.8458 32.7951 76.1125 32.4058 76.444 32.0742C76.7756 31.7426 77.1648 31.4758 77.6116 31.2884C78.0585 31.1009 78.5342 31 79.0387 31H88.5957C89.165 31 89.684 31.1226 90.1524 31.3677C90.6209 31.6128 91.0245 31.93 91.3561 32.3265C91.6876 32.7231 91.9471 33.1628 92.1345 33.6531C92.3219 34.1433 92.4156 34.6335 92.4156 35.1238V35.4482H90.3182L90.3254 35.4554Z" fill="white"/>
<path d="M97.8193 31H113.726V33.0979H99.9095V35.8447H113.33V37.9427H99.9095V40.6895H113.726V42.7874H97.8193V31Z" fill="white"/>
<path d="M133.324 40.329V31H135.421V42.7874H132.805L121.23 33.4368V42.7874H119.133V31H121.785L133.324 40.329Z" fill="white"/>
<path d="M157.548 31V33.0979H150.196V42.7874H148.099V33.0979H140.812V31H157.541H157.548Z" fill="white"/>
<path d="M179.314 42.7874H176.748L174.406 39.3846H165.044V42.7874H162.946V31H175.848C176.359 31 176.835 31.0937 177.282 31.2812C177.721 31.4686 178.111 31.7137 178.442 32.0165C178.774 32.3193 179.04 32.6726 179.228 33.0691C179.415 33.4656 179.516 33.8766 179.516 34.2875V36.0033C179.516 36.3494 179.444 36.7099 179.293 37.0703C179.148 37.4308 178.947 37.7624 178.702 38.0724C178.457 38.3752 178.175 38.6348 177.851 38.8511C177.527 39.0673 177.202 39.2043 176.864 39.2692L179.321 42.7874H179.314ZM177.419 35.4843V34.8138C177.419 34.5831 177.368 34.3668 177.26 34.1577C177.159 33.9487 177.015 33.7684 176.835 33.6098C176.655 33.4512 176.439 33.3286 176.186 33.2349C175.934 33.1412 175.66 33.0979 175.35 33.0979H165.036V37.2866H175.35C175.718 37.2866 176.035 37.2289 176.302 37.1208C176.568 37.0127 176.777 36.8685 176.943 36.6954C177.109 36.5224 177.224 36.3278 177.303 36.1115C177.383 35.9024 177.419 35.6861 177.419 35.4843V35.4843Z" fill="white"/>
<path d="M203.113 42.7874H200.691L198.99 40.2857H188.381L186.694 42.7874H184.272L191.919 31H195.473L203.113 42.7874ZM193.109 33.0979L189.62 38.1878H197.772L194.255 33.0979H193.109V33.0979Z" fill="white"/>
<path d="M207.905 42.7514L207.891 31H209.988V40.675H223.869V42.7874L207.912 42.7514H207.905Z" fill="white"/>
<path d="M247.956 42.7874H245.535L243.834 40.2857H233.224L231.538 42.7874H229.116L236.763 31H240.316L247.956 42.7874V42.7874ZM237.952 33.0979L234.464 38.1878H242.616L239.098 33.0979H237.952V33.0979Z" fill="white"/>
<path d="M266.928 40.329V31H269.025V42.7874H266.409L254.834 33.4368V42.7874H252.736V31H255.389L266.928 40.329Z" fill="white"/>
<path d="M287.467 42.7874H274.588V31H287.467C287.979 31 288.455 31.0937 288.902 31.2884C289.341 31.4758 289.731 31.7426 290.062 32.0742C290.394 32.4058 290.653 32.7951 290.848 33.2349C291.035 33.6747 291.136 34.1577 291.136 34.6696V39.125C291.136 39.6297 291.042 40.1055 290.848 40.5525C290.653 40.9995 290.394 41.3888 290.062 41.7204C289.731 42.052 289.341 42.3188 288.902 42.5062C288.462 42.6937 287.979 42.7946 287.467 42.7946V42.7874ZM289.039 38.3824V35.4698C289.039 35.1238 288.981 34.7994 288.858 34.511C288.736 34.2226 288.577 33.9703 288.368 33.7612C288.159 33.5521 287.914 33.3863 287.633 33.271C287.352 33.1556 287.042 33.0979 286.718 33.0979H276.685V40.6895H286.689C287.013 40.6895 287.323 40.6318 287.604 40.5164C287.885 40.4011 288.138 40.2425 288.354 40.0334C288.57 39.8243 288.743 39.5864 288.858 39.3053C288.981 39.0241 289.039 38.7213 289.039 38.3824V38.3824Z" fill="white"/>
</g>
<defs>
<filter id="filter0_d_59_219" x="0.339844" y="21.9023" width="924.125" height="243.072" filterUnits="userSpaceOnUse" color-interpolation-filters="sRGB">
<feFlood flood-opacity="0" result="BackgroundImageFix"/>
<feColorMatrix in="SourceAlpha" type="matrix" values="0 0 0 0 0 0 0 0 0 0 0 0 0 0 0 0 0 0 127 0" result="hardAlpha"/>
<feOffset/>
<feGaussianBlur stdDeviation="15.5"/>
<feComposite in2="hardAlpha" operator="out"/>
<feColorMatrix type="matrix" values="0 0 0 0 0.675 0 0 0 0 0.255938 0 0 0 0 0.60795 0 0 0 0.8 0"/>
<feBlend mode="normal" in2="BackgroundImageFix" result="effect1_dropShadow_59_219"/>
<feBlend mode="normal" in="SourceGraphic" in2="effect1_dropShadow_59_219" result="shape"/>
</filter>
<filter id="filter1_d_59_219" x="0.267578" y="226.635" width="925.465" height="105.365" filterUnits="userSpaceOnUse" color-interpolation-filters="sRGB">
<feFlood flood-opacity="0" result="BackgroundImageFix"/>
<feColorMatrix in="SourceAlpha" type="matrix" values="0 0 0 0 0 0 0 0 0 0 0 0 0 0 0 0 0 0 127 0" result="hardAlpha"/>
<feOffset/>
<feGaussianBlur stdDeviation="15.5"/>
<feComposite in2="hardAlpha" operator="out"/>
<feColorMatrix type="matrix" values="0 0 0 0 0.67451 0 0 0 0 0.254902 0 0 0 0 0.607843 0 0 0 0.8 0"/>
<feBlend mode="normal" in2="BackgroundImageFix" result="effect1_dropShadow_59_219"/>
<feBlend mode="normal" in="SourceGraphic" in2="effect1_dropShadow_59_219" result="shape"/>
</filter>
<filter id="filter2_d_59_219" x="1.125" y="0" width="321.011" height="73.7944" filterUnits="userSpaceOnUse" color-interpolation-filters="sRGB">
<feFlood flood-opacity="0" result="BackgroundImageFix"/>
<feColorMatrix in="SourceAlpha" type="matrix" values="0 0 0 0 0 0 0 0 0 0 0 0 0 0 0 0 0 0 127 0" result="hardAlpha"/>
<feOffset/>
<feGaussianBlur stdDeviation="15.5"/>
<feComposite in2="hardAlpha" operator="out"/>
<feColorMatrix type="matrix" values="0 0 0 0 0.255938 0 0 0 0 0.403842 0 0 0 0 0.675 0 0 0 1 0"/>
<feBlend mode="normal" in2="BackgroundImageFix" result="effect1_dropShadow_59_219"/>
<feBlend mode="normal" in="SourceGraphic" in2="effect1_dropShadow_59_219" result="shape"/>
</filter>
</defs>
</svg>
