<svg width="28" height="32" viewBox="0 0 28 32" fill="none" xmlns="http://www.w3.org/2000/svg">
<path d="M14 2.27898L25.9837 9.13163V22.8998L14 29.7525L2.01626 22.8998V9.11591L14 2.27898ZM14 0L0 8V24L14 32L28 24V8L14 0Z" fill="#FF5C9D"/>
<path d="M19.0497 12.7948C17.6676 12.7948 16.5456 11.6789 16.5456 10.3115C16.5456 9.91856 16.6432 9.54135 16.8058 9.21129C16.0903 8.95981 15.3261 8.81836 14.5294 8.81836C10.7082 8.81836 7.60254 11.8832 7.60254 15.671C7.60254 19.4588 10.7082 22.5237 14.5294 22.5237C18.3505 22.5237 21.4562 19.4588 21.4562 15.671C21.4562 14.4451 21.131 13.2977 20.5619 12.2918C20.1391 12.5905 19.6351 12.7791 19.066 12.7791L19.0497 12.7948ZM14.5131 19.3488C12.4806 19.3488 10.8221 17.7142 10.8221 15.6867C10.8221 13.6592 12.4806 12.0246 14.5131 12.0246C16.5456 12.0246 18.2042 13.6592 18.2042 15.6867C18.2042 17.7142 16.5456 19.3488 14.5131 19.3488Z" fill="#DBDBDB"/>
</svg>
