<svg width="622" height="131" viewBox="0 0 622 131" fill="none" xmlns="http://www.w3.org/2000/svg">
<path d="M94.1811 62.1011L101.503 69.4286C101.794 69.72 101.955 70.1363 101.882 70.5423C101.778 71.1512 101.258 71.5727 100.665 71.5727H83.8073C83.3965 71.5727 82.9909 71.3957 82.7517 71.0575C82.3929 70.5527 82.4657 69.8865 82.8817 69.465L90.3488 61.9919L44.553 1.45716C43.8614 0.536028 42.7798 0 41.6306 0H39.0307L36.9871 2.04523L1.97597 37.0848L0 39.0624V127.163L34.4339 92.7015L36.6023 90.5314V59.5199C36.6023 58.9891 36.9403 58.5155 37.4447 58.3489C37.5695 58.3073 37.6995 58.2917 37.8243 58.2917C38.2039 58.2917 38.5783 58.4634 38.8175 58.7809L92.122 129.604L145.608 58.5935C145.853 58.2761 146.217 58.1044 146.602 58.1044C146.732 58.1044 146.856 58.1252 146.986 58.1616C147.486 58.3281 147.829 58.8017 147.829 59.3325V129.687H184.426V69.668L141.266 0.0936747L94.1811 62.1011Z" fill="#DBDBDB"/>
<path d="M32.4008 129.635C34.5639 129.635 36.3215 127.882 36.3215 125.712V94.5959L1.31039 129.635H32.4008Z" fill="#DBDBDB"/>
<path d="M418.142 69.4078L411.959 63.0587L405.724 69.4078H418.142Z" fill="#DBDBDB"/>
<path d="M459.882 1.47798L414.138 61.7108L413.899 62.1011L421.262 69.465C421.709 69.9126 421.761 70.6568 421.304 71.1668C421.064 71.4322 420.711 71.5727 420.352 71.5727H403.515C403.156 71.5727 402.802 71.4374 402.563 71.1668C402.111 70.6568 402.157 69.9126 402.605 69.465L410.072 61.9919L363.382 0.333066L319.671 70.7973V129.693H356.268V59.5251C356.268 58.9943 356.606 58.5207 357.11 58.3542C357.235 58.3125 357.365 58.2969 357.49 58.2969C357.87 58.2969 358.244 58.4686 358.483 58.7861L411.788 129.609L464.905 59.0879V0H462.861C461.691 0 460.589 0.546436 459.882 1.47798Z" fill="#DBDBDB"/>
<path d="M4.00916 0.156128C1.84599 0.156128 0.0884094 1.90993 0.0884094 4.08006V35.1957L35.0995 0.156128H4.00916Z" fill="#DBDBDB"/>
<path d="M98.4191 69.4078C98.4191 69.4078 92.3404 63.2669 92.2364 63.0587C92.1428 63.2252 86.0068 69.4078 86.0068 69.4078H98.4191Z" fill="#DBDBDB"/>
<path d="M319.671 0H317.736L256.835 97.6247C256.611 97.9838 256.216 98.2076 255.79 98.2076H248.635C248.208 98.2076 247.813 97.9838 247.589 97.6195L187.244 0H144.111L224.564 129.693H280.229L360.683 0H319.671Z" fill="#DBDBDB"/>
<path d="M618.079 0H586.989L622 35.0396V3.92393C622 1.7538 620.242 0 618.079 0Z" fill="#DBDBDB"/>
<path d="M583.713 0H505.995V36.8194H620.508L583.713 0Z" fill="#DBDBDB"/>
<path d="M467.141 126.784C467.141 128.948 468.893 130.707 471.062 130.707H502.152L467.141 95.6679V126.784Z" fill="#DBDBDB"/>
<path d="M622 46.8686H505.995V83.5058H622V46.8686Z" fill="#DBDBDB"/>
<path d="M467.255 91.999L469.034 93.7736L503.826 128.6V0H467.255V91.999Z" fill="#DBDBDB"/>
</svg>
