<?xml version="1.0" encoding="utf-8"?>
<!-- Generator: Adobe Illustrator 26.3.1, SVG Export Plug-In . SVG Version: 6.00 Build 0)  -->
<svg version="1.1" id="Layer_1" xmlns="http://www.w3.org/2000/svg" xmlns:xlink="http://www.w3.org/1999/xlink" x="0px" y="0px"
	 viewBox="0 0 28 32" style="enable-background:new 0 0 28 32;" xml:space="preserve">
<style type="text/css">
	.st0{fill:#DBDBDB;}
</style>
<polygon points="14,2.3 2,9.1 2,22.9 14,29.8 26,22.9 26,9.1 "/>
<path class="st0" d="M14,2.3l12,6.9v13.8l-12,6.9L2,22.9V9.1L14,2.3z M14,0L0,8v16l14,8l14-8V8L14,0z"/>
<g>
	<path class="st0" d="M18.4,12.8c-1.4,0-2.5-1.1-2.5-2.5c0-0.4,0.1-0.8,0.3-1.1c-0.7-0.3-1.5-0.4-2.3-0.4c-3.8,0-6.9,3.1-6.9,6.9
		s3.1,6.9,6.9,6.9c3.8,0,6.9-3.1,6.9-6.9c0-1.2-0.3-2.4-0.9-3.4C19.5,12.6,19,12.8,18.4,12.8L18.4,12.8z M13.9,19.3
		c-2,0-3.7-1.6-3.7-3.7s1.7-3.7,3.7-3.7c2,0,3.7,1.6,3.7,3.7S15.9,19.3,13.9,19.3z"/>
</g>
</svg>
