<svg width="624" height="8" viewBox="0 0 624 8" fill="none" xmlns="http://www.w3.org/2000/svg">
<path d="M10.86 0.8V8H9.94V2.14L5.82 8H5.71L1.59 2.15V8H0.67V0.8H1.8L5.77 6.44L9.74 0.8H10.86ZM29.5648 0.8H38.6148V1.72H30.4848V3.94H38.3748V4.86H30.4848V7.08H38.6148V8H29.5648V0.8ZM66.6184 0.8V1.72H62.2584V8H61.3384V1.72H57.0184V0.8H66.6184ZM93.6008 8H92.5308L91.3208 6.29H84.9108L83.6908 8H82.6308L87.5308 0.8H88.6908L93.6008 8ZM88.0608 1.72L85.4708 5.37H90.7708L88.1608 1.72H88.0608ZM114.553 7.18H114.713L119.583 0.8H120.663L115.293 8H113.983L108.613 0.8H109.703L114.553 7.18ZM138.861 0.8H147.911V1.72H139.781V3.94H147.671V4.86H139.781V7.08H147.911V8H138.861V0.8ZM175.773 8H174.633L173.203 5.92H167.333V8H166.413V0.8H173.653C173.966 0.8 174.256 0.856666 174.523 0.97C174.796 1.08333 175.033 1.23333 175.233 1.42C175.439 1.60667 175.599 1.82333 175.713 2.07C175.833 2.31 175.893 2.55667 175.893 2.81V3.86C175.893 4.07333 175.846 4.29 175.753 4.51C175.666 4.73 175.546 4.93333 175.393 5.12C175.246 5.30667 175.073 5.46667 174.873 5.6C174.679 5.72667 174.479 5.81 174.273 5.85L175.773 8ZM174.973 3.62V3.05C174.973 2.87 174.933 2.7 174.853 2.54C174.773 2.38 174.663 2.24 174.523 2.12C174.383 1.99333 174.216 1.89667 174.023 1.83C173.836 1.75667 173.629 1.72 173.403 1.72H167.333V5H173.403C173.689 5 173.933 4.95667 174.133 4.87C174.333 4.78333 174.493 4.67333 174.613 4.54C174.739 4.40667 174.829 4.26 174.883 4.1C174.943 3.93333 174.973 3.77333 174.973 3.62ZM203.068 3.32C203.068 3.16 203.032 2.98667 202.958 2.8C202.892 2.61333 202.788 2.44 202.648 2.28C202.508 2.12 202.332 1.98667 202.118 1.88C201.912 1.77333 201.668 1.72 201.388 1.72H196.608C196.402 1.72 196.205 1.75 196.018 1.81C195.838 1.87 195.678 1.96 195.538 2.08C195.398 2.19333 195.288 2.33667 195.208 2.51C195.128 2.67667 195.088 2.87333 195.088 3.1C195.088 3.39333 195.215 3.61667 195.468 3.77C195.722 3.91667 196.132 3.99 196.698 3.99H201.718C202.038 3.99 202.335 4.02 202.608 4.08C202.882 4.14 203.122 4.24 203.328 4.38C203.535 4.51333 203.695 4.69333 203.808 4.92C203.928 5.14667 203.988 5.42667 203.988 5.76C203.988 6.06667 203.928 6.35667 203.808 6.63C203.695 6.90333 203.535 7.14333 203.328 7.35C203.128 7.55 202.892 7.71 202.618 7.83C202.352 7.94333 202.062 8 201.748 8H196.518C196.172 8 195.855 7.92667 195.568 7.78C195.288 7.62667 195.045 7.43 194.838 7.19C194.632 6.95 194.472 6.68 194.358 6.38C194.245 6.08 194.188 5.78 194.188 5.48H195.108C195.108 5.62667 195.138 5.79333 195.198 5.98C195.258 6.16667 195.355 6.34333 195.488 6.51C195.622 6.67 195.795 6.80667 196.008 6.92C196.228 7.02667 196.495 7.08 196.808 7.08H201.538C201.778 7.08 201.992 7.04 202.178 6.96C202.372 6.88 202.535 6.77667 202.668 6.65C202.802 6.51667 202.902 6.37 202.968 6.21C203.042 6.04333 203.078 5.87667 203.078 5.71C203.078 5.52333 203.045 5.37333 202.978 5.26C202.918 5.14667 202.822 5.06 202.688 5C202.562 4.94 202.402 4.9 202.208 4.88C202.015 4.86 201.792 4.85 201.538 4.85H196.618C196.312 4.85 196.012 4.82 195.718 4.76C195.425 4.7 195.165 4.6 194.938 4.46C194.712 4.31333 194.528 4.12667 194.388 3.9C194.255 3.66667 194.188 3.38 194.188 3.04C194.188 2.72667 194.245 2.43667 194.358 2.17C194.478 1.89667 194.638 1.66 194.838 1.46C195.045 1.25333 195.285 1.09333 195.558 0.98C195.832 0.86 196.122 0.8 196.428 0.8H201.658C202.005 0.8 202.322 0.876666 202.608 1.03C202.895 1.17667 203.138 1.37 203.338 1.61C203.545 1.85 203.705 2.12 203.818 2.42C203.932 2.72 203.988 3.02 203.988 3.32H203.068ZM222.491 0.8H231.541V1.72H223.411V3.94H231.301V4.86H223.411V7.08H231.541V8H222.491V0.8ZM281.997 0.8V8H281.077V2.14L276.957 8H276.847L272.727 2.15V8H271.807V0.8H272.937L276.907 6.44L280.877 0.8H281.997ZM310.084 0.81V5.76C310.084 6.06667 310.024 6.35667 309.904 6.63C309.791 6.90333 309.631 7.14333 309.424 7.35C309.224 7.55 308.987 7.71 308.714 7.83C308.447 7.94333 308.157 8 307.844 8H302.844C302.537 8 302.247 7.94333 301.974 7.83C301.701 7.71 301.461 7.55 301.254 7.35C301.054 7.14333 300.894 6.90333 300.774 6.63C300.661 6.35667 300.604 6.06667 300.604 5.76V0.81H301.524V5.43C301.524 5.68333 301.571 5.91333 301.664 6.12C301.757 6.32 301.881 6.49333 302.034 6.64C302.194 6.78 302.374 6.89 302.574 6.97C302.774 7.04333 302.984 7.08 303.204 7.08H307.464C307.697 7.08 307.917 7.04333 308.124 6.97C308.331 6.89 308.511 6.77667 308.664 6.63C308.817 6.48333 308.937 6.31 309.024 6.11C309.117 5.90333 309.164 5.67667 309.164 5.43V0.81H310.084ZM337.26 3.32C337.26 3.16 337.223 2.98667 337.15 2.8C337.083 2.61333 336.98 2.44 336.84 2.28C336.7 2.12 336.523 1.98667 336.31 1.88C336.103 1.77333 335.86 1.72 335.58 1.72H330.8C330.593 1.72 330.396 1.75 330.21 1.81C330.03 1.87 329.87 1.96 329.73 2.08C329.59 2.19333 329.48 2.33667 329.4 2.51C329.32 2.67667 329.28 2.87333 329.28 3.1C329.28 3.39333 329.406 3.61667 329.66 3.77C329.913 3.91667 330.323 3.99 330.89 3.99H335.91C336.23 3.99 336.526 4.02 336.8 4.08C337.073 4.14 337.313 4.24 337.52 4.38C337.726 4.51333 337.886 4.69333 338 4.92C338.12 5.14667 338.18 5.42667 338.18 5.76C338.18 6.06667 338.12 6.35667 338 6.63C337.886 6.90333 337.726 7.14333 337.52 7.35C337.32 7.55 337.083 7.71 336.81 7.83C336.543 7.94333 336.253 8 335.94 8H330.71C330.363 8 330.046 7.92667 329.76 7.78C329.48 7.62667 329.236 7.43 329.03 7.19C328.823 6.95 328.663 6.68 328.55 6.38C328.436 6.08 328.38 5.78 328.38 5.48H329.3C329.3 5.62667 329.33 5.79333 329.39 5.98C329.45 6.16667 329.546 6.34333 329.68 6.51C329.813 6.67 329.986 6.80667 330.2 6.92C330.42 7.02667 330.686 7.08 331 7.08H335.73C335.97 7.08 336.183 7.04 336.37 6.96C336.563 6.88 336.726 6.77667 336.86 6.65C336.993 6.51667 337.093 6.37 337.16 6.21C337.233 6.04333 337.27 5.87667 337.27 5.71C337.27 5.52333 337.236 5.37333 337.17 5.26C337.11 5.14667 337.013 5.06 336.88 5C336.753 4.94 336.593 4.9 336.4 4.88C336.206 4.86 335.983 4.85 335.73 4.85H330.81C330.503 4.85 330.203 4.82 329.91 4.76C329.616 4.7 329.356 4.6 329.13 4.46C328.903 4.31333 328.72 4.12667 328.58 3.9C328.446 3.66667 328.38 3.38 328.38 3.04C328.38 2.72667 328.436 2.43667 328.55 2.17C328.67 1.89667 328.83 1.66 329.03 1.46C329.236 1.25333 329.476 1.09333 329.75 0.98C330.023 0.86 330.313 0.8 330.62 0.8H335.85C336.196 0.8 336.513 0.876666 336.8 1.03C337.086 1.17667 337.33 1.37 337.53 1.61C337.736 1.85 337.896 2.12 338.01 2.42C338.123 2.72 338.18 3.02 338.18 3.32H337.26ZM357.383 0.8H358.303V8H357.383V0.8ZM386.395 3.52C386.395 3.28 386.352 3.05 386.265 2.83C386.185 2.61 386.072 2.42 385.925 2.26C385.779 2.09333 385.602 1.96333 385.395 1.87C385.189 1.77 384.962 1.72 384.715 1.72H380.145C379.905 1.72 379.682 1.76 379.475 1.84C379.269 1.92 379.085 2.03667 378.925 2.19C378.772 2.33667 378.652 2.51667 378.565 2.73C378.479 2.94333 378.435 3.18667 378.435 3.46V5.42C378.435 5.67333 378.479 5.90333 378.565 6.11C378.659 6.31 378.782 6.48333 378.935 6.63C379.089 6.77667 379.269 6.89 379.475 6.97C379.689 7.04333 379.919 7.08 380.165 7.08H384.725C384.912 7.08 385.102 7.04 385.295 6.96C385.495 6.87333 385.675 6.75 385.835 6.59C386.002 6.43 386.135 6.23667 386.235 6.01C386.342 5.77667 386.395 5.51667 386.395 5.23H387.315V5.43C387.315 5.74333 387.259 6.05333 387.145 6.36C387.032 6.66667 386.872 6.94333 386.665 7.19C386.465 7.43 386.222 7.62667 385.935 7.78C385.649 7.92667 385.332 8 384.985 8H379.755C379.449 8 379.159 7.94333 378.885 7.83C378.612 7.71 378.372 7.55 378.165 7.35C377.965 7.14333 377.805 6.90333 377.685 6.63C377.572 6.35667 377.515 6.06667 377.515 5.76V3.04C377.515 2.72667 377.572 2.43667 377.685 2.17C377.805 1.89667 377.965 1.66 378.165 1.46C378.372 1.25333 378.612 1.09333 378.885 0.98C379.159 0.86 379.449 0.8 379.755 0.8H384.985C385.332 0.8 385.649 0.876666 385.935 1.03C386.222 1.17667 386.465 1.37 386.665 1.61C386.872 1.85 387.032 2.12 387.145 2.42C387.259 2.72 387.315 3.02 387.315 3.32V3.52H386.395ZM427.413 0.8H436.223V1.72H428.333V3.94H435.983V4.86H428.333V8H427.413V0.8ZM454.632 0.8H463.682V1.72H455.552V3.94H463.442V4.86H455.552V7.08H463.682V8H454.632V0.8ZM490.965 3.32C490.965 3.16 490.929 2.98667 490.855 2.8C490.789 2.61333 490.685 2.44 490.545 2.28C490.405 2.12 490.229 1.98667 490.015 1.88C489.809 1.77333 489.565 1.72 489.285 1.72H484.505C484.299 1.72 484.102 1.75 483.915 1.81C483.735 1.87 483.575 1.96 483.435 2.08C483.295 2.19333 483.185 2.33667 483.105 2.51C483.025 2.67667 482.985 2.87333 482.985 3.1C482.985 3.39333 483.112 3.61667 483.365 3.77C483.619 3.91667 484.029 3.99 484.595 3.99H489.615C489.935 3.99 490.232 4.02 490.505 4.08C490.779 4.14 491.019 4.24 491.225 4.38C491.432 4.51333 491.592 4.69333 491.705 4.92C491.825 5.14667 491.885 5.42667 491.885 5.76C491.885 6.06667 491.825 6.35667 491.705 6.63C491.592 6.90333 491.432 7.14333 491.225 7.35C491.025 7.55 490.789 7.71 490.515 7.83C490.249 7.94333 489.959 8 489.645 8H484.415C484.069 8 483.752 7.92667 483.465 7.78C483.185 7.62667 482.942 7.43 482.735 7.19C482.529 6.95 482.369 6.68 482.255 6.38C482.142 6.08 482.085 5.78 482.085 5.48H483.005C483.005 5.62667 483.035 5.79333 483.095 5.98C483.155 6.16667 483.252 6.34333 483.385 6.51C483.519 6.67 483.692 6.80667 483.905 6.92C484.125 7.02667 484.392 7.08 484.705 7.08H489.435C489.675 7.08 489.889 7.04 490.075 6.96C490.269 6.88 490.432 6.77667 490.565 6.65C490.699 6.51667 490.799 6.37 490.865 6.21C490.939 6.04333 490.975 5.87667 490.975 5.71C490.975 5.52333 490.942 5.37333 490.875 5.26C490.815 5.14667 490.719 5.06 490.585 5C490.459 4.94 490.299 4.9 490.105 4.88C489.912 4.86 489.689 4.85 489.435 4.85H484.515C484.209 4.85 483.909 4.82 483.615 4.76C483.322 4.7 483.062 4.6 482.835 4.46C482.609 4.31333 482.425 4.12667 482.285 3.9C482.152 3.66667 482.085 3.38 482.085 3.04C482.085 2.72667 482.142 2.43667 482.255 2.17C482.375 1.89667 482.535 1.66 482.735 1.46C482.942 1.25333 483.182 1.09333 483.455 0.98C483.729 0.86 484.019 0.8 484.325 0.8H489.555C489.902 0.8 490.219 0.876666 490.505 1.03C490.792 1.17667 491.035 1.37 491.235 1.61C491.442 1.85 491.602 2.12 491.715 2.42C491.829 2.72 491.885 3.02 491.885 3.32H490.965ZM519.588 0.8V1.72H515.228V8H514.308V1.72H509.988V0.8H519.588ZM538.786 0.8H539.706V8H538.786V0.8ZM564.553 7.18H564.713L569.583 0.8H570.663L565.293 8H563.983L558.613 0.8H559.703L564.553 7.18ZM596.741 8H595.671L594.461 6.29H588.051L586.831 8H585.771L590.671 0.8H591.831L596.741 8ZM591.201 1.72L588.611 5.37H593.911L591.301 1.72H591.201ZM614.822 7.98L614.812 0.8H615.732V7.07H623.932V8L614.822 7.98Z" fill="#DBDBDB"/>
</svg>
