<svg width="507" height="124" viewBox="0 0 507 124" fill="none" xmlns="http://www.w3.org/2000/svg">
<g filter="url(#filter0_d_293_2740)">
<path d="M150.144 39.7695C150.144 39.0015 150.016 38.2655 149.76 37.5615C149.504 36.8575 149.141 36.2495 148.672 35.7375C148.203 35.2041 147.637 34.7881 146.976 34.4895C146.315 34.1695 145.589 34.0095 144.8 34.0095H122.016C121.248 34.0095 120.533 34.1375 119.872 34.3935C119.211 34.6495 118.624 35.0228 118.112 35.5135C117.621 35.9828 117.237 36.5588 116.96 37.2415C116.683 37.9241 116.544 38.7028 116.544 39.5775V45.8495C116.544 46.6601 116.683 47.3961 116.96 48.0575C117.259 48.6975 117.653 49.2521 118.144 49.7215C118.635 50.1908 119.211 50.5535 119.872 50.8095C120.555 51.0441 121.291 51.1615 122.08 51.1615H144.8C145.397 51.1615 146.005 51.0335 146.624 50.7775C147.264 50.5001 147.84 50.1055 148.352 49.5935C148.885 49.0815 149.312 48.4628 149.632 47.7375C149.973 46.9908 150.144 46.1588 150.144 45.2415H153.088V45.8815C153.088 46.8841 152.907 47.8761 152.544 48.8575C152.181 49.8388 151.669 50.7241 151.008 51.5135C150.368 52.2815 149.589 52.9108 148.672 53.4015C147.755 53.8708 146.741 54.1055 145.632 54.1055H120.768C119.787 54.1055 118.859 53.9241 117.984 53.5615C117.109 53.1775 116.341 52.6655 115.68 52.0255C115.04 51.3641 114.528 50.5961 114.144 49.7215C113.781 48.8468 113.6 47.9188 113.6 46.9375V38.2335C113.6 37.2308 113.781 36.3028 114.144 35.4495C114.528 34.5748 115.04 33.8175 115.68 33.1775C116.341 32.5161 117.109 32.0041 117.984 31.6415C118.859 31.2575 119.787 31.0655 120.768 31.0655H145.632C146.741 31.0655 147.755 31.3108 148.672 31.8015C149.589 32.2708 150.368 32.8895 151.008 33.6575C151.669 34.4255 152.181 35.2895 152.544 36.2495C152.907 37.2095 153.088 38.1695 153.088 39.1295V39.7695H150.144ZM197.959 31.0975V46.9375C197.959 47.9188 197.767 48.8468 197.383 49.7215C197.02 50.5961 196.508 51.3641 195.847 52.0255C195.207 52.6655 194.45 53.1775 193.575 53.5615C192.722 53.9241 191.794 54.1055 190.791 54.1055H166.343C165.362 54.1055 164.434 53.9241 163.559 53.5615C162.684 53.1775 161.916 52.6655 161.255 52.0255C160.615 51.3641 160.103 50.5961 159.719 49.7215C159.356 48.8468 159.175 47.9188 159.175 46.9375V31.0975H162.119V45.8815C162.119 46.6921 162.268 47.4281 162.567 48.0895C162.866 48.7295 163.26 49.2841 163.751 49.7535C164.263 50.2015 164.839 50.5535 165.479 50.8095C166.119 51.0441 166.791 51.1615 167.495 51.1615H189.575C190.322 51.1615 191.026 51.0441 191.687 50.8095C192.348 50.5535 192.924 50.1908 193.415 49.7215C193.906 49.2521 194.29 48.6975 194.567 48.0575C194.866 47.3961 195.015 46.6708 195.015 45.8815V31.0975H197.959ZM242.463 54.1055H238.815L234.239 47.4495H206.975V54.1055H204.031V31.0655H235.679C236.682 31.0655 237.61 31.2468 238.463 31.6095C239.338 31.9721 240.095 32.4521 240.735 33.0495C241.397 33.6468 241.909 34.3401 242.271 35.1295C242.655 35.8975 242.847 36.6868 242.847 37.4975V40.8575C242.847 41.5401 242.698 42.2335 242.399 42.9375C242.122 43.6415 241.738 44.2921 241.247 44.8895C240.778 45.4868 240.223 45.9988 239.583 46.4255C238.965 46.8308 238.325 47.0975 237.663 47.2255L242.463 54.1055ZM239.871 40.0895V38.2655C239.871 37.6895 239.743 37.1455 239.487 36.6335C239.253 36.1215 238.911 35.6735 238.463 35.2895C238.015 34.8841 237.482 34.5748 236.863 34.3615C236.266 34.1268 235.605 34.0095 234.879 34.0095H206.975V44.5055H234.879C235.797 44.5055 236.565 44.3668 237.183 44.0895C237.823 43.8121 238.335 43.4601 238.719 43.0335C239.125 42.6068 239.413 42.1375 239.583 41.6255C239.775 41.0921 239.871 40.5801 239.871 40.0895ZM289.99 54.1055H286.534L282.662 48.6335H254.886L250.982 54.1055H247.59L263.27 31.0655H274.278L289.99 54.1055ZM264.966 34.0095L256.678 45.6895H280.934L272.582 34.0095H264.966ZM326.534 31.0655V34.0095H308.39V54.1055H305.446V34.0095H287.494V31.0655H326.534ZM334.871 31.0655H337.815V54.1055H334.871V31.0655ZM381.944 50.7775V31.0655H384.887V54.1055H381.239L349.431 34.3295V54.1055H346.487V31.0655H350.231L381.944 50.7775ZM430.521 36.2175C429.987 35.7481 429.379 35.3748 428.697 35.0975C428.014 34.7988 427.278 34.5748 426.489 34.4255C425.699 34.2548 424.857 34.1481 423.961 34.1055C423.086 34.0415 422.19 34.0095 421.273 34.0095H399.385C398.595 34.0095 397.859 34.1481 397.177 34.4255C396.515 34.7028 395.939 35.0868 395.449 35.5775C394.958 36.0468 394.574 36.6121 394.297 37.2735C394.041 37.9348 393.913 38.6388 393.913 39.3855V45.8815C393.913 46.5855 394.051 47.2575 394.329 47.8975C394.606 48.5375 394.979 49.1028 395.449 49.5935C395.939 50.0628 396.515 50.4468 397.177 50.7455C397.838 51.0228 398.553 51.1615 399.321 51.1615H420.953C421.657 51.1615 422.318 50.9908 422.937 50.6495C423.577 50.3081 424.131 49.8815 424.601 49.3695C425.091 48.8361 425.497 48.2495 425.817 47.6095C426.137 46.9481 426.339 46.2975 426.425 45.6575C426.531 44.9535 426.542 44.4841 426.457 44.2495C426.371 44.0148 426.243 43.8975 426.073 43.8975H415.545V40.9535H426.457C427.715 40.9535 428.611 41.1988 429.145 41.6895C429.678 42.1801 429.955 42.8948 429.977 43.8335L430.521 54.1695L427.577 54.1055L427.417 45.5295H427.001C427.001 46.8095 426.755 47.9828 426.265 49.0495C425.795 50.0948 425.187 50.9908 424.441 51.7375C423.715 52.4841 422.905 53.0708 422.009 53.4975C421.134 53.9028 420.291 54.1055 419.481 54.1055H398.137C397.155 54.1055 396.227 53.9241 395.353 53.5615C394.478 53.1775 393.71 52.6655 393.049 52.0255C392.409 51.3641 391.897 50.5961 391.513 49.7215C391.15 48.8468 390.969 47.9188 390.969 46.9375V38.2335C390.969 37.2308 391.15 36.3028 391.513 35.4495C391.897 34.5748 392.409 33.8175 393.049 33.1775C393.71 32.5161 394.478 32.0041 395.353 31.6415C396.227 31.2575 397.155 31.0655 398.137 31.0655H423.065C424.451 31.0655 425.795 31.2361 427.097 31.5775C428.419 31.8975 429.561 32.4308 430.521 33.1775V36.2175ZM153.952 87.4655H119.648V92.1055H113.6V69.0655H153.952C154.955 69.0655 155.883 69.2575 156.736 69.6415C157.611 70.0041 158.368 70.5161 159.008 71.1775C159.669 71.8175 160.181 72.5748 160.544 73.4495C160.928 74.3028 161.12 75.2308 161.12 76.2335V80.2975C161.12 81.2788 160.928 82.2068 160.544 83.0815C160.181 83.9561 159.669 84.7241 159.008 85.3855C158.368 86.0255 157.611 86.5375 156.736 86.9215C155.883 87.2841 154.955 87.4655 153.952 87.4655ZM155.104 78.5375V78.0255C155.104 77.0441 154.848 76.3188 154.336 75.8495C153.845 75.3588 152.992 75.1135 151.776 75.1135H119.648V81.4175H151.776C152.949 81.4175 153.792 81.1935 154.304 80.7455C154.837 80.2975 155.104 79.5615 155.104 78.5375ZM211.166 92.1055H204.222L201.79 88.1695H171.134L168.766 92.1055H161.822L175.454 69.0655H197.502L211.166 92.1055ZM178.974 75.1135L174.654 82.1215H198.366L193.982 75.1135H178.974ZM263.068 92.1055H255.708L251.132 85.4495H222.236V92.1055H216.188V69.0655H256.284C257.286 69.0655 258.214 69.2468 259.068 69.6095C259.942 69.9721 260.7 70.4521 261.34 71.0495C262.001 71.6468 262.513 72.3401 262.876 73.1295C263.26 73.8975 263.452 74.6868 263.452 75.4975V78.8575C263.452 79.5401 263.302 80.2335 263.004 80.9375C262.726 81.6415 262.342 82.2921 261.852 82.8895C261.382 83.4868 260.828 83.9988 260.188 84.4255C259.569 84.8308 258.929 85.0975 258.268 85.2255L263.068 92.1055ZM257.436 77.4175V76.9695C257.436 76.4788 257.212 76.0521 256.764 75.6895C256.337 75.3055 255.75 75.1135 255.004 75.1135H222.236V79.4015H255.004C255.836 79.4015 256.444 79.1988 256.828 78.7935C257.233 78.3881 257.436 77.9295 257.436 77.4175ZM316.216 69.0655V75.1135H295.544V92.1055H289.496V75.1135H268.888V69.0655H316.216ZM363.298 85.8335V69.0655H369.346V92.1055H361.698L328.354 75.3695V92.1055H322.306V69.0655H329.954L363.298 85.8335ZM375.756 69.0655H422.54V75.1135H381.804V77.5775H421.772V83.5935H381.804V86.0575H422.54V92.1055H375.756V69.0655ZM475.493 92.1055H468.133L463.557 85.4495H434.661V92.1055H428.613V69.0655H468.709C469.711 69.0655 470.639 69.2468 471.493 69.6095C472.367 69.9721 473.125 70.4521 473.765 71.0495C474.426 71.6468 474.938 72.3401 475.301 73.1295C475.685 73.8975 475.877 74.6868 475.877 75.4975V78.8575C475.877 79.5401 475.727 80.2335 475.429 80.9375C475.151 81.6415 474.767 82.2921 474.277 82.8895C473.807 83.4868 473.253 83.9988 472.613 84.4255C471.994 84.8308 471.354 85.0975 470.693 85.2255L475.493 92.1055ZM469.861 77.4175V76.9695C469.861 76.4788 469.637 76.0521 469.189 75.6895C468.762 75.3055 468.175 75.1135 467.429 75.1135H434.661V79.4015H467.429C468.261 79.4015 468.869 79.1988 469.253 78.7935C469.658 78.3881 469.861 77.9295 469.861 77.4175Z" fill="#DBDBDB"/>
</g>
<g clip-path="url(#clip0_293_2740)">
<path d="M42.5781 41.0551C51.5056 41.0551 60.4251 43.1526 67.6923 46.9624C74.9197 50.7522 80.3473 56.0874 83.4721 62.4515C80.2834 68.6607 74.8599 73.8489 67.7003 77.5077C60.5208 81.1784 51.7131 83.2004 42.8934 83.2004C34.0736 83.2004 25.5293 81.2221 18.5533 77.4759C11.5813 73.7337 6.39726 68.323 3.48794 61.7722C6.69657 55.3843 11.9884 50.1365 18.8646 46.5413C25.7248 42.954 33.922 41.0551 42.5701 41.0551M42.5701 37.877C24.8708 37.877 7.28322 45.5402 -0.00402832 61.6848C6.52097 78.3261 24.6154 86.3746 42.8934 86.3746C61.1713 86.3746 79.8484 78.2267 86.996 62.4793C80.036 46.3983 61.2432 37.873 42.5701 37.873V37.877Z" fill="white"/>
<path d="M43.4997 33.0822C42.6177 33.0822 41.9033 32.3711 41.9033 31.4932V17.589C41.9033 16.7111 42.6177 16 43.4997 16C44.3816 16 45.096 16.7111 45.096 17.589V31.4932C45.096 32.3711 44.3816 33.0822 43.4997 33.0822Z" fill="#FF5C9D"/>
<path d="M32.3257 33.8766C31.4437 33.8766 30.7294 33.1655 30.7294 32.2876V22.7533C30.7294 21.8754 31.4437 21.1643 32.3257 21.1643C33.2077 21.1643 33.922 21.8754 33.922 22.7533V32.2876C33.922 33.1655 33.2077 33.8766 32.3257 33.8766Z" fill="#FF5C9D"/>
<path d="M21.5504 38.7233C20.6685 38.7233 19.9541 38.0122 19.9541 37.1343V28.7123C19.9541 27.8344 20.6685 27.1233 21.5504 27.1233C22.4324 27.1233 23.1468 27.8344 23.1468 28.7123V37.1343C23.1468 38.0122 22.4324 38.7233 21.5504 38.7233Z" fill="#FF5C9D"/>
<path d="M11.5739 45.4646C10.6919 45.4646 9.97754 44.7535 9.97754 43.8755V37.4518C9.97754 36.5739 10.6919 35.8628 11.5739 35.8628C12.4558 35.8628 13.1702 36.5739 13.1702 37.4518V43.8755C13.1702 44.7535 12.4558 45.4646 11.5739 45.4646Z" fill="#FF5C9D"/>
<path d="M53.8766 33.8769C52.9946 33.8769 52.2803 33.1658 52.2803 32.2878V22.7536C52.2803 21.8756 52.9946 21.1646 53.8766 21.1646C54.7586 21.1646 55.4729 21.8756 55.4729 22.7536V32.2878C55.4729 33.1658 54.7586 33.8769 53.8766 33.8769Z" fill="#FF5C9D"/>
<path d="M43.4997 103C42.6177 103 41.9033 102.289 41.9033 101.411V91.8766C41.9033 90.9987 42.6177 90.2876 43.4997 90.2876C44.3816 90.2876 45.096 90.9987 45.096 91.8766V101.411C45.096 102.289 44.3816 103 43.4997 103Z" fill="#FF5C9D"/>
<path d="M32.3257 97.8356C31.4437 97.8356 30.7294 97.1245 30.7294 96.2466V91.0822C30.7294 90.2043 31.4437 89.4932 32.3257 89.4932C33.2077 89.4932 33.922 90.2043 33.922 91.0822V96.2466C33.922 97.1245 33.2077 97.8356 32.3257 97.8356Z" fill="#FF5C9D"/>
<path d="M53.8766 97.8356C52.9946 97.8356 52.2803 97.1245 52.2803 96.2466V91.0822C52.2803 90.2043 52.9946 89.4932 53.8766 89.4932C54.7586 89.4932 55.4729 90.2043 55.4729 91.0822V96.2466C55.4729 97.1245 54.7586 97.8356 53.8766 97.8356Z" fill="#FF5C9D"/>
<path d="M65.0504 38.7233C64.1685 38.7233 63.4541 38.0122 63.4541 37.1343V28.7123C63.4541 27.8344 64.1685 27.1233 65.0504 27.1233C65.9324 27.1233 66.6468 27.8344 66.6468 28.7123V37.1343C66.6468 38.0122 65.9324 38.7233 65.0504 38.7233Z" fill="#FF5C9D"/>
<path d="M75.028 45.4646C74.146 45.4646 73.4316 44.7535 73.4316 43.8755V37.4518C73.4316 36.5739 74.146 35.8628 75.028 35.8628C75.9099 35.8628 76.6243 36.5739 76.6243 37.4518V43.8755C76.6243 44.7535 75.9099 45.4646 75.028 45.4646Z" fill="#FF5C9D"/>
<path d="M2.7936 51.3562C1.91162 51.3562 1.19727 50.6451 1.19727 49.7672V47.2009C1.19727 46.3229 1.91162 45.6118 2.7936 45.6118C3.67557 45.6118 4.38993 46.3229 4.38993 47.2009V49.7672C4.38993 50.6451 3.67557 51.3562 2.7936 51.3562Z" fill="#FF5C9D"/>
<path d="M84.5661 51.1418C83.6841 51.1418 82.9697 50.4307 82.9697 49.5528V46.9865C82.9697 46.1086 83.6841 45.3975 84.5661 45.3975C85.448 45.3975 86.1624 46.1086 86.1624 46.9865V49.5528C86.1624 50.4307 85.448 51.1418 84.5661 51.1418Z" fill="#FF5C9D"/>
<path d="M29.3329 75.7321C36.5337 75.7321 42.371 70.1544 42.371 63.274C42.371 56.3936 36.5337 50.8159 29.3329 50.8159C22.1322 50.8159 16.2949 56.3936 16.2949 63.274C16.2949 70.1544 22.1322 75.7321 29.3329 75.7321Z" fill="white"/>
<path d="M27.3691 68.6489C30.0625 68.6489 32.2459 65.9917 32.2459 62.7139C32.2459 59.436 30.0625 56.7788 27.3691 56.7788C24.6757 56.7788 22.4923 59.436 22.4923 62.7139C22.4923 65.9917 24.6757 68.6489 27.3691 68.6489Z" fill="#FF5C9D"/>
</g>
<defs>
<filter id="filter0_d_293_2740" x="82.6" y="0.0654297" width="424.276" height="123.04" filterUnits="userSpaceOnUse" color-interpolation-filters="sRGB">
<feFlood flood-opacity="0" result="BackgroundImageFix"/>
<feColorMatrix in="SourceAlpha" type="matrix" values="0 0 0 0 0 0 0 0 0 0 0 0 0 0 0 0 0 0 127 0" result="hardAlpha"/>
<feOffset/>
<feGaussianBlur stdDeviation="15.5"/>
<feComposite in2="hardAlpha" operator="out"/>
<feColorMatrix type="matrix" values="0 0 0 0 0.225 0 0 0 0 0.225 0 0 0 0 0.225 0 0 0 1 0"/>
<feBlend mode="normal" in2="BackgroundImageFix" result="effect1_dropShadow_293_2740"/>
<feBlend mode="normal" in="SourceGraphic" in2="effect1_dropShadow_293_2740" result="shape"/>
</filter>
<clipPath id="clip0_293_2740">
<rect width="87" height="87" fill="white" transform="translate(0 16)"/>
</clipPath>
</defs>
</svg>
