<svg width="752" height="86" viewBox="0 0 752 86" fill="none" xmlns="http://www.w3.org/2000/svg">
<g clip-path="url(#clip0_293_2536)">
<path d="M56.9103 42.1554C56.9103 49.0991 51.3042 54.7268 44.387 54.7268C37.4699 54.7268 31.8638 49.0991 31.8638 42.1554C31.8638 35.2117 37.4699 29.584 44.387 29.584C46.5346 29.584 48.5573 30.1355 50.3303 31.088C48.5074 31.7899 47.2088 33.5572 47.2088 35.6253C47.2088 38.3075 49.3814 40.4884 52.0533 40.4884C53.8263 40.4884 55.387 39.5233 56.2236 38.0819C56.6606 39.3478 56.8978 40.714 56.8978 42.1428L56.9103 42.1554Z" fill="white"/>
<path d="M44.3871 23.4675C34.1238 23.4675 25.7708 31.8526 25.7708 42.1554C25.7708 52.4582 34.1238 60.8433 44.3871 60.8433C54.6504 60.8433 63.0034 52.4582 63.0034 42.1554C63.0034 31.8526 54.6504 23.4675 44.3871 23.4675ZM44.3871 57.2962C36.0715 57.2962 29.3167 50.5029 29.3167 42.1679C29.3167 33.833 36.084 27.0397 44.3871 27.0397C52.6902 27.0397 59.4575 33.833 59.4575 42.1679C59.4575 50.5029 52.7026 57.2962 44.3871 57.2962Z" fill="#FF5C9D"/>
<path d="M87.8376 41.7542C81.0703 26.9393 63.4528 17 43.9999 17H43.9125C24.4971 17.0376 6.91707 26.9769 0.162246 41.7542C-0.0500129 42.2305 -0.0500129 42.7695 0.162246 43.2458C6.94204 58.0607 24.547 68 43.9999 68H44.0873C63.5028 67.9749 81.0828 58.0231 87.8376 43.2458C88.0499 42.7695 88.0499 42.2305 87.8376 41.7542ZM79.135 49.9889L74.6276 47.2315V42.7695L76.7627 39.0344C77.2496 38.1821 76.95 37.0917 76.1009 36.6029C75.2519 36.114 74.1656 36.4148 73.6787 37.2671L72.1055 40.0246L68.7593 38.5331L67.2735 36.0514C66.774 35.2116 65.6753 34.9359 64.8387 35.4372C64.0022 35.9386 63.7275 37.029 64.2269 37.8813L65.9999 40.8518C66.1872 41.1652 66.4619 41.4158 66.799 41.5662L71.0567 43.4714V46.0784L67.2735 45.3138C66.3121 45.1258 65.3756 45.74 65.1883 46.7051C65.0011 47.6702 65.6129 48.6102 66.5743 48.7982L72.1804 49.9263L76.5379 52.5834C74.2281 54.6891 71.6185 56.5817 68.7468 58.1735L67.2735 55.6417C67.0987 55.3409 66.849 55.1027 66.5368 54.9523L62.9908 53.1725C62.1168 52.7338 61.0555 53.0848 60.6185 53.9622C60.1815 54.8395 60.5311 55.9049 61.4051 56.3436L64.4767 57.8852L65.5754 59.7904C59.1577 62.7609 51.7661 64.4279 44.0499 64.4404H43.9625C34.1236 64.4404 24.8092 61.7331 17.3552 57.0956L18.9159 54.6515L23.3983 54.1502C24.3722 54.0374 25.0714 53.16 24.9591 52.1824C24.8467 51.2047 23.9727 50.5028 22.9988 50.6156L19.328 51.0292L18.6038 47.056L20.9012 44.7498C21.5879 44.0605 21.5879 42.9324 20.9012 42.2305C20.2145 41.5412 19.0907 41.5412 18.3915 42.2305L15.4324 45.201C15.0204 45.6146 14.8331 46.2037 14.9454 46.7803L16.0067 52.6085L14.4086 55.0902C9.78881 51.6434 6.06803 47.3694 3.68324 42.4937C4.25759 41.3281 4.93183 40.2 5.64352 39.1096L8.66508 41.0649L9.66395 44.5743C9.88869 45.3514 10.6004 45.8653 11.362 45.8653C11.5243 45.8653 11.6866 45.8403 11.849 45.8027C12.7854 45.5269 13.3348 44.5493 13.0601 43.6092L12.4483 41.4534L15.1202 41.115C16.0941 40.9897 16.7809 40.0998 16.656 39.1347C16.5311 38.157 15.6447 37.4677 14.6832 37.593L10.6004 38.1069L7.74113 36.2644C10.026 33.4819 12.7854 31.0002 15.9193 28.8695L16.6685 29.8722V34.0209C16.6685 34.3468 16.7559 34.6601 16.9182 34.9359L18.6912 37.9064C19.0283 38.4579 19.6151 38.7712 20.2145 38.7712C20.5266 38.7712 20.8387 38.6835 21.1259 38.5205C21.9625 38.0192 22.2372 36.9287 21.7377 36.0764L20.2145 33.5321V31.5016L23.3734 32.2035C23.4982 32.2286 23.6356 32.2411 23.7604 32.2411C24.572 32.2411 25.3087 31.6771 25.4835 30.8498C25.6957 29.8847 25.0964 28.9447 24.135 28.7316L19.4528 27.6913L18.9284 26.9894C26.0703 22.941 34.723 20.5972 43.8376 20.5847H43.925C52.0158 20.5847 59.7445 22.4271 66.3745 25.6483L65.2383 26.6886L60.2939 25.1971C59.3575 24.9088 58.3711 25.4478 58.0839 26.3878C57.7967 27.3278 58.3336 28.318 59.2701 28.6063L63.4278 29.8597L62.8285 31.6771C62.5164 32.6046 63.0158 33.6198 63.9523 33.9332C64.1395 33.9958 64.3268 34.0209 64.5141 34.0209C65.2508 34.0209 65.95 33.5446 66.1997 32.8051L67.236 29.6842L69.6832 27.4281C76.0635 31.2133 81.1827 36.3772 84.1917 42.5188C82.8683 45.2136 81.1202 47.7203 79.0601 50.014L79.135 49.9889Z" fill="white"/>
</g>
<g filter="url(#filter0_d_293_2536)">
<path d="M134.664 52.088L142.472 31.96H148.904L156.648 52.184H159.368L173.704 31.96H177.16L161.128 55H154.536L146.696 34.776H144.68L136.744 55H130.312L114.28 31.96H117.672L132.008 52.088H134.664ZM185.477 31.96H188.421V55H185.477V31.96ZM234.534 31.96V34.904H216.39V55H213.446V34.904H195.494V31.96H234.534ZM275.767 42.072V31.96H278.711V55H275.767V45.016H243.575V55H240.631V31.96H243.575V42.072H275.767ZM348.109 31.96V38.008H327.437V55H321.389V38.008H300.781V31.96H348.109ZM395.192 40.536V31.96H401.24V55H395.192V46.584H360.248V55H354.2V31.96H360.248V40.536H395.192ZM455.641 55H448.697L446.265 51.064H415.609L413.241 55H406.297L419.929 31.96H441.977L455.641 55ZM423.449 38.008L419.129 45.016H442.841L438.457 38.008H423.449ZM501.655 48.728V31.96H507.703V55H500.055L466.711 38.264V55H460.663V31.96H468.311L501.655 48.728ZM552.225 31.96H563.329L545.569 43.512L563.329 55H552.193L539.169 46.52H520.481V55H514.433V31.96H520.481V40.472H539.169L552.225 31.96ZM609.103 39.992C609.103 39.4373 608.858 38.968 608.367 38.584C607.876 38.1787 607.119 37.976 606.095 37.976L575.279 38.008C574.746 38.008 574.266 38.136 573.839 38.392C573.434 38.648 573.231 39.0213 573.231 39.512C573.231 39.9387 573.423 40.2587 573.807 40.472C574.191 40.6853 574.703 40.792 575.343 40.792L607.887 40.76C608.911 40.76 609.86 40.9307 610.735 41.272C611.61 41.592 612.378 42.0613 613.039 42.68C613.7 43.2773 614.212 44.0133 614.575 44.888C614.959 45.7627 615.151 46.7333 615.151 47.8C615.151 48.7813 614.959 49.7093 614.575 50.584C614.212 51.4587 613.7 52.2267 613.039 52.888C612.399 53.528 611.642 54.04 610.767 54.424C609.914 54.7867 608.986 54.968 607.983 54.968L574.831 55C573.722 55 572.708 54.7653 571.791 54.296C570.895 53.8053 570.116 53.176 569.455 52.408C568.794 51.64 568.282 50.776 567.919 49.816C567.556 48.856 567.375 47.896 567.375 46.936H573.423C573.423 47.4907 573.658 47.9707 574.127 48.376C574.596 48.76 575.375 48.952 576.463 48.952L606.863 48.92C607.439 48.92 607.972 48.8027 608.463 48.568C608.954 48.312 609.199 47.9493 609.199 47.48C609.199 47.0107 608.975 46.7013 608.527 46.552C608.1 46.3813 607.546 46.296 606.863 46.296L574.671 46.328C573.69 46.328 572.751 46.1573 571.855 45.816C570.98 45.4747 570.202 44.9947 569.519 44.376C568.858 43.736 568.335 42.9787 567.951 42.104C567.567 41.208 567.375 40.216 567.375 39.128C567.375 38.1253 567.556 37.1973 567.919 36.344C568.303 35.4693 568.815 34.712 569.455 34.072C570.116 33.4107 570.884 32.8987 571.759 32.536C572.634 32.152 573.562 31.96 574.543 31.96L607.695 31.928C608.804 31.928 609.818 32.1733 610.735 32.664C611.652 33.1333 612.431 33.752 613.071 34.52C613.732 35.288 614.244 36.152 614.607 37.112C614.97 38.072 615.151 39.032 615.151 39.992H609.103ZM676.252 31.96V34.904H658.108V55H655.164V34.904H637.212V31.96H676.252ZM713.47 55H688.83C687.848 55 686.92 54.8187 686.046 54.456C685.192 54.072 684.435 53.56 683.774 52.92C683.134 52.2587 682.622 51.5013 682.238 50.648C681.875 49.7733 681.694 48.8453 681.694 47.864V39.096C681.694 38.1147 681.875 37.1973 682.238 36.344C682.622 35.4693 683.134 34.712 683.774 34.072C684.435 33.4107 685.192 32.8987 686.046 32.536C686.92 32.152 687.848 31.96 688.83 31.96H713.47C714.451 31.96 715.368 32.152 716.222 32.536C717.096 32.8987 717.854 33.4107 718.494 34.072C719.155 34.712 719.667 35.4693 720.03 36.344C720.414 37.1973 720.606 38.1147 720.606 39.096V47.864C720.606 48.8453 720.414 49.7733 720.03 50.648C719.667 51.5013 719.155 52.2587 718.494 52.92C717.854 53.56 717.096 54.072 716.222 54.456C715.368 54.8187 714.451 55 713.47 55ZM717.662 46.68V40.312C717.662 39.608 717.534 38.936 717.278 38.296C717.043 37.6347 716.691 37.0587 716.222 36.568C715.774 36.056 715.23 35.6507 714.59 35.352C713.95 35.0533 713.235 34.904 712.446 34.904H690.174C689.384 34.904 688.648 35.0427 687.966 35.32C687.283 35.576 686.696 35.9387 686.206 36.408C685.715 36.8773 685.331 37.4427 685.054 38.104C684.776 38.744 684.638 39.4587 684.638 40.248V46.776C684.638 47.48 684.766 48.152 685.022 48.792C685.278 49.432 685.63 49.9973 686.078 50.488C686.547 50.9573 687.112 51.3413 687.774 51.64C688.435 51.9173 689.171 52.056 689.982 52.056H712.222C713.054 52.056 713.8 51.9173 714.462 51.64C715.144 51.3413 715.72 50.9467 716.19 50.456C716.659 49.9653 717.022 49.4 717.278 48.76C717.534 48.0987 717.662 47.4053 717.662 46.68Z" fill="#DBDBDB"/>
</g>
<defs>
<filter id="filter0_d_293_2536" x="83.28" y="0.927979" width="668.326" height="85.072" filterUnits="userSpaceOnUse" color-interpolation-filters="sRGB">
<feFlood flood-opacity="0" result="BackgroundImageFix"/>
<feColorMatrix in="SourceAlpha" type="matrix" values="0 0 0 0 0 0 0 0 0 0 0 0 0 0 0 0 0 0 127 0" result="hardAlpha"/>
<feOffset/>
<feGaussianBlur stdDeviation="15.5"/>
<feComposite in2="hardAlpha" operator="out"/>
<feColorMatrix type="matrix" values="0 0 0 0 0.225 0 0 0 0 0.225 0 0 0 0 0.225 0 0 0 1 0"/>
<feBlend mode="normal" in2="BackgroundImageFix" result="effect1_dropShadow_293_2536"/>
<feBlend mode="normal" in="SourceGraphic" in2="effect1_dropShadow_293_2536" result="shape"/>
</filter>
<clipPath id="clip0_293_2536">
<rect width="88" height="51" fill="white" transform="translate(0 17)"/>
</clipPath>
</defs>
</svg>
