<svg width="495" height="124" viewBox="0 0 495 124" fill="none" xmlns="http://www.w3.org/2000/svg">
<g clip-path="url(#clip0_768_2668)">
<path d="M42.5781 48.0551C51.5056 48.0551 60.4251 50.1526 67.6923 53.9624C74.9197 57.7522 80.3473 63.0874 83.4721 69.4515C80.2834 75.6607 74.8599 80.8489 67.7003 84.5077C60.5208 88.1784 51.7131 90.2004 42.8934 90.2004C34.0736 90.2004 25.5293 88.2221 18.5533 84.4759C11.5813 80.7337 6.39726 75.323 3.48794 68.7722C6.69657 62.3843 11.9884 57.1365 18.8646 53.5413C25.7248 49.954 33.922 48.0551 42.5701 48.0551M42.5701 44.877C24.8708 44.877 7.28322 52.5402 -0.00402832 68.6848C6.52097 85.3261 24.6154 93.3746 42.8934 93.3746C61.1713 93.3746 79.8484 85.2267 86.996 69.4793C80.036 53.3983 61.2432 44.873 42.5701 44.873V44.877Z" fill="white"/>
<path d="M43.4997 40.0822C42.6177 40.0822 41.9033 39.3711 41.9033 38.4932V24.589C41.9033 23.7111 42.6177 23 43.4997 23C44.3816 23 45.096 23.7111 45.096 24.589V38.4932C45.096 39.3711 44.3816 40.0822 43.4997 40.0822Z" fill="#FF5C9D"/>
<path d="M32.3257 40.8766C31.4437 40.8766 30.7294 40.1655 30.7294 39.2876V29.7533C30.7294 28.8754 31.4437 28.1643 32.3257 28.1643C33.2077 28.1643 33.922 28.8754 33.922 29.7533V39.2876C33.922 40.1655 33.2077 40.8766 32.3257 40.8766Z" fill="#FF5C9D"/>
<path d="M21.5504 45.7233C20.6685 45.7233 19.9541 45.0122 19.9541 44.1343V35.7123C19.9541 34.8344 20.6685 34.1233 21.5504 34.1233C22.4324 34.1233 23.1468 34.8344 23.1468 35.7123V44.1343C23.1468 45.0122 22.4324 45.7233 21.5504 45.7233Z" fill="#FF5C9D"/>
<path d="M11.5739 52.4646C10.6919 52.4646 9.97754 51.7535 9.97754 50.8755V44.4518C9.97754 43.5739 10.6919 42.8628 11.5739 42.8628C12.4558 42.8628 13.1702 43.5739 13.1702 44.4518V50.8755C13.1702 51.7535 12.4558 52.4646 11.5739 52.4646Z" fill="#FF5C9D"/>
<path d="M53.8766 40.8769C52.9946 40.8769 52.2803 40.1658 52.2803 39.2878V29.7536C52.2803 28.8756 52.9946 28.1646 53.8766 28.1646C54.7586 28.1646 55.4729 28.8756 55.4729 29.7536V39.2878C55.4729 40.1658 54.7586 40.8769 53.8766 40.8769Z" fill="#FF5C9D"/>
<path d="M43.4997 110C42.6177 110 41.9033 109.289 41.9033 108.411V98.8766C41.9033 97.9987 42.6177 97.2876 43.4997 97.2876C44.3816 97.2876 45.096 97.9987 45.096 98.8766V108.411C45.096 109.289 44.3816 110 43.4997 110Z" fill="#FF5C9D"/>
<path d="M32.3257 104.836C31.4437 104.836 30.7294 104.125 30.7294 103.247V98.0822C30.7294 97.2043 31.4437 96.4932 32.3257 96.4932C33.2077 96.4932 33.922 97.2043 33.922 98.0822V103.247C33.922 104.125 33.2077 104.836 32.3257 104.836Z" fill="#FF5C9D"/>
<path d="M53.8766 104.836C52.9946 104.836 52.2803 104.125 52.2803 103.247V98.0822C52.2803 97.2043 52.9946 96.4932 53.8766 96.4932C54.7586 96.4932 55.4729 97.2043 55.4729 98.0822V103.247C55.4729 104.125 54.7586 104.836 53.8766 104.836Z" fill="#FF5C9D"/>
<path d="M65.0504 45.7233C64.1685 45.7233 63.4541 45.0122 63.4541 44.1343V35.7123C63.4541 34.8344 64.1685 34.1233 65.0504 34.1233C65.9324 34.1233 66.6468 34.8344 66.6468 35.7123V44.1343C66.6468 45.0122 65.9324 45.7233 65.0504 45.7233Z" fill="#FF5C9D"/>
<path d="M75.028 52.4646C74.146 52.4646 73.4316 51.7535 73.4316 50.8755V44.4518C73.4316 43.5739 74.146 42.8628 75.028 42.8628C75.9099 42.8628 76.6243 43.5739 76.6243 44.4518V50.8755C76.6243 51.7535 75.9099 52.4646 75.028 52.4646Z" fill="#FF5C9D"/>
<path d="M2.7936 58.3562C1.91162 58.3562 1.19727 57.6451 1.19727 56.7672V54.2009C1.19727 53.3229 1.91162 52.6118 2.7936 52.6118C3.67557 52.6118 4.38993 53.3229 4.38993 54.2009V56.7672C4.38993 57.6451 3.67557 58.3562 2.7936 58.3562Z" fill="#FF5C9D"/>
<path d="M84.5661 58.1418C83.6841 58.1418 82.9697 57.4307 82.9697 56.5528V53.9865C82.9697 53.1086 83.6841 52.3975 84.5661 52.3975C85.448 52.3975 86.1624 53.1086 86.1624 53.9865V56.5528C86.1624 57.4307 85.448 58.1418 84.5661 58.1418Z" fill="#FF5C9D"/>
<path d="M29.3329 82.7321C36.5337 82.7321 42.371 77.1544 42.371 70.274C42.371 63.3936 36.5337 57.8159 29.3329 57.8159C22.1322 57.8159 16.2949 63.3936 16.2949 70.274C16.2949 77.1544 22.1322 82.7321 29.3329 82.7321Z" fill="white"/>
<path d="M27.3691 75.6489C30.0625 75.6489 32.2459 72.9917 32.2459 69.7139C32.2459 66.436 30.0625 63.7788 27.3691 63.7788C24.6757 63.7788 22.4923 66.436 22.4923 69.7139C22.4923 72.9917 24.6757 75.6489 27.3691 75.6489Z" fill="#FF5C9D"/>
</g>
<g filter="url(#filter0_d_768_2668)">
<path d="M151.144 40.664C151.144 39.896 151.016 39.16 150.76 38.456C150.504 37.752 150.141 37.144 149.672 36.632C149.203 36.0987 148.637 35.6827 147.976 35.384C147.315 35.064 146.589 34.904 145.8 34.904H123.016C122.248 34.904 121.533 35.032 120.872 35.288C120.211 35.544 119.624 35.9173 119.112 36.408C118.621 36.8773 118.237 37.4533 117.96 38.136C117.683 38.8187 117.544 39.5973 117.544 40.472V46.744C117.544 47.5547 117.683 48.2907 117.96 48.952C118.259 49.592 118.653 50.1467 119.144 50.616C119.635 51.0853 120.211 51.448 120.872 51.704C121.555 51.9387 122.291 52.056 123.08 52.056H145.8C146.397 52.056 147.005 51.928 147.624 51.672C148.264 51.3947 148.84 51 149.352 50.488C149.885 49.976 150.312 49.3573 150.632 48.632C150.973 47.8853 151.144 47.0533 151.144 46.136H154.088V46.776C154.088 47.7787 153.907 48.7707 153.544 49.752C153.181 50.7333 152.669 51.6187 152.008 52.408C151.368 53.176 150.589 53.8053 149.672 54.296C148.755 54.7653 147.741 55 146.632 55H121.768C120.787 55 119.859 54.8187 118.984 54.456C118.109 54.072 117.341 53.56 116.68 52.92C116.04 52.2587 115.528 51.4907 115.144 50.616C114.781 49.7413 114.6 48.8133 114.6 47.832V39.128C114.6 38.1253 114.781 37.1973 115.144 36.344C115.528 35.4693 116.04 34.712 116.68 34.072C117.341 33.4107 118.109 32.8987 118.984 32.536C119.859 32.152 120.787 31.96 121.768 31.96H146.632C147.741 31.96 148.755 32.2053 149.672 32.696C150.589 33.1653 151.368 33.784 152.008 34.552C152.669 35.32 153.181 36.184 153.544 37.144C153.907 38.104 154.088 39.064 154.088 40.024V40.664H151.144ZM198.959 31.992V47.832C198.959 48.8133 198.767 49.7413 198.383 50.616C198.02 51.4907 197.508 52.2587 196.847 52.92C196.207 53.56 195.45 54.072 194.575 54.456C193.722 54.8187 192.794 55 191.791 55H167.343C166.362 55 165.434 54.8187 164.559 54.456C163.684 54.072 162.916 53.56 162.255 52.92C161.615 52.2587 161.103 51.4907 160.719 50.616C160.356 49.7413 160.175 48.8133 160.175 47.832V31.992H163.119V46.776C163.119 47.5867 163.268 48.3227 163.567 48.984C163.866 49.624 164.26 50.1787 164.751 50.648C165.263 51.096 165.839 51.448 166.479 51.704C167.119 51.9387 167.791 52.056 168.495 52.056H190.575C191.322 52.056 192.026 51.9387 192.687 51.704C193.348 51.448 193.924 51.0853 194.415 50.616C194.906 50.1467 195.29 49.592 195.567 48.952C195.866 48.2907 196.015 47.5653 196.015 46.776V31.992H198.959ZM243.463 55H239.815L235.239 48.344H207.975V55H205.031V31.96H236.679C237.682 31.96 238.61 32.1413 239.463 32.504C240.338 32.8667 241.095 33.3467 241.735 33.944C242.397 34.5413 242.909 35.2347 243.271 36.024C243.655 36.792 243.847 37.5813 243.847 38.392V41.752C243.847 42.4347 243.698 43.128 243.399 43.832C243.122 44.536 242.738 45.1867 242.247 45.784C241.778 46.3813 241.223 46.8933 240.583 47.32C239.965 47.7253 239.325 47.992 238.663 48.12L243.463 55ZM240.871 40.984V39.16C240.871 38.584 240.743 38.04 240.487 37.528C240.253 37.016 239.911 36.568 239.463 36.184C239.015 35.7787 238.482 35.4693 237.863 35.256C237.266 35.0213 236.605 34.904 235.879 34.904H207.975V45.4H235.879C236.797 45.4 237.565 45.2613 238.183 44.984C238.823 44.7067 239.335 44.3547 239.719 43.928C240.125 43.5013 240.413 43.032 240.583 42.52C240.775 41.9867 240.871 41.4747 240.871 40.984ZM290.99 55H287.534L283.662 49.528H255.886L251.982 55H248.59L264.27 31.96H275.278L290.99 55ZM265.966 34.904L257.678 46.584H281.934L273.582 34.904H265.966ZM327.534 31.96V34.904H309.39V55H306.446V34.904H288.494V31.96H327.534ZM335.871 31.96H338.815V55H335.871V31.96ZM382.944 51.672V31.96H385.887V55H382.239L350.431 35.224V55H347.487V31.96H351.231L382.944 51.672ZM431.521 37.112C430.987 36.6427 430.379 36.2693 429.697 35.992C429.014 35.6933 428.278 35.4693 427.489 35.32C426.699 35.1493 425.857 35.0427 424.961 35C424.086 34.936 423.19 34.904 422.273 34.904H400.385C399.595 34.904 398.859 35.0427 398.177 35.32C397.515 35.5973 396.939 35.9813 396.449 36.472C395.958 36.9413 395.574 37.5067 395.297 38.168C395.041 38.8293 394.913 39.5333 394.913 40.28V46.776C394.913 47.48 395.051 48.152 395.329 48.792C395.606 49.432 395.979 49.9973 396.449 50.488C396.939 50.9573 397.515 51.3413 398.177 51.64C398.838 51.9173 399.553 52.056 400.321 52.056H421.953C422.657 52.056 423.318 51.8853 423.937 51.544C424.577 51.2027 425.131 50.776 425.601 50.264C426.091 49.7307 426.497 49.144 426.817 48.504C427.137 47.8427 427.339 47.192 427.425 46.552C427.531 45.848 427.542 45.3787 427.457 45.144C427.371 44.9093 427.243 44.792 427.073 44.792H416.545V41.848H427.457C428.715 41.848 429.611 42.0933 430.145 42.584C430.678 43.0747 430.955 43.7893 430.977 44.728L431.521 55.064L428.577 55L428.417 46.424H428.001C428.001 47.704 427.755 48.8773 427.265 49.944C426.795 50.9893 426.187 51.8853 425.441 52.632C424.715 53.3787 423.905 53.9653 423.009 54.392C422.134 54.7973 421.291 55 420.481 55H399.137C398.155 55 397.227 54.8187 396.353 54.456C395.478 54.072 394.71 53.56 394.049 52.92C393.409 52.2587 392.897 51.4907 392.513 50.616C392.15 49.7413 391.969 48.8133 391.969 47.832V39.128C391.969 38.1253 392.15 37.1973 392.513 36.344C392.897 35.4693 393.409 34.712 394.049 34.072C394.71 33.4107 395.478 32.8987 396.353 32.536C397.227 32.152 398.155 31.96 399.137 31.96H424.065C425.451 31.96 426.795 32.1307 428.097 32.472C429.419 32.792 430.561 33.3253 431.521 34.072V37.112Z" fill="#DBDBDB"/>
</g>
<g filter="url(#filter1_d_768_2668)">
<path d="M146.376 88.36H121.416V93H114.6V69.96H146.376C147.379 69.96 148.307 70.152 149.16 70.536C150.035 70.8987 150.792 71.4107 151.432 72.072C152.093 72.712 152.605 73.4693 152.968 74.344C153.352 75.1973 153.544 76.1253 153.544 77.128V81.192C153.544 82.1733 153.352 83.1013 152.968 83.976C152.605 84.8507 152.093 85.6187 151.432 86.28C150.792 86.92 150.035 87.432 149.16 87.816C148.307 88.1787 147.379 88.36 146.376 88.36ZM146.728 79.24V79.144C146.728 78.248 146.515 77.6293 146.088 77.288C145.661 76.9467 144.957 76.776 143.976 76.776H121.416V81.544H143.976C144.936 81.544 145.629 81.3947 146.056 81.096C146.504 80.7973 146.728 80.1787 146.728 79.24ZM196.5 93H188.66L186.612 89.448H164.148L162.164 93H154.324L167.444 69.96H183.348L196.5 93ZM171.412 76.776L168.084 82.632H182.74L179.38 76.776H171.412ZM240.057 93H231.737L227.161 86.344H208.441V93H201.625V69.96H233.273C234.276 69.96 235.204 70.1413 236.057 70.504C236.932 70.8667 237.689 71.3467 238.329 71.944C238.99 72.5413 239.502 73.2347 239.865 74.024C240.249 74.792 240.441 75.5813 240.441 76.392V79.752C240.441 80.4347 240.292 81.128 239.993 81.832C239.716 82.536 239.332 83.1867 238.841 83.784C238.372 84.3813 237.817 84.8933 237.177 85.32C236.558 85.7253 235.918 85.992 235.257 86.12L240.057 93ZM233.625 78.152V78.056C233.625 77.7147 233.476 77.416 233.177 77.16C232.878 76.904 232.441 76.776 231.865 76.776H208.441V79.528H231.865C232.441 79.528 232.878 79.4 233.177 79.144C233.476 78.888 233.625 78.5573 233.625 78.152ZM284.928 69.96V76.776H268.768V93H261.952V76.776H245.888V69.96H284.928ZM322.609 85.48V69.96H329.425V93H320.785L297.841 77.544V93H291.025V69.96H299.633L322.609 85.48ZM335.819 69.96H373.675V76.776H342.635V78.088H372.907V84.872H342.635V86.184H373.675V93H335.819V69.96ZM418.201 93H409.881L405.305 86.344H386.585V93H379.769V69.96H411.417C412.419 69.96 413.347 70.1413 414.201 70.504C415.075 70.8667 415.833 71.3467 416.473 71.944C417.134 72.5413 417.646 73.2347 418.009 74.024C418.393 74.792 418.585 75.5813 418.585 76.392V79.752C418.585 80.4347 418.435 81.128 418.137 81.832C417.859 82.536 417.475 83.1867 416.985 83.784C416.515 84.3813 415.961 84.8933 415.321 85.32C414.702 85.7253 414.062 85.992 413.401 86.12L418.201 93ZM411.769 78.152V78.056C411.769 77.7147 411.619 77.416 411.321 77.16C411.022 76.904 410.585 76.776 410.009 76.776H386.585V79.528H410.009C410.585 79.528 411.022 79.4 411.321 79.144C411.619 78.888 411.769 78.5573 411.769 78.152ZM456.767 78.024C456.767 77.576 456.565 77.256 456.159 77.064C455.775 76.872 455.167 76.776 454.335 76.776H431.967C431.626 76.776 431.317 76.84 431.039 76.968C430.762 77.096 430.623 77.2987 430.623 77.576C430.623 77.8533 430.762 78.0667 431.039 78.216C431.317 78.3653 431.626 78.44 431.967 78.44H456.319C457.343 78.44 458.293 78.6213 459.167 78.984C460.042 79.3467 460.81 79.8587 461.471 80.52C462.133 81.1813 462.645 81.9707 463.007 82.888C463.391 83.784 463.583 84.7653 463.583 85.832C463.583 86.8133 463.391 87.7413 463.007 88.616C462.645 89.4907 462.133 90.2587 461.471 90.92C460.831 91.56 460.074 92.072 459.199 92.456C458.346 92.8187 457.418 93 456.415 93H431.487C430.378 93 429.365 92.7653 428.447 92.296C427.551 91.8053 426.773 91.176 426.111 90.408C425.45 89.64 424.938 88.776 424.575 87.816C424.213 86.856 424.031 85.896 424.031 84.936H430.847C430.847 85.384 431.039 85.704 431.423 85.896C431.829 86.088 432.447 86.184 433.279 86.184H455.199C455.37 86.184 455.551 86.1733 455.743 86.152C455.935 86.1307 456.117 86.0987 456.287 86.056C456.458 86.0133 456.597 85.9387 456.703 85.832C456.831 85.7253 456.895 85.5973 456.895 85.448C456.895 85.1493 456.714 84.9467 456.351 84.84C456.01 84.7333 455.626 84.68 455.199 84.68H431.199C430.218 84.68 429.29 84.488 428.415 84.104C427.541 83.72 426.773 83.1973 426.111 82.536C425.471 81.8533 424.959 81.0533 424.575 80.136C424.213 79.2187 424.031 78.216 424.031 77.128C424.031 76.1253 424.213 75.1973 424.575 74.344C424.959 73.4693 425.471 72.712 426.111 72.072C426.773 71.4107 427.541 70.8987 428.415 70.536C429.29 70.152 430.218 69.96 431.199 69.96H456.127C457.237 69.96 458.25 70.2053 459.167 70.696C460.085 71.1653 460.863 71.784 461.503 72.552C462.165 73.32 462.677 74.184 463.039 75.144C463.402 76.104 463.583 77.064 463.583 78.024H456.767Z" fill="#DBDBDB"/>
</g>
<defs>
<filter id="filter0_d_768_2668" x="83.6" y="0.959961" width="378.921" height="85.104" filterUnits="userSpaceOnUse" color-interpolation-filters="sRGB">
<feFlood flood-opacity="0" result="BackgroundImageFix"/>
<feColorMatrix in="SourceAlpha" type="matrix" values="0 0 0 0 0 0 0 0 0 0 0 0 0 0 0 0 0 0 127 0" result="hardAlpha"/>
<feOffset/>
<feGaussianBlur stdDeviation="15.5"/>
<feComposite in2="hardAlpha" operator="out"/>
<feColorMatrix type="matrix" values="0 0 0 0 0 0 0 0 0 0 0 0 0 0 0 0 0 0 1 0"/>
<feBlend mode="normal" in2="BackgroundImageFix" result="effect1_dropShadow_768_2668"/>
<feBlend mode="normal" in="SourceGraphic" in2="effect1_dropShadow_768_2668" result="shape"/>
</filter>
<filter id="filter1_d_768_2668" x="83.6" y="38.96" width="410.983" height="85.04" filterUnits="userSpaceOnUse" color-interpolation-filters="sRGB">
<feFlood flood-opacity="0" result="BackgroundImageFix"/>
<feColorMatrix in="SourceAlpha" type="matrix" values="0 0 0 0 0 0 0 0 0 0 0 0 0 0 0 0 0 0 127 0" result="hardAlpha"/>
<feOffset/>
<feGaussianBlur stdDeviation="15.5"/>
<feComposite in2="hardAlpha" operator="out"/>
<feColorMatrix type="matrix" values="0 0 0 0 0 0 0 0 0 0 0 0 0 0 0 0 0 0 1 0"/>
<feBlend mode="normal" in2="BackgroundImageFix" result="effect1_dropShadow_768_2668"/>
<feBlend mode="normal" in="SourceGraphic" in2="effect1_dropShadow_768_2668" result="shape"/>
</filter>
<clipPath id="clip0_768_2668">
<rect width="87" height="87" fill="white" transform="translate(0 23)"/>
</clipPath>
</defs>
</svg>
