<svg width="621" height="23" viewBox="0 0 621 23" fill="none" xmlns="http://www.w3.org/2000/svg">
<path d="M322.146 15.3083H320.092V17.3639H322.146V15.3083Z" fill="#DBDBDB"/>
<path d="M322.146 9.14136H320.092V11.197H322.146V9.14136Z" fill="#DBDBDB"/>
<path d="M322.146 0.913574H320.092V2.96922H322.146V0.913574Z" fill="#DBDBDB"/>
<path d="M324.2 15.3083H322.146V17.3639H324.2V15.3083Z" fill="#DBDBDB"/>
<path d="M324.2 11.197H322.146V13.2526H324.2V11.197Z" fill="#DBDBDB"/>
<path d="M326.254 15.3083H324.2V17.3639H326.254V15.3083Z" fill="#DBDBDB"/>
<path d="M326.254 9.14136H324.2V11.197H326.254V9.14136Z" fill="#DBDBDB"/>
<path d="M328.308 15.3083H326.254V17.3639H328.308V15.3083Z" fill="#DBDBDB"/>
<path d="M328.308 11.197H326.254V13.2526H328.308V11.197Z" fill="#DBDBDB"/>
<path d="M330.362 15.3083H328.308V17.3639H330.362V15.3083Z" fill="#DBDBDB"/>
<path d="M330.362 9.14136H328.308V11.197H330.362V9.14136Z" fill="#DBDBDB"/>
<path d="M332.416 15.3083H330.362V17.3639H332.416V15.3083Z" fill="#DBDBDB"/>
<path d="M332.416 11.197H330.362V13.2526H332.416V11.197Z" fill="#DBDBDB"/>
<path d="M324.2 5.02484H322.146V7.08047H324.2V5.02484Z" fill="#DBDBDB"/>
<path d="M324.2 0.913574H322.146V2.96922H324.2V0.913574Z" fill="#DBDBDB"/>
<path d="M326.254 0.913574H324.2V2.96922H326.254V0.913574Z" fill="#DBDBDB"/>
<path d="M328.308 5.02484H326.254V7.08047H328.308V5.02484Z" fill="#DBDBDB"/>
<path d="M328.308 0.913574H326.254V2.96922H328.308V0.913574Z" fill="#DBDBDB"/>
<path d="M330.362 0.913574H328.308V2.96922H330.362V0.913574Z" fill="#DBDBDB"/>
<path d="M332.416 5.02484H330.362V7.08047H332.416V5.02484Z" fill="#DBDBDB"/>
<path d="M332.416 0.913574H330.362V2.96922H332.416V0.913574Z" fill="#DBDBDB"/>
<path d="M334.47 15.3083H332.416V17.3639H334.47V15.3083Z" fill="#DBDBDB"/>
<path d="M336.529 15.3083H334.475V17.3639H336.529V15.3083Z" fill="#DBDBDB"/>
<path d="M336.529 11.197H334.475V13.2526H336.529V11.197Z" fill="#DBDBDB"/>
<path d="M336.529 9.14136H334.475V11.197H336.529V9.14136Z" fill="#DBDBDB"/>
<path d="M338.583 15.3083H336.529V17.3639H338.583V15.3083Z" fill="#DBDBDB"/>
<path d="M338.583 11.197H336.529V13.2526H338.583V11.197Z" fill="#DBDBDB"/>
<path d="M340.637 15.3083H338.583V17.3639H340.637V15.3083Z" fill="#DBDBDB"/>
<path d="M340.637 11.197H338.583V13.2526H340.637V11.197Z" fill="#DBDBDB"/>
<path d="M342.691 15.3083H340.637V17.3639H342.691V15.3083Z" fill="#DBDBDB"/>
<path d="M342.691 11.197H340.637V13.2526H342.691V11.197Z" fill="#DBDBDB"/>
<path d="M344.745 15.3083H342.691V17.3639H344.745V15.3083Z" fill="#DBDBDB"/>
<path d="M344.745 11.197H342.691V13.2526H344.745V11.197Z" fill="#DBDBDB"/>
<path d="M346.799 15.3083H344.745V17.3639H346.799V15.3083Z" fill="#DBDBDB"/>
<path d="M346.799 11.197H344.745V13.2526H346.799V11.197Z" fill="#DBDBDB"/>
<path d="M346.799 9.14136H344.745V11.197H346.799V9.14136Z" fill="#DBDBDB"/>
<path d="M348.853 15.3083H346.799V17.3639H348.853V15.3083Z" fill="#DBDBDB"/>
<path d="M334.47 0.913574H332.416V2.96922H334.47V0.913574Z" fill="#DBDBDB"/>
<path d="M336.529 7.08051H334.475V9.13615H336.529V7.08051Z" fill="#DBDBDB"/>
<path d="M336.529 5.02484H334.475V7.08047H336.529V5.02484Z" fill="#DBDBDB"/>
<path d="M336.529 2.96924H334.475V5.02488H336.529V2.96924Z" fill="#DBDBDB"/>
<path d="M336.529 0.913574H334.475V2.96922H336.529V0.913574Z" fill="#DBDBDB"/>
<path d="M340.637 7.08051H338.583V9.13615H340.637V7.08051Z" fill="#DBDBDB"/>
<path d="M340.637 5.02484H338.583V7.08047H340.637V5.02484Z" fill="#DBDBDB"/>
<path d="M340.637 2.96924H338.583V5.02488H340.637V2.96924Z" fill="#DBDBDB"/>
<path d="M340.637 0.913574H338.583V2.96922H340.637V0.913574Z" fill="#DBDBDB"/>
<path d="M342.691 7.08051H340.637V9.13615H342.691V7.08051Z" fill="#DBDBDB"/>
<path d="M342.691 5.02484H340.637V7.08047H342.691V5.02484Z" fill="#DBDBDB"/>
<path d="M342.691 2.96924H340.637V5.02488H342.691V2.96924Z" fill="#DBDBDB"/>
<path d="M342.691 0.913574H340.637V2.96922H342.691V0.913574Z" fill="#DBDBDB"/>
<path d="M346.799 7.08051H344.745V9.13615H346.799V7.08051Z" fill="#DBDBDB"/>
<path d="M346.799 5.02484H344.745V7.08047H346.799V5.02484Z" fill="#DBDBDB"/>
<path d="M346.799 2.96924H344.745V5.02488H346.799V2.96924Z" fill="#DBDBDB"/>
<path d="M346.799 0.913574H344.745V2.96922H346.799V0.913574Z" fill="#DBDBDB"/>
<path d="M348.853 0.913574H346.799V2.96922H348.853V0.913574Z" fill="#DBDBDB"/>
<path d="M350.907 15.3083H348.853V17.3639H350.907V15.3083Z" fill="#DBDBDB"/>
<path d="M352.961 15.3083H350.907V17.3639H352.961V15.3083Z" fill="#DBDBDB"/>
<path d="M352.961 11.197H350.907V13.2526H352.961V11.197Z" fill="#DBDBDB"/>
<path d="M355.015 15.3083H352.961V17.3639H355.015V15.3083Z" fill="#DBDBDB"/>
<path d="M355.015 11.197H352.961V13.2526H355.015V11.197Z" fill="#DBDBDB"/>
<path d="M357.074 15.3083H355.02V17.3639H357.074V15.3083Z" fill="#DBDBDB"/>
<path d="M357.074 11.197H355.02V13.2526H357.074V11.197Z" fill="#DBDBDB"/>
<path d="M359.128 15.3083H357.074V17.3639H359.128V15.3083Z" fill="#DBDBDB"/>
<path d="M359.128 11.197H357.074V13.2526H359.128V11.197Z" fill="#DBDBDB"/>
<path d="M361.182 15.3083H359.128V17.3639H361.182V15.3083Z" fill="#DBDBDB"/>
<path d="M361.182 11.197H359.128V13.2526H361.182V11.197Z" fill="#DBDBDB"/>
<path d="M363.236 15.3083H361.182V17.3639H363.236V15.3083Z" fill="#DBDBDB"/>
<path d="M363.236 11.197H361.182V13.2526H363.236V11.197Z" fill="#DBDBDB"/>
<path d="M350.907 0.913574H348.853V2.96922H350.907V0.913574Z" fill="#DBDBDB"/>
<path d="M352.961 5.02484H350.907V7.08047H352.961V5.02484Z" fill="#DBDBDB"/>
<path d="M352.961 0.913574H350.907V2.96922H352.961V0.913574Z" fill="#DBDBDB"/>
<path d="M357.074 7.08051H355.02V9.13615H357.074V7.08051Z" fill="#DBDBDB"/>
<path d="M357.074 5.02484H355.02V7.08047H357.074V5.02484Z" fill="#DBDBDB"/>
<path d="M357.074 2.96924H355.02V5.02488H357.074V2.96924Z" fill="#DBDBDB"/>
<path d="M357.074 0.913574H355.02V2.96922H357.074V0.913574Z" fill="#DBDBDB"/>
<path d="M359.128 7.08051H357.074V9.13615H359.128V7.08051Z" fill="#DBDBDB"/>
<path d="M359.128 5.02484H357.074V7.08047H359.128V5.02484Z" fill="#DBDBDB"/>
<path d="M359.128 2.96924H357.074V5.02488H359.128V2.96924Z" fill="#DBDBDB"/>
<path d="M359.128 0.913574H357.074V2.96922H359.128V0.913574Z" fill="#DBDBDB"/>
<path d="M363.236 5.02484H361.182V7.08047H363.236V5.02484Z" fill="#DBDBDB"/>
<path d="M363.236 0.913574H361.182V2.96922H363.236V0.913574Z" fill="#DBDBDB"/>
<path d="M11.9183 0.913574H9.86429V2.96922H11.9183V0.913574Z" fill="#DBDBDB"/>
<path d="M13.9722 0.913574H11.9182V2.96922H13.9722V0.913574Z" fill="#DBDBDB"/>
<path d="M13.9722 5.02484H11.9182V7.08047H13.9722V5.02484Z" fill="#DBDBDB"/>
<path d="M16.0314 0.913574H13.9774V2.96922H16.0314V0.913574Z" fill="#DBDBDB"/>
<path d="M16.0314 5.02484H13.9774V7.08047H16.0314V5.02484Z" fill="#DBDBDB"/>
<path d="M18.0854 0.913574H16.0314V2.96922H18.0854V0.913574Z" fill="#DBDBDB"/>
<path d="M18.0854 5.02484H16.0314V7.08047H18.0854V5.02484Z" fill="#DBDBDB"/>
<path d="M20.1393 0.913574H18.0854V2.96922H20.1393V0.913574Z" fill="#DBDBDB"/>
<path d="M20.1393 2.96924H18.0854V7.08051H20.1393V2.96924Z" fill="#DBDBDB"/>
<path d="M22.1933 0.913574H20.1393V2.96922H22.1933V0.913574Z" fill="#DBDBDB"/>
<path d="M22.1933 5.02484H20.1393V7.08047H22.1933V5.02484Z" fill="#DBDBDB"/>
<path d="M24.2473 0.913574H22.1933V2.96922H24.2473V0.913574Z" fill="#DBDBDB"/>
<path d="M24.2473 5.02484H22.1933V7.08047H24.2473V5.02484Z" fill="#DBDBDB"/>
<path d="M26.3013 0.913574H24.2473V2.96922H26.3013V0.913574Z" fill="#DBDBDB"/>
<path d="M11.9182 15.3083H9.74988V17.3639H11.9182V15.3083Z" fill="#DBDBDB"/>
<path d="M23.2177 11.197H13.3014V13.2526H23.2177V11.197Z" fill="#DBDBDB"/>
<path d="M13.9722 15.3083H11.9182V17.3639H13.9722V15.3083Z" fill="#DBDBDB"/>
<path d="M18.0854 9.14136H16.0314V11.197H18.0854V9.14136Z" fill="#DBDBDB"/>
<path d="M18.0854 11.197H16.0314V13.2526H18.0854V11.197Z" fill="#DBDBDB"/>
<path d="M18.0854 13.2526H16.0314V15.3083H18.0854V13.2526Z" fill="#DBDBDB"/>
<path d="M18.0854 15.3083H16.0314V17.3639H18.0854V15.3083Z" fill="#DBDBDB"/>
<path d="M20.1393 9.14136H18.0854V11.197H20.1393V9.14136Z" fill="#DBDBDB"/>
<path d="M20.1393 11.197H18.0854V13.2526H20.1393V11.197Z" fill="#DBDBDB"/>
<path d="M20.1393 13.2526H18.0854V15.3083H20.1393V13.2526Z" fill="#DBDBDB"/>
<path d="M20.1393 15.3083H18.0854V17.3639H20.1393V15.3083Z" fill="#DBDBDB"/>
<path d="M24.2473 11.197H22.1933V13.2526H24.2473V11.197Z" fill="#DBDBDB"/>
<path d="M24.2473 15.3083H22.1933V17.3639H24.2473V15.3083Z" fill="#DBDBDB"/>
<path d="M26.3013 15.3083H24.2473V17.3639H26.3013V15.3083Z" fill="#DBDBDB"/>
<path d="M28.3552 0.913574H26.3013V2.96922H28.3552V0.913574Z" fill="#DBDBDB"/>
<path d="M28.3552 5.02484H26.3013V7.08047H28.3552V5.02484Z" fill="#DBDBDB"/>
<path d="M28.3552 7.08051H26.3013V9.13615H28.3552V7.08051Z" fill="#DBDBDB"/>
<path d="M30.4092 0.913574H28.3552V2.96922H30.4092V0.913574Z" fill="#DBDBDB"/>
<path d="M30.4092 5.02484H28.3552V7.08047H30.4092V5.02484Z" fill="#DBDBDB"/>
<path d="M32.4632 0.913574H30.4092V2.96922H32.4632V0.913574Z" fill="#DBDBDB"/>
<path d="M32.4632 5.02484H30.4092V7.08047H32.4632V5.02484Z" fill="#DBDBDB"/>
<path d="M34.5171 0.913574H32.4632V2.96922H34.5171V0.913574Z" fill="#DBDBDB"/>
<path d="M34.5171 5.02484H32.4632V7.08047H34.5171V5.02484Z" fill="#DBDBDB"/>
<path d="M36.5711 0.913574H34.5172V2.96922H36.5711V0.913574Z" fill="#DBDBDB"/>
<path d="M36.5711 5.02484H34.5172V7.08047H36.5711V5.02484Z" fill="#DBDBDB"/>
<path d="M38.6303 0.913574H36.5763V2.96922H38.6303V0.913574Z" fill="#DBDBDB"/>
<path d="M38.6303 5.02484H36.5763V7.08047H38.6303V5.02484Z" fill="#DBDBDB"/>
<path d="M40.6843 0.913574H38.6303V2.96922H40.6843V0.913574Z" fill="#DBDBDB"/>
<path d="M40.6843 5.02484H38.6303V7.08047H40.6843V5.02484Z" fill="#DBDBDB"/>
<path d="M42.7382 0.913574H40.6843V2.96922H42.7382V0.913574Z" fill="#DBDBDB"/>
<path d="M42.7382 2.96924H40.6843V7.08051H42.7382V2.96924Z" fill="#DBDBDB"/>
<path d="M42.7382 7.08051H40.6843V9.13615H42.7382V7.08051Z" fill="#DBDBDB"/>
<path d="M28.3552 9.14136H26.3013V11.197H28.3552V9.14136Z" fill="#DBDBDB"/>
<path d="M28.3552 11.197H26.3013V13.2526H28.3552V11.197Z" fill="#DBDBDB"/>
<path d="M28.3552 13.2526H26.3013V15.3083H28.3552V13.2526Z" fill="#DBDBDB"/>
<path d="M28.3552 15.3083H26.3013V17.3639H28.3552V15.3083Z" fill="#DBDBDB"/>
<path d="M30.4092 9.14136H28.3552V11.197H30.4092V9.14136Z" fill="#DBDBDB"/>
<path d="M30.4092 13.2526H28.3552V15.3083H30.4092V13.2526Z" fill="#DBDBDB"/>
<path d="M34.5171 9.14136H32.4632V11.197H34.5171V9.14136Z" fill="#DBDBDB"/>
<path d="M34.5171 13.2526H32.4632V15.3083H34.5171V13.2526Z" fill="#DBDBDB"/>
<path d="M36.5711 11.197H34.5172V13.2526H36.5711V11.197Z" fill="#DBDBDB"/>
<path d="M36.5711 15.3083H34.5172V17.3639H36.5711V15.3083Z" fill="#DBDBDB"/>
<path d="M40.6843 9.14136H38.6303V11.197H40.6843V9.14136Z" fill="#DBDBDB"/>
<path d="M40.6843 13.2526H38.6303V15.3083H40.6843V13.2526Z" fill="#DBDBDB"/>
<path d="M42.7382 9.14136H40.6843V11.197H42.7382V9.14136Z" fill="#DBDBDB"/>
<path d="M42.7382 11.197H40.6843V13.2526H42.7382V11.197Z" fill="#DBDBDB"/>
<path d="M42.7382 13.2526H40.6843V15.3083H42.7382V13.2526Z" fill="#DBDBDB"/>
<path d="M42.7382 15.3083H40.6843V17.3639H42.7382V15.3083Z" fill="#DBDBDB"/>
<path d="M44.7922 0.913574H42.7382V2.96922H44.7922V0.913574Z" fill="#DBDBDB"/>
<path d="M44.7922 7.08051H42.7382V9.13615H44.7922V7.08051Z" fill="#DBDBDB"/>
<path d="M46.8462 0.913574H44.7922V2.96922H46.8462V0.913574Z" fill="#DBDBDB"/>
<path d="M46.8462 5.02484H44.7922V7.08047H46.8462V5.02484Z" fill="#DBDBDB"/>
<path d="M48.9001 0.913574H46.8462V2.96922H48.9001V0.913574Z" fill="#DBDBDB"/>
<path d="M53.0081 7.08051H46.8462V9.13615H53.0081V7.08051Z" fill="#DBDBDB"/>
<path d="M50.9541 0.913574H48.9001V2.96922H50.9541V0.913574Z" fill="#DBDBDB"/>
<path d="M53.0081 0.913574H50.9541V2.96922H53.0081V0.913574Z" fill="#DBDBDB"/>
<path d="M55.0621 0.913574H53.0081V2.96922H55.0621V0.913574Z" fill="#DBDBDB"/>
<path d="M55.0621 5.02484H53.0081V7.08047H55.0621V5.02484Z" fill="#DBDBDB"/>
<path d="M57.116 0.913574H55.0621V2.96922H57.116V0.913574Z" fill="#DBDBDB"/>
<path d="M57.116 7.08051H55.0621V9.13615H57.116V7.08051Z" fill="#DBDBDB"/>
<path d="M59.1752 0.913574H57.1212V2.96922H59.1752V0.913574Z" fill="#DBDBDB"/>
<path d="M59.1752 5.02484H57.1212V7.08047H59.1752V5.02484Z" fill="#DBDBDB"/>
<path d="M44.7922 15.3083H42.7382V17.3639H44.7922V15.3083Z" fill="#DBDBDB"/>
<path d="M46.8462 11.197H44.7922V13.2526H46.8462V11.197Z" fill="#DBDBDB"/>
<path d="M46.8462 15.3083H44.7922V17.3639H46.8462V15.3083Z" fill="#DBDBDB"/>
<path d="M48.9001 15.3083H46.8462V17.3639H48.9001V15.3083Z" fill="#DBDBDB"/>
<path d="M50.9541 9.14136H48.9001V13.2526H50.9541V9.14136Z" fill="#DBDBDB"/>
<path d="M50.9541 15.3083H48.9001V17.3639H50.9541V15.3083Z" fill="#DBDBDB"/>
<path d="M53.0081 15.3083H50.9541V17.3639H53.0081V15.3083Z" fill="#DBDBDB"/>
<path d="M55.0621 11.197H53.0081V13.2526H55.0621V11.197Z" fill="#DBDBDB"/>
<path d="M55.0621 15.3083H53.0081V17.3639H55.0621V15.3083Z" fill="#DBDBDB"/>
<path d="M57.116 15.3083H55.0621V17.3639H57.116V15.3083Z" fill="#DBDBDB"/>
<path d="M59.1752 11.197H57.1212V13.2526H59.1752V11.197Z" fill="#DBDBDB"/>
<path d="M59.1752 15.3083H57.1212V17.3639H59.1752V15.3083Z" fill="#DBDBDB"/>
<path d="M61.2292 0.913574H59.1752V2.96922H61.2292V0.913574Z" fill="#DBDBDB"/>
<path d="M63.2832 0.913574H61.2292V2.96922H63.2832V0.913574Z" fill="#DBDBDB"/>
<path d="M63.2832 5.02484H61.2292V7.08047H63.2832V5.02484Z" fill="#DBDBDB"/>
<path d="M63.2832 7.08051H61.2292V9.13615H63.2832V7.08051Z" fill="#DBDBDB"/>
<path d="M65.3371 0.913574H63.2831V2.96922H65.3371V0.913574Z" fill="#DBDBDB"/>
<path d="M65.3371 5.02484H63.2831V7.08047H65.3371V5.02484Z" fill="#DBDBDB"/>
<path d="M67.3911 0.913574H65.3371V2.96922H67.3911V0.913574Z" fill="#DBDBDB"/>
<path d="M67.3911 5.02484H65.3371V7.08047H67.3911V5.02484Z" fill="#DBDBDB"/>
<path d="M69.4451 0.913574H67.3911V2.96922H69.4451V0.913574Z" fill="#DBDBDB"/>
<path d="M69.4451 5.02484H67.3911V7.08047H69.4451V5.02484Z" fill="#DBDBDB"/>
<path d="M71.499 0.913574H69.4451V2.96922H71.499V0.913574Z" fill="#DBDBDB"/>
<path d="M71.499 5.02484H69.4451V7.08047H71.499V5.02484Z" fill="#DBDBDB"/>
<path d="M73.553 0.913574H71.4991V2.96922H73.553V0.913574Z" fill="#DBDBDB"/>
<path d="M73.553 5.02484H71.4991V7.08047H73.553V5.02484Z" fill="#DBDBDB"/>
<path d="M73.553 7.08051H71.4991V9.13615H73.553V7.08051Z" fill="#DBDBDB"/>
<path d="M75.607 0.913574H73.553V2.96922H75.607V0.913574Z" fill="#DBDBDB"/>
<path d="M61.2292 15.3083H59.1752V17.3639H61.2292V15.3083Z" fill="#DBDBDB"/>
<path d="M63.2832 9.14136H61.2292V11.197H63.2832V9.14136Z" fill="#DBDBDB"/>
<path d="M63.2832 11.197H61.2292V13.2526H63.2832V11.197Z" fill="#DBDBDB"/>
<path d="M63.2832 13.2526H61.2292V15.3083H63.2832V13.2526Z" fill="#DBDBDB"/>
<path d="M63.2832 15.3083H61.2292V17.3639H63.2832V15.3083Z" fill="#DBDBDB"/>
<path d="M67.3911 11.197H65.3371V13.2526H67.3911V11.197Z" fill="#DBDBDB"/>
<path d="M67.3911 15.3083H65.3371V17.3639H67.3911V15.3083Z" fill="#DBDBDB"/>
<path d="M69.4451 9.14136H67.3911V11.197H69.4451V9.14136Z" fill="#DBDBDB"/>
<path d="M69.4451 13.2526H67.3911V15.3083H69.4451V13.2526Z" fill="#DBDBDB"/>
<path d="M73.553 9.14136H71.4991V11.197H73.553V9.14136Z" fill="#DBDBDB"/>
<path d="M73.553 11.197H71.4991V13.2526H73.553V11.197Z" fill="#DBDBDB"/>
<path d="M73.553 13.2526H71.4991V15.3083H73.553V13.2526Z" fill="#DBDBDB"/>
<path d="M73.553 15.3083H71.4991V17.3639H73.553V15.3083Z" fill="#DBDBDB"/>
<path d="M75.607 15.3083H73.553V17.3639H75.607V15.3083Z" fill="#DBDBDB"/>
<path d="M77.661 0.913574H75.607V2.96922H77.661V0.913574Z" fill="#DBDBDB"/>
<path d="M79.7149 0.913574H77.6609V2.96922H79.7149V0.913574Z" fill="#DBDBDB"/>
<path d="M79.7149 5.02484H77.6609V7.08047H79.7149V5.02484Z" fill="#DBDBDB"/>
<path d="M81.7741 0.913574H79.7201V2.96922H81.7741V0.913574Z" fill="#DBDBDB"/>
<path d="M81.7741 5.02484H79.7201V7.08047H81.7741V5.02484Z" fill="#DBDBDB"/>
<path d="M83.8281 0.913574H81.7741V2.96922H83.8281V0.913574Z" fill="#DBDBDB"/>
<path d="M83.8281 5.02484H81.7741V7.08047H83.8281V5.02484Z" fill="#DBDBDB"/>
<path d="M85.882 0.913574H83.8281V2.96922H85.882V0.913574Z" fill="#DBDBDB"/>
<path d="M85.882 5.02484H83.8281V7.08047H85.882V5.02484Z" fill="#DBDBDB"/>
<path d="M87.936 0.913574H85.882V2.96922H87.936V0.913574Z" fill="#DBDBDB"/>
<path d="M87.936 5.02484H85.882V7.08047H87.936V5.02484Z" fill="#DBDBDB"/>
<path d="M89.99 0.913574H87.936V2.96922H89.99V0.913574Z" fill="#DBDBDB"/>
<path d="M89.99 5.02484H87.936V7.08047H89.99V5.02484Z" fill="#DBDBDB"/>
<path d="M92.044 0.913574H89.99V2.96922H92.044V0.913574Z" fill="#DBDBDB"/>
<path d="M77.661 15.3083H75.607V17.3639H77.661V15.3083Z" fill="#DBDBDB"/>
<path d="M79.7149 11.197H73.1942V13.2526H79.7149V11.197Z" fill="#DBDBDB"/>
<path d="M81.7689 15.3083H77.6609V17.3639H81.7689V15.3083Z" fill="#DBDBDB"/>
<path d="M83.8281 9.14136H81.7741V11.197H83.8281V9.14136Z" fill="#DBDBDB"/>
<path d="M83.8281 11.197H81.7741V13.2526H83.8281V11.197Z" fill="#DBDBDB"/>
<path d="M83.8281 13.2526H81.7741V15.3083H83.8281V13.2526Z" fill="#DBDBDB"/>
<path d="M83.8281 15.3083H81.7741V17.3639H83.8281V15.3083Z" fill="#DBDBDB"/>
<path d="M85.882 7.08051H83.8281V11.1918H85.882V7.08051Z" fill="#DBDBDB"/>
<path d="M85.882 11.197H83.8281V13.2526H85.882V11.197Z" fill="#DBDBDB"/>
<path d="M85.882 13.2526H83.8281V15.3083H85.882V13.2526Z" fill="#DBDBDB"/>
<path d="M85.882 15.3083H83.8281V17.3639H85.882V15.3083Z" fill="#DBDBDB"/>
<path d="M89.99 11.197H87.936V13.2526H89.99V11.197Z" fill="#DBDBDB"/>
<path d="M89.99 15.3083H87.936V17.3639H89.99V15.3083Z" fill="#DBDBDB"/>
<path d="M92.044 15.3083H89.99V17.3639H92.044V15.3083Z" fill="#DBDBDB"/>
<path d="M94.0979 0.913574H92.0439V2.96922H94.0979V0.913574Z" fill="#DBDBDB"/>
<path d="M94.0979 5.02484H92.0439V7.08047H94.0979V5.02484Z" fill="#DBDBDB"/>
<path d="M94.0979 7.08051H92.0439V9.13615H94.0979V7.08051Z" fill="#DBDBDB"/>
<path d="M96.1519 0.913574H94.0979V2.96922H96.1519V0.913574Z" fill="#DBDBDB"/>
<path d="M96.1519 5.02484H94.0979V7.08047H96.1519V5.02484Z" fill="#DBDBDB"/>
<path d="M98.2059 0.913574H96.1519V2.96922H98.2059V0.913574Z" fill="#DBDBDB"/>
<path d="M98.2059 5.02484H96.1519V7.08047H98.2059V5.02484Z" fill="#DBDBDB"/>
<path d="M100.26 0.913574H98.2059V2.96922H100.26V0.913574Z" fill="#DBDBDB"/>
<path d="M100.26 5.02484H98.2059V7.08047H100.26V5.02484Z" fill="#DBDBDB"/>
<path d="M102.319 0.913574H100.265V2.96922H102.319V0.913574Z" fill="#DBDBDB"/>
<path d="M102.319 5.02484H100.265V7.08047H102.319V5.02484Z" fill="#DBDBDB"/>
<path d="M104.373 0.913574H102.319V2.96922H104.373V0.913574Z" fill="#DBDBDB"/>
<path d="M104.373 5.02484H102.319V7.08047H104.373V5.02484Z" fill="#DBDBDB"/>
<path d="M106.427 0.913574H104.373V2.96922H106.427V0.913574Z" fill="#DBDBDB"/>
<path d="M106.427 5.02484H104.373V7.08047H106.427V5.02484Z" fill="#DBDBDB"/>
<path d="M108.481 0.913574H106.427V2.96922H108.481V0.913574Z" fill="#DBDBDB"/>
<path d="M108.481 5.02484H106.427V7.08047H108.481V5.02484Z" fill="#DBDBDB"/>
<path d="M108.481 7.08051H106.427V9.13615H108.481V7.08051Z" fill="#DBDBDB"/>
<path d="M94.0979 9.14136H92.0439V11.197H94.0979V9.14136Z" fill="#DBDBDB"/>
<path d="M94.0979 11.197H92.0439V13.2526H94.0979V11.197Z" fill="#DBDBDB"/>
<path d="M94.0979 13.2526H92.0439V15.3083H94.0979V13.2526Z" fill="#DBDBDB"/>
<path d="M94.0979 15.3083H92.0439V17.3639H94.0979V15.3083Z" fill="#DBDBDB"/>
<path d="M96.1519 9.14136H94.0979V11.197H96.1519V9.14136Z" fill="#DBDBDB"/>
<path d="M96.1519 13.2526H94.0979V15.3083H96.1519V13.2526Z" fill="#DBDBDB"/>
<path d="M100.26 9.14136H98.2059V11.197H100.26V9.14136Z" fill="#DBDBDB"/>
<path d="M100.26 13.2526H98.2059V15.3083H100.26V13.2526Z" fill="#DBDBDB"/>
<path d="M102.319 11.197H100.265V13.2526H102.319V11.197Z" fill="#DBDBDB"/>
<path d="M102.319 15.3083H100.265V17.3639H102.319V15.3083Z" fill="#DBDBDB"/>
<path d="M106.427 9.14136H104.373V11.197H106.427V9.14136Z" fill="#DBDBDB"/>
<path d="M106.427 13.2526H104.373V15.3083H106.427V13.2526Z" fill="#DBDBDB"/>
<path d="M108.481 9.14136H106.427V11.197H108.481V9.14136Z" fill="#DBDBDB"/>
<path d="M108.481 11.197H106.427V13.2526H108.481V11.197Z" fill="#DBDBDB"/>
<path d="M108.481 13.2526H106.427V15.3083H108.481V13.2526Z" fill="#DBDBDB"/>
<path d="M108.481 15.3083H106.427V17.3639H108.481V15.3083Z" fill="#DBDBDB"/>
<path d="M110.535 0.913574H108.481V2.96922H110.535V0.913574Z" fill="#DBDBDB"/>
<path d="M110.535 7.08051H108.481V9.13615H110.535V7.08051Z" fill="#DBDBDB"/>
<path d="M112.589 0.913574H110.535V2.96922H112.589V0.913574Z" fill="#DBDBDB"/>
<path d="M112.589 5.02484H110.535V7.08047H112.589V5.02484Z" fill="#DBDBDB"/>
<path d="M114.643 0.913574H112.589V2.96922H114.643V0.913574Z" fill="#DBDBDB"/>
<path d="M114.643 7.08051H112.589V9.13615H114.643V7.08051Z" fill="#DBDBDB"/>
<path d="M116.697 0.913574H114.643V2.96922H116.697V0.913574Z" fill="#DBDBDB"/>
<path d="M116.697 5.02484H114.643V7.08047H116.697V5.02484Z" fill="#DBDBDB"/>
<path d="M118.751 0.913574H116.697V2.96922H118.751V0.913574Z" fill="#DBDBDB"/>
<path d="M118.751 7.08051H116.697V9.13615H118.751V7.08051Z" fill="#DBDBDB"/>
<path d="M110.535 15.3083H108.481V17.3639H110.535V15.3083Z" fill="#DBDBDB"/>
<path d="M112.589 11.197H110.535V13.2526H112.589V11.197Z" fill="#DBDBDB"/>
<path d="M112.589 15.3083H110.535V17.3639H112.589V15.3083Z" fill="#DBDBDB"/>
<path d="M114.643 15.3083H112.589V17.3639H114.643V15.3083Z" fill="#DBDBDB"/>
<path d="M116.697 11.197H114.643V13.2526H116.697V11.197Z" fill="#DBDBDB"/>
<path d="M116.697 15.3083H114.643V17.3639H116.697V15.3083Z" fill="#DBDBDB"/>
<path d="M118.751 15.3083H116.697V17.3639H118.751V15.3083Z" fill="#DBDBDB"/>
<path d="M244.074 0.913574H242.02V2.96922H244.074V0.913574Z" fill="#DBDBDB"/>
<path d="M242.02 0.913574H239.966V2.96922H242.02V0.913574Z" fill="#DBDBDB"/>
<path d="M242.02 5.02484H239.966V7.08047H242.02V5.02484Z" fill="#DBDBDB"/>
<path d="M242.02 7.08051H239.966V9.13615H242.02V7.08051Z" fill="#DBDBDB"/>
<path d="M239.966 0.913574H237.912V2.96922H239.966V0.913574Z" fill="#DBDBDB"/>
<path d="M239.966 5.02484H237.912V7.08047H239.966V5.02484Z" fill="#DBDBDB"/>
<path d="M237.912 0.913574H235.858V2.96922H237.912V0.913574Z" fill="#DBDBDB"/>
<path d="M237.912 5.02484H235.858V7.08047H237.912V5.02484Z" fill="#DBDBDB"/>
<path d="M235.858 0.913574H233.804V2.96922H235.858V0.913574Z" fill="#DBDBDB"/>
<path d="M235.858 5.02484H233.804V7.08047H235.858V5.02484Z" fill="#DBDBDB"/>
<path d="M233.804 0.913574H231.75V2.96922H233.804V0.913574Z" fill="#DBDBDB"/>
<path d="M233.804 5.02484H231.75V7.08047H233.804V5.02484Z" fill="#DBDBDB"/>
<path d="M231.75 0.913574H229.697V2.96922H231.75V0.913574Z" fill="#DBDBDB"/>
<path d="M231.75 5.02484H229.697V7.08047H231.75V5.02484Z" fill="#DBDBDB"/>
<path d="M231.75 7.08051H229.697V9.13615H231.75V7.08051Z" fill="#DBDBDB"/>
<path d="M229.696 0.913574H227.643V2.96922H229.696V0.913574Z" fill="#DBDBDB"/>
<path d="M244.074 15.3083H242.02V17.3639H244.074V15.3083Z" fill="#DBDBDB"/>
<path d="M242.02 9.14136H239.966V11.197H242.02V9.14136Z" fill="#DBDBDB"/>
<path d="M242.02 11.197H239.966V13.2526H242.02V11.197Z" fill="#DBDBDB"/>
<path d="M242.02 13.2526H239.966V15.3083H242.02V13.2526Z" fill="#DBDBDB"/>
<path d="M242.02 15.3083H239.966V17.3639H242.02V15.3083Z" fill="#DBDBDB"/>
<path d="M237.912 9.14136H235.858V11.197H237.912V9.14136Z" fill="#DBDBDB"/>
<path d="M237.912 11.197H235.858V13.2526H237.912V11.197Z" fill="#DBDBDB"/>
<path d="M237.912 13.2526H235.858V15.3083H237.912V13.2526Z" fill="#DBDBDB"/>
<path d="M237.912 15.3083H235.858V17.3639H237.912V15.3083Z" fill="#DBDBDB"/>
<path d="M235.858 9.14136H233.804V11.197H235.858V9.14136Z" fill="#DBDBDB"/>
<path d="M235.858 11.197H233.804V13.2526H235.858V11.197Z" fill="#DBDBDB"/>
<path d="M235.858 13.2526H233.804V15.3083H235.858V13.2526Z" fill="#DBDBDB"/>
<path d="M235.858 15.3083H233.804V17.3639H235.858V15.3083Z" fill="#DBDBDB"/>
<path d="M231.745 9.14136H225.583V11.197H231.745V9.14136Z" fill="#DBDBDB"/>
<path d="M231.75 11.197H229.697V13.2526H231.75V11.197Z" fill="#DBDBDB"/>
<path d="M231.75 13.2526H229.697V15.3083H231.75V13.2526Z" fill="#DBDBDB"/>
<path d="M231.75 15.3083H229.697V17.3639H231.75V15.3083Z" fill="#DBDBDB"/>
<path d="M229.696 15.3083H227.643V17.3639H229.696V15.3083Z" fill="#DBDBDB"/>
<path d="M227.637 0.913574H225.583V2.96922H227.637V0.913574Z" fill="#DBDBDB"/>
<path d="M225.583 0.913574H223.529V2.96922H225.583V0.913574Z" fill="#DBDBDB"/>
<path d="M225.583 5.02484H223.529V7.08047H225.583V5.02484Z" fill="#DBDBDB"/>
<path d="M223.529 0.913574H221.475V2.96922H223.529V0.913574Z" fill="#DBDBDB"/>
<path d="M223.529 5.02484H221.475V7.08047H223.529V5.02484Z" fill="#DBDBDB"/>
<path d="M221.475 0.913574H219.421V2.96922H221.475V0.913574Z" fill="#DBDBDB"/>
<path d="M221.475 5.02484H219.421V7.08047H221.475V5.02484Z" fill="#DBDBDB"/>
<path d="M219.421 0.913574H217.367V2.96922H219.421V0.913574Z" fill="#DBDBDB"/>
<path d="M219.421 5.02484H217.367V7.08047H219.421V5.02484Z" fill="#DBDBDB"/>
<path d="M217.367 0.913574H215.313V2.96922H217.367V0.913574Z" fill="#DBDBDB"/>
<path d="M217.367 5.02484H215.313V7.08047H217.367V5.02484Z" fill="#DBDBDB"/>
<path d="M215.313 0.913574H213.26V2.96922H215.313V0.913574Z" fill="#DBDBDB"/>
<path d="M215.313 5.02484H213.26V7.08047H215.313V5.02484Z" fill="#DBDBDB"/>
<path d="M213.26 0.913574H211.206V2.96922H213.26V0.913574Z" fill="#DBDBDB"/>
<path d="M227.637 15.3083H225.583V17.3639H227.637V15.3083Z" fill="#DBDBDB"/>
<path d="M225.583 7.08051H223.529V13.2474H225.583V7.08051Z" fill="#DBDBDB"/>
<path d="M225.583 15.3083H223.529V17.3639H225.583V15.3083Z" fill="#DBDBDB"/>
<path d="M221.475 9.14136H219.421V11.197H221.475V9.14136Z" fill="#DBDBDB"/>
<path d="M221.475 11.197H219.421V13.2526H221.475V11.197Z" fill="#DBDBDB"/>
<path d="M221.475 13.2526H219.421V15.3083H221.475V13.2526Z" fill="#DBDBDB"/>
<path d="M221.475 15.3083H219.421V17.3639H221.475V15.3083Z" fill="#DBDBDB"/>
<path d="M219.421 9.14136H217.367V11.197H219.421V9.14136Z" fill="#DBDBDB"/>
<path d="M219.421 11.197H217.367V13.2526H219.421V11.197Z" fill="#DBDBDB"/>
<path d="M219.421 13.2526H217.367V15.3083H219.421V13.2526Z" fill="#DBDBDB"/>
<path d="M219.421 15.3083H217.367V17.3639H219.421V15.3083Z" fill="#DBDBDB"/>
<path d="M215.313 11.197H213.26V13.2526H215.313V11.197Z" fill="#DBDBDB"/>
<path d="M215.313 15.3083H213.26V17.3639H215.313V15.3083Z" fill="#DBDBDB"/>
<path d="M213.26 15.3083H211.206V17.3639H213.26V15.3083Z" fill="#DBDBDB"/>
<path d="M211.206 0.913574H209.152V2.96922H211.206V0.913574Z" fill="#DBDBDB"/>
<path d="M211.206 5.02484H209.152V7.08047H211.206V5.02484Z" fill="#DBDBDB"/>
<path d="M211.206 7.08051H209.152V9.13615H211.206V7.08051Z" fill="#DBDBDB"/>
<path d="M209.152 0.913574H207.098V2.96922H209.152V0.913574Z" fill="#DBDBDB"/>
<path d="M209.152 5.02484H207.098V7.08047H209.152V5.02484Z" fill="#DBDBDB"/>
<path d="M207.092 0.913574H205.038V2.96922H207.092V0.913574Z" fill="#DBDBDB"/>
<path d="M207.092 5.02484H205.038V7.08047H207.092V5.02484Z" fill="#DBDBDB"/>
<path d="M205.038 0.913574H202.984V2.96922H205.038V0.913574Z" fill="#DBDBDB"/>
<path d="M205.038 5.02484H202.984V7.08047H205.038V5.02484Z" fill="#DBDBDB"/>
<path d="M202.984 0.913574H200.93V2.96922H202.984V0.913574Z" fill="#DBDBDB"/>
<path d="M202.984 5.02484H200.93V7.08047H202.984V5.02484Z" fill="#DBDBDB"/>
<path d="M200.931 0.913574H198.877V2.96922H200.931V0.913574Z" fill="#DBDBDB"/>
<path d="M200.931 5.02484H198.877V7.08047H200.931V5.02484Z" fill="#DBDBDB"/>
<path d="M198.877 0.913574H196.823V2.96922H198.877V0.913574Z" fill="#DBDBDB"/>
<path d="M198.877 5.02484H196.823V7.08047H198.877V5.02484Z" fill="#DBDBDB"/>
<path d="M196.823 0.913574H194.769V2.96922H196.823V0.913574Z" fill="#DBDBDB"/>
<path d="M196.823 5.02484H194.769V7.08047H196.823V5.02484Z" fill="#DBDBDB"/>
<path d="M196.823 7.08051H194.769V9.13615H196.823V7.08051Z" fill="#DBDBDB"/>
<path d="M211.206 9.14136H209.152V11.197H211.206V9.14136Z" fill="#DBDBDB"/>
<path d="M211.206 11.197H209.152V13.2526H211.206V11.197Z" fill="#DBDBDB"/>
<path d="M211.206 13.2526H209.152V15.3083H211.206V13.2526Z" fill="#DBDBDB"/>
<path d="M211.206 15.3083H209.152V17.3639H211.206V15.3083Z" fill="#DBDBDB"/>
<path d="M209.152 9.14136H207.098V11.197H209.152V9.14136Z" fill="#DBDBDB"/>
<path d="M209.152 13.2526H207.098V15.3083H209.152V13.2526Z" fill="#DBDBDB"/>
<path d="M205.038 9.14136H202.984V11.197H205.038V9.14136Z" fill="#DBDBDB"/>
<path d="M205.038 13.2526H202.984V15.3083H205.038V13.2526Z" fill="#DBDBDB"/>
<path d="M202.984 11.197H200.93V13.2526H202.984V11.197Z" fill="#DBDBDB"/>
<path d="M202.984 15.3083H200.93V17.3639H202.984V15.3083Z" fill="#DBDBDB"/>
<path d="M198.877 9.14136H196.823V11.197H198.877V9.14136Z" fill="#DBDBDB"/>
<path d="M198.877 13.2526H196.823V15.3083H198.877V13.2526Z" fill="#DBDBDB"/>
<path d="M196.823 9.14136H194.769V11.197H196.823V9.14136Z" fill="#DBDBDB"/>
<path d="M196.823 11.197H194.769V13.2526H196.823V11.197Z" fill="#DBDBDB"/>
<path d="M196.823 13.2526H194.769V15.3083H196.823V13.2526Z" fill="#DBDBDB"/>
<path d="M196.823 15.3083H194.769V17.3639H196.823V15.3083Z" fill="#DBDBDB"/>
<path d="M194.769 0.913574H192.715V2.96922H194.769V0.913574Z" fill="#DBDBDB"/>
<path d="M194.769 7.08051H192.715V9.13615H194.769V7.08051Z" fill="#DBDBDB"/>
<path d="M192.715 0.913574H190.661V2.96922H192.715V0.913574Z" fill="#DBDBDB"/>
<path d="M192.715 5.02484H190.661V7.08047H192.715V5.02484Z" fill="#DBDBDB"/>
<path d="M190.661 0.913574H188.607V2.96922H190.661V0.913574Z" fill="#DBDBDB"/>
<path d="M190.661 7.08051H188.607V9.13615H190.661V7.08051Z" fill="#DBDBDB"/>
<path d="M188.607 0.913574H186.553V2.96922H188.607V0.913574Z" fill="#DBDBDB"/>
<path d="M188.607 5.02484H186.553V7.08047H188.607V5.02484Z" fill="#DBDBDB"/>
<path d="M186.553 0.913574H184.499V2.96922H186.553V0.913574Z" fill="#DBDBDB"/>
<path d="M186.553 7.08051H184.499V9.13615H186.553V7.08051Z" fill="#DBDBDB"/>
<path d="M184.494 0.913574H182.44V2.96922H184.494V0.913574Z" fill="#DBDBDB"/>
<path d="M184.494 5.02484H182.44V7.08047H184.494V5.02484Z" fill="#DBDBDB"/>
<path d="M182.44 0.913574H180.386V2.96922H182.44V0.913574Z" fill="#DBDBDB"/>
<path d="M182.44 7.08051H180.386V9.13615H182.44V7.08051Z" fill="#DBDBDB"/>
<path d="M180.386 0.913574H178.332V2.96922H180.386V0.913574Z" fill="#DBDBDB"/>
<path d="M180.386 5.02484H178.332V7.08047H180.386V5.02484Z" fill="#DBDBDB"/>
<path d="M194.769 15.3083H192.715V17.3639H194.769V15.3083Z" fill="#DBDBDB"/>
<path d="M192.715 11.197H190.661V13.2526H192.715V11.197Z" fill="#DBDBDB"/>
<path d="M192.715 15.3083H190.661V17.3639H192.715V15.3083Z" fill="#DBDBDB"/>
<path d="M190.661 15.3083H188.607V17.3639H190.661V15.3083Z" fill="#DBDBDB"/>
<path d="M188.607 11.197H186.553V13.2526H188.607V11.197Z" fill="#DBDBDB"/>
<path d="M188.607 15.3083H186.553V17.3639H188.607V15.3083Z" fill="#DBDBDB"/>
<path d="M186.553 15.3083H184.499V17.3639H186.553V15.3083Z" fill="#DBDBDB"/>
<path d="M184.494 11.197H182.44V13.2526H184.494V11.197Z" fill="#DBDBDB"/>
<path d="M184.494 15.3083H182.44V17.3639H184.494V15.3083Z" fill="#DBDBDB"/>
<path d="M182.44 15.3083H180.386V17.3639H182.44V15.3083Z" fill="#DBDBDB"/>
<path d="M180.386 11.197H178.332V13.2526H180.386V11.197Z" fill="#DBDBDB"/>
<path d="M180.386 15.3083H178.332V17.3639H180.386V15.3083Z" fill="#DBDBDB"/>
<path d="M178.332 0.913574H176.278V2.96922H178.332V0.913574Z" fill="#DBDBDB"/>
<path d="M176.278 0.913574H174.224V2.96922H176.278V0.913574Z" fill="#DBDBDB"/>
<path d="M176.278 5.02484H174.224V7.08047H176.278V5.02484Z" fill="#DBDBDB"/>
<path d="M176.278 7.08051H174.224V9.13615H176.278V7.08051Z" fill="#DBDBDB"/>
<path d="M174.224 0.913574H172.17V2.96922H174.224V0.913574Z" fill="#DBDBDB"/>
<path d="M174.224 5.02484H172.17V7.08047H174.224V5.02484Z" fill="#DBDBDB"/>
<path d="M172.17 0.913574H170.116V2.96922H172.17V0.913574Z" fill="#DBDBDB"/>
<path d="M172.17 5.02484H170.116V7.08047H172.17V5.02484Z" fill="#DBDBDB"/>
<path d="M170.116 0.913574H168.062V2.96922H170.116V0.913574Z" fill="#DBDBDB"/>
<path d="M170.116 5.02484H168.062V7.08047H170.116V5.02484Z" fill="#DBDBDB"/>
<path d="M168.062 0.913574H166.008V2.96922H168.062V0.913574Z" fill="#DBDBDB"/>
<path d="M168.062 5.02484H166.008V7.08047H168.062V5.02484Z" fill="#DBDBDB"/>
<path d="M166.008 0.913574H163.954V2.96922H166.008V0.913574Z" fill="#DBDBDB"/>
<path d="M166.008 5.02484H163.954V7.08047H166.008V5.02484Z" fill="#DBDBDB"/>
<path d="M166.008 7.08051H163.954V9.13615H166.008V7.08051Z" fill="#DBDBDB"/>
<path d="M163.949 0.913574H161.895V2.96922H163.949V0.913574Z" fill="#DBDBDB"/>
<path d="M178.332 15.3083H176.278V17.3639H178.332V15.3083Z" fill="#DBDBDB"/>
<path d="M176.278 9.14136H174.224V11.197H176.278V9.14136Z" fill="#DBDBDB"/>
<path d="M176.278 11.197H174.224V13.2526H176.278V11.197Z" fill="#DBDBDB"/>
<path d="M176.278 13.2526H174.224V15.3083H176.278V13.2526Z" fill="#DBDBDB"/>
<path d="M176.278 15.3083H174.224V17.3639H176.278V15.3083Z" fill="#DBDBDB"/>
<path d="M172.17 9.14136H170.116V11.197H172.17V9.14136Z" fill="#DBDBDB"/>
<path d="M172.17 11.197H170.116V13.2526H172.17V11.197Z" fill="#DBDBDB"/>
<path d="M172.17 13.2526H170.116V15.3083H172.17V13.2526Z" fill="#DBDBDB"/>
<path d="M172.17 15.3083H170.116V17.3639H172.17V15.3083Z" fill="#DBDBDB"/>
<path d="M170.116 9.14136H168.062V11.197H170.116V9.14136Z" fill="#DBDBDB"/>
<path d="M170.116 11.197H168.062V13.2526H170.116V11.197Z" fill="#DBDBDB"/>
<path d="M170.116 13.2526H168.062V15.3083H170.116V13.2526Z" fill="#DBDBDB"/>
<path d="M170.116 15.3083H168.062V17.3639H170.116V15.3083Z" fill="#DBDBDB"/>
<path d="M166.008 9.14136H163.954V11.197H166.008V9.14136Z" fill="#DBDBDB"/>
<path d="M166.008 11.197H163.954V13.2526H166.008V11.197Z" fill="#DBDBDB"/>
<path d="M166.008 13.2526H163.954V15.3083H166.008V13.2526Z" fill="#DBDBDB"/>
<path d="M166.008 15.3083H163.954V17.3639H166.008V15.3083Z" fill="#DBDBDB"/>
<path d="M163.949 15.3083H161.895V17.3639H163.949V15.3083Z" fill="#DBDBDB"/>
<path d="M161.895 0.913574H159.841V2.96922H161.895V0.913574Z" fill="#DBDBDB"/>
<path d="M159.841 0.913574H157.787V2.96922H159.841V0.913574Z" fill="#DBDBDB"/>
<path d="M159.841 5.02484H157.787V7.08047H159.841V5.02484Z" fill="#DBDBDB"/>
<path d="M157.787 0.913574H155.733V2.96922H157.787V0.913574Z" fill="#DBDBDB"/>
<path d="M157.787 5.02484H155.733V7.08047H157.787V5.02484Z" fill="#DBDBDB"/>
<path d="M155.733 0.913574H153.679V2.96922H155.733V0.913574Z" fill="#DBDBDB"/>
<path d="M155.733 5.02484H153.679V7.08047H155.733V5.02484Z" fill="#DBDBDB"/>
<path d="M153.679 0.913574H151.625V2.96922H153.679V0.913574Z" fill="#DBDBDB"/>
<path d="M153.679 5.02484H151.625V7.08047H153.679V5.02484Z" fill="#DBDBDB"/>
<path d="M151.625 0.913574H149.571V2.96922H151.625V0.913574Z" fill="#DBDBDB"/>
<path d="M151.625 5.02484H149.571V7.08047H151.625V5.02484Z" fill="#DBDBDB"/>
<path d="M149.571 0.913574H147.517V2.96922H149.571V0.913574Z" fill="#DBDBDB"/>
<path d="M149.571 5.02484H147.517V7.08047H149.571V5.02484Z" fill="#DBDBDB"/>
<path d="M147.517 0.913574H145.463V2.96922H147.517V0.913574Z" fill="#DBDBDB"/>
<path d="M161.895 15.3083H159.841V17.3639H161.895V15.3083Z" fill="#DBDBDB"/>
<path d="M163.949 11.197H157.787V13.2526H163.949V11.197Z" fill="#DBDBDB"/>
<path d="M159.841 15.3083H157.787V17.3639H159.841V15.3083Z" fill="#DBDBDB"/>
<path d="M155.733 9.14136H153.679V11.197H155.733V9.14136Z" fill="#DBDBDB"/>
<path d="M155.733 11.197H153.679V13.2526H155.733V11.197Z" fill="#DBDBDB"/>
<path d="M155.733 13.2526H153.679V15.3083H155.733V13.2526Z" fill="#DBDBDB"/>
<path d="M155.733 15.3083H153.679V17.3639H155.733V15.3083Z" fill="#DBDBDB"/>
<path d="M153.679 9.14136H151.625V11.197H153.679V9.14136Z" fill="#DBDBDB"/>
<path d="M153.679 11.197H151.625V13.2526H153.679V11.197Z" fill="#DBDBDB"/>
<path d="M153.679 13.2526H151.625V15.3083H153.679V13.2526Z" fill="#DBDBDB"/>
<path d="M153.679 15.3083H151.625V17.3639H153.679V15.3083Z" fill="#DBDBDB"/>
<path d="M149.571 11.197H147.517V13.2526H149.571V11.197Z" fill="#DBDBDB"/>
<path d="M149.571 15.3083H147.517V17.3639H149.571V15.3083Z" fill="#DBDBDB"/>
<path d="M147.517 15.3083H145.463V17.3639H147.517V15.3083Z" fill="#DBDBDB"/>
<path d="M145.463 0.913574H143.409V2.96922H145.463V0.913574Z" fill="#DBDBDB"/>
<path d="M145.463 5.02484H143.409V7.08047H145.463V5.02484Z" fill="#DBDBDB"/>
<path d="M145.463 7.08051H143.409V9.13615H145.463V7.08051Z" fill="#DBDBDB"/>
<path d="M143.404 0.913574H141.35V2.96922H143.404V0.913574Z" fill="#DBDBDB"/>
<path d="M143.404 5.02484H141.35V7.08047H143.404V5.02484Z" fill="#DBDBDB"/>
<path d="M141.35 0.913574H139.296V2.96922H141.35V0.913574Z" fill="#DBDBDB"/>
<path d="M141.35 5.02484H139.296V7.08047H141.35V5.02484Z" fill="#DBDBDB"/>
<path d="M139.296 0.913574H137.242V2.96922H139.296V0.913574Z" fill="#DBDBDB"/>
<path d="M139.296 5.02484H137.242V7.08047H139.296V5.02484Z" fill="#DBDBDB"/>
<path d="M137.242 0.913574H135.188V2.96922H137.242V0.913574Z" fill="#DBDBDB"/>
<path d="M137.242 5.02484H135.188V7.08047H137.242V5.02484Z" fill="#DBDBDB"/>
<path d="M135.188 0.913574H133.134V2.96922H135.188V0.913574Z" fill="#DBDBDB"/>
<path d="M135.188 5.02484H133.134V7.08047H135.188V5.02484Z" fill="#DBDBDB"/>
<path d="M133.134 0.913574H131.08V2.96922H133.134V0.913574Z" fill="#DBDBDB"/>
<path d="M133.134 5.02484H131.08V7.08047H133.134V5.02484Z" fill="#DBDBDB"/>
<path d="M131.08 0.913574H129.026V2.96922H131.08V0.913574Z" fill="#DBDBDB"/>
<path d="M131.08 5.02484H129.026V7.08047H131.08V5.02484Z" fill="#DBDBDB"/>
<path d="M131.08 7.08051H129.026V9.13615H131.08V7.08051Z" fill="#DBDBDB"/>
<path d="M145.463 9.14136H143.409V11.197H145.463V9.14136Z" fill="#DBDBDB"/>
<path d="M145.463 11.197H143.409V13.2526H145.463V11.197Z" fill="#DBDBDB"/>
<path d="M145.463 13.2526H143.409V15.3083H145.463V13.2526Z" fill="#DBDBDB"/>
<path d="M145.463 15.3083H143.409V17.3639H145.463V15.3083Z" fill="#DBDBDB"/>
<path d="M143.404 9.14136H141.35V11.197H143.404V9.14136Z" fill="#DBDBDB"/>
<path d="M143.404 13.2526H141.35V15.3083H143.404V13.2526Z" fill="#DBDBDB"/>
<path d="M605.599 0.913574H603.545V2.96922H605.599V0.913574Z" fill="#DBDBDB"/>
<path d="M605.599 5.02484H603.545V7.08047H605.599V5.02484Z" fill="#DBDBDB"/>
<path d="M603.545 0.913574H601.491V2.96922H603.545V0.913574Z" fill="#DBDBDB"/>
<path d="M603.545 5.02484H601.491V7.08047H603.545V5.02484Z" fill="#DBDBDB"/>
<path d="M603.545 7.08051H601.491V9.13615H603.545V7.08051Z" fill="#DBDBDB"/>
<path d="M601.491 0.913574H599.438V2.96922H601.491V0.913574Z" fill="#DBDBDB"/>
<path d="M603.545 11.197H601.491V13.2526H603.545V11.197Z" fill="#DBDBDB"/>
<path d="M603.545 13.2526H601.491V15.3083H603.545V13.2526Z" fill="#DBDBDB"/>
<path d="M603.545 15.3083H601.491V17.3639H603.545V15.3083Z" fill="#DBDBDB"/>
<path d="M601.491 15.3083H599.438V17.3639H601.491V15.3083Z" fill="#DBDBDB"/>
<path d="M599.432 0.913574H597.378V2.96922H599.432V0.913574Z" fill="#DBDBDB"/>
<path d="M597.378 0.913574H595.324V2.96922H597.378V0.913574Z" fill="#DBDBDB"/>
<path d="M597.378 5.02484H595.324V7.08047H597.378V5.02484Z" fill="#DBDBDB"/>
<path d="M595.324 0.913574H593.27V2.96922H595.324V0.913574Z" fill="#DBDBDB"/>
<path d="M595.324 5.02484H593.27V7.08047H595.324V5.02484Z" fill="#DBDBDB"/>
<path d="M593.27 0.913574H591.216V2.96922H593.27V0.913574Z" fill="#DBDBDB"/>
<path d="M593.27 5.02484H591.216V7.08047H593.27V5.02484Z" fill="#DBDBDB"/>
<path d="M591.216 0.913574H589.162V2.96922H591.216V0.913574Z" fill="#DBDBDB"/>
<path d="M591.216 5.02484H589.162V7.08047H591.216V5.02484Z" fill="#DBDBDB"/>
<path d="M589.162 0.913574H587.108V2.96922H589.162V0.913574Z" fill="#DBDBDB"/>
<path d="M589.162 5.02484H587.108V7.08047H589.162V5.02484Z" fill="#DBDBDB"/>
<path d="M587.108 0.913574H585.055V2.96922H587.108V0.913574Z" fill="#DBDBDB"/>
<path d="M587.108 5.02484H585.055V7.08047H587.108V5.02484Z" fill="#DBDBDB"/>
<path d="M585.054 0.913574H583V2.96922H585.054V0.913574Z" fill="#DBDBDB"/>
<path d="M599.432 15.3083H597.378V17.3639H599.432V15.3083Z" fill="#DBDBDB"/>
<path d="M597.378 7.08051H595.324V13.2474H597.378V7.08051Z" fill="#DBDBDB"/>
<path d="M597.378 15.3083H595.324V17.3639H597.378V15.3083Z" fill="#DBDBDB"/>
<path d="M593.27 9.14136H591.216V11.197H593.27V9.14136Z" fill="#DBDBDB"/>
<path d="M593.27 11.197H591.216V13.2526H593.27V11.197Z" fill="#DBDBDB"/>
<path d="M593.27 13.2526H591.216V15.3083H593.27V13.2526Z" fill="#DBDBDB"/>
<path d="M593.27 15.3083H591.216V17.3639H593.27V15.3083Z" fill="#DBDBDB"/>
<path d="M591.216 9.14136H589.162V11.197H591.216V9.14136Z" fill="#DBDBDB"/>
<path d="M591.216 11.197H589.162V13.2526H591.216V11.197Z" fill="#DBDBDB"/>
<path d="M591.216 13.2526H589.162V15.3083H591.216V13.2526Z" fill="#DBDBDB"/>
<path d="M591.216 15.3083H589.162V17.3639H591.216V15.3083Z" fill="#DBDBDB"/>
<path d="M587.108 11.197H585.055V13.2526H587.108V11.197Z" fill="#DBDBDB"/>
<path d="M587.108 15.3083H585.055V17.3639H587.108V15.3083Z" fill="#DBDBDB"/>
<path d="M585.054 15.3083H583V17.3639H585.054V15.3083Z" fill="#DBDBDB"/>
<path d="M583.001 0.913574H580.947V2.96922H583.001V0.913574Z" fill="#DBDBDB"/>
<path d="M583.001 5.02484H580.947V7.08047H583.001V5.02484Z" fill="#DBDBDB"/>
<path d="M583.001 7.08051H580.947V9.13615H583.001V7.08051Z" fill="#DBDBDB"/>
<path d="M580.947 0.913574H578.893V2.96922H580.947V0.913574Z" fill="#DBDBDB"/>
<path d="M580.947 5.02484H578.893V7.08047H580.947V5.02484Z" fill="#DBDBDB"/>
<path d="M578.887 0.913574H576.833V2.96922H578.887V0.913574Z" fill="#DBDBDB"/>
<path d="M578.887 5.02484H576.833V7.08047H578.887V5.02484Z" fill="#DBDBDB"/>
<path d="M576.833 0.913574H574.779V2.96922H576.833V0.913574Z" fill="#DBDBDB"/>
<path d="M576.833 5.02484H574.779V7.08047H576.833V5.02484Z" fill="#DBDBDB"/>
<path d="M574.779 0.913574H572.725V2.96922H574.779V0.913574Z" fill="#DBDBDB"/>
<path d="M574.779 5.02484H572.725V7.08047H574.779V5.02484Z" fill="#DBDBDB"/>
<path d="M572.726 0.913574H570.672V2.96922H572.726V0.913574Z" fill="#DBDBDB"/>
<path d="M572.726 5.02484H570.672V7.08047H572.726V5.02484Z" fill="#DBDBDB"/>
<path d="M570.671 0.913574H568.617V2.96922H570.671V0.913574Z" fill="#DBDBDB"/>
<path d="M570.671 5.02484H568.617V7.08047H570.671V5.02484Z" fill="#DBDBDB"/>
<path d="M568.618 0.913574H566.564V2.96922H568.618V0.913574Z" fill="#DBDBDB"/>
<path d="M568.618 5.02484H566.564V7.08047H568.618V5.02484Z" fill="#DBDBDB"/>
<path d="M568.618 7.08051H566.564V9.13615H568.618V7.08051Z" fill="#DBDBDB"/>
<path d="M583.001 9.14136H580.947V11.197H583.001V9.14136Z" fill="#DBDBDB"/>
<path d="M583.001 11.197H580.947V13.2526H583.001V11.197Z" fill="#DBDBDB"/>
<path d="M583.001 13.2526H580.947V15.3083H583.001V13.2526Z" fill="#DBDBDB"/>
<path d="M583.001 15.3083H580.947V17.3639H583.001V15.3083Z" fill="#DBDBDB"/>
<path d="M580.947 9.14136H578.893V11.197H580.947V9.14136Z" fill="#DBDBDB"/>
<path d="M580.947 13.2526H578.893V15.3083H580.947V13.2526Z" fill="#DBDBDB"/>
<path d="M576.833 9.14136H574.779V11.197H576.833V9.14136Z" fill="#DBDBDB"/>
<path d="M576.833 13.2526H574.779V15.3083H576.833V13.2526Z" fill="#DBDBDB"/>
<path d="M574.779 11.197H572.725V13.2526H574.779V11.197Z" fill="#DBDBDB"/>
<path d="M574.779 15.3083H572.725V17.3639H574.779V15.3083Z" fill="#DBDBDB"/>
<path d="M570.671 9.14136H568.617V11.197H570.671V9.14136Z" fill="#DBDBDB"/>
<path d="M570.671 13.2526H568.617V15.3083H570.671V13.2526Z" fill="#DBDBDB"/>
<path d="M568.618 9.14136H566.564V11.197H568.618V9.14136Z" fill="#DBDBDB"/>
<path d="M568.618 11.197H566.564V13.2526H568.618V11.197Z" fill="#DBDBDB"/>
<path d="M568.618 13.2526H566.564V15.3083H568.618V13.2526Z" fill="#DBDBDB"/>
<path d="M568.618 15.3083H566.564V17.3639H568.618V15.3083Z" fill="#DBDBDB"/>
<path d="M566.564 0.913574H564.51V2.96922H566.564V0.913574Z" fill="#DBDBDB"/>
<path d="M566.564 7.08051H564.51V9.13615H566.564V7.08051Z" fill="#DBDBDB"/>
<path d="M564.51 0.913574H562.456V2.96922H564.51V0.913574Z" fill="#DBDBDB"/>
<path d="M564.51 5.02484H562.456V7.08047H564.51V5.02484Z" fill="#DBDBDB"/>
<path d="M562.456 0.913574H560.402V2.96922H562.456V0.913574Z" fill="#DBDBDB"/>
<path d="M562.456 7.08051H560.402V9.13615H562.456V7.08051Z" fill="#DBDBDB"/>
<path d="M560.402 0.913574H558.348V2.96922H560.402V0.913574Z" fill="#DBDBDB"/>
<path d="M560.402 5.02484H558.348V7.08047H560.402V5.02484Z" fill="#DBDBDB"/>
<path d="M558.348 0.913574H556.294V2.96922H558.348V0.913574Z" fill="#DBDBDB"/>
<path d="M558.348 7.08051H556.294V9.13615H558.348V7.08051Z" fill="#DBDBDB"/>
<path d="M556.289 0.913574H554.234V2.96922H556.289V0.913574Z" fill="#DBDBDB"/>
<path d="M556.289 5.02484H554.234V7.08047H556.289V5.02484Z" fill="#DBDBDB"/>
<path d="M554.234 0.913574H552.181V2.96922H554.234V0.913574Z" fill="#DBDBDB"/>
<path d="M554.234 7.08051H552.181V9.13615H554.234V7.08051Z" fill="#DBDBDB"/>
<path d="M552.181 0.913574H550.127V2.96922H552.181V0.913574Z" fill="#DBDBDB"/>
<path d="M552.181 5.02484H550.127V7.08047H552.181V5.02484Z" fill="#DBDBDB"/>
<path d="M566.564 15.3083H564.51V17.3639H566.564V15.3083Z" fill="#DBDBDB"/>
<path d="M564.51 11.197H562.456V13.2526H564.51V11.197Z" fill="#DBDBDB"/>
<path d="M564.51 15.3083H562.456V17.3639H564.51V15.3083Z" fill="#DBDBDB"/>
<path d="M562.456 15.3083H560.402V17.3639H562.456V15.3083Z" fill="#DBDBDB"/>
<path d="M560.402 11.197H558.348V13.2526H560.402V11.197Z" fill="#DBDBDB"/>
<path d="M560.402 15.3083H558.348V17.3639H560.402V15.3083Z" fill="#DBDBDB"/>
<path d="M558.348 15.3083H556.294V17.3639H558.348V15.3083Z" fill="#DBDBDB"/>
<path d="M556.289 11.197H554.234V13.2526H556.289V11.197Z" fill="#DBDBDB"/>
<path d="M556.289 15.3083H554.234V17.3639H556.289V15.3083Z" fill="#DBDBDB"/>
<path d="M554.234 15.3083H552.181V17.3639H554.234V15.3083Z" fill="#DBDBDB"/>
<path d="M552.181 11.197H550.127V13.2526H552.181V11.197Z" fill="#DBDBDB"/>
<path d="M552.181 15.3083H550.127V17.3639H552.181V15.3083Z" fill="#DBDBDB"/>
<path d="M550.127 0.913574H548.073V2.96922H550.127V0.913574Z" fill="#DBDBDB"/>
<path d="M548.073 0.913574H546.019V2.96922H548.073V0.913574Z" fill="#DBDBDB"/>
<path d="M548.073 5.02484H546.019V7.08047H548.073V5.02484Z" fill="#DBDBDB"/>
<path d="M548.073 7.08051H546.019V9.13615H548.073V7.08051Z" fill="#DBDBDB"/>
<path d="M546.019 0.913574H543.965V2.96922H546.019V0.913574Z" fill="#DBDBDB"/>
<path d="M546.019 5.02484H543.965V7.08047H546.019V5.02484Z" fill="#DBDBDB"/>
<path d="M543.965 0.913574H541.911V2.96922H543.965V0.913574Z" fill="#DBDBDB"/>
<path d="M543.965 5.02484H541.911V7.08047H543.965V5.02484Z" fill="#DBDBDB"/>
<path d="M541.911 0.913574H539.857V2.96922H541.911V0.913574Z" fill="#DBDBDB"/>
<path d="M541.911 5.02484H539.857V7.08047H541.911V5.02484Z" fill="#DBDBDB"/>
<path d="M539.857 0.913574H537.803V2.96922H539.857V0.913574Z" fill="#DBDBDB"/>
<path d="M539.857 5.02484H537.803V7.08047H539.857V5.02484Z" fill="#DBDBDB"/>
<path d="M537.803 0.913574H535.749V2.96922H537.803V0.913574Z" fill="#DBDBDB"/>
<path d="M537.803 5.02484H535.749V7.08047H537.803V5.02484Z" fill="#DBDBDB"/>
<path d="M537.803 7.08051H535.749V9.13615H537.803V7.08051Z" fill="#DBDBDB"/>
<path d="M535.744 0.913574H533.69V2.96922H535.744V0.913574Z" fill="#DBDBDB"/>
<path d="M550.127 15.3083H548.073V17.3639H550.127V15.3083Z" fill="#DBDBDB"/>
<path d="M548.073 9.14136H546.019V11.197H548.073V9.14136Z" fill="#DBDBDB"/>
<path d="M548.073 11.197H546.019V13.2526H548.073V11.197Z" fill="#DBDBDB"/>
<path d="M548.073 13.2526H546.019V15.3083H548.073V13.2526Z" fill="#DBDBDB"/>
<path d="M548.073 15.3083H546.019V17.3639H548.073V15.3083Z" fill="#DBDBDB"/>
<path d="M543.965 9.14136H541.911V11.197H543.965V9.14136Z" fill="#DBDBDB"/>
<path d="M543.965 11.197H541.911V13.2526H543.965V11.197Z" fill="#DBDBDB"/>
<path d="M543.965 13.2526H541.911V15.3083H543.965V13.2526Z" fill="#DBDBDB"/>
<path d="M543.965 15.3083H541.911V17.3639H543.965V15.3083Z" fill="#DBDBDB"/>
<path d="M541.911 9.14136H539.857V11.197H541.911V9.14136Z" fill="#DBDBDB"/>
<path d="M541.911 11.197H539.857V13.2526H541.911V11.197Z" fill="#DBDBDB"/>
<path d="M541.911 13.2526H539.857V15.3083H541.911V13.2526Z" fill="#DBDBDB"/>
<path d="M541.911 15.3083H539.857V17.3639H541.911V15.3083Z" fill="#DBDBDB"/>
<path d="M537.803 9.14136H535.749V11.197H537.803V9.14136Z" fill="#DBDBDB"/>
<path d="M537.803 11.197H535.749V13.2526H537.803V11.197Z" fill="#DBDBDB"/>
<path d="M537.803 13.2526H535.749V15.3083H537.803V13.2526Z" fill="#DBDBDB"/>
<path d="M537.803 15.3083H535.749V17.3639H537.803V15.3083Z" fill="#DBDBDB"/>
<path d="M535.744 15.3083H533.69V17.3639H535.744V15.3083Z" fill="#DBDBDB"/>
<path d="M533.69 0.913574H531.636V2.96922H533.69V0.913574Z" fill="#DBDBDB"/>
<path d="M531.636 0.913574H529.582V2.96922H531.636V0.913574Z" fill="#DBDBDB"/>
<path d="M531.636 5.02484H529.582V7.08047H531.636V5.02484Z" fill="#DBDBDB"/>
<path d="M529.582 0.913574H527.528V2.96922H529.582V0.913574Z" fill="#DBDBDB"/>
<path d="M529.582 5.02484H527.528V7.08047H529.582V5.02484Z" fill="#DBDBDB"/>
<path d="M527.528 0.913574H525.474V2.96922H527.528V0.913574Z" fill="#DBDBDB"/>
<path d="M527.528 5.02484H525.474V7.08047H527.528V5.02484Z" fill="#DBDBDB"/>
<path d="M525.474 0.913574H523.42V2.96922H525.474V0.913574Z" fill="#DBDBDB"/>
<path d="M525.474 5.02484H523.42V7.08047H525.474V5.02484Z" fill="#DBDBDB"/>
<path d="M523.42 0.913574H521.366V2.96922H523.42V0.913574Z" fill="#DBDBDB"/>
<path d="M523.42 5.02484H521.366V7.08047H523.42V5.02484Z" fill="#DBDBDB"/>
<path d="M521.366 0.913574H519.312V2.96922H521.366V0.913574Z" fill="#DBDBDB"/>
<path d="M521.366 5.02484H519.312V7.08047H521.366V5.02484Z" fill="#DBDBDB"/>
<path d="M519.312 0.913574H517.258V2.96922H519.312V0.913574Z" fill="#DBDBDB"/>
<path d="M533.69 15.3083H531.636V17.3639H533.69V15.3083Z" fill="#DBDBDB"/>
<path d="M535.744 11.197H529.582V13.2526H535.744V11.197Z" fill="#DBDBDB"/>
<path d="M531.636 15.3083H529.582V17.3639H531.636V15.3083Z" fill="#DBDBDB"/>
<path d="M527.528 9.14136H525.474V11.197H527.528V9.14136Z" fill="#DBDBDB"/>
<path d="M527.528 11.197H525.474V13.2526H527.528V11.197Z" fill="#DBDBDB"/>
<path d="M527.528 13.2526H525.474V15.3083H527.528V13.2526Z" fill="#DBDBDB"/>
<path d="M527.528 15.3083H525.474V17.3639H527.528V15.3083Z" fill="#DBDBDB"/>
<path d="M525.474 9.14136H523.42V11.197H525.474V9.14136Z" fill="#DBDBDB"/>
<path d="M525.474 11.197H523.42V13.2526H525.474V11.197Z" fill="#DBDBDB"/>
<path d="M525.474 13.2526H523.42V15.3083H525.474V13.2526Z" fill="#DBDBDB"/>
<path d="M525.474 15.3083H523.42V17.3639H525.474V15.3083Z" fill="#DBDBDB"/>
<path d="M521.366 11.197H519.312V13.2526H521.366V11.197Z" fill="#DBDBDB"/>
<path d="M521.366 15.3083H519.312V17.3639H521.366V15.3083Z" fill="#DBDBDB"/>
<path d="M519.312 15.3083H517.258V17.3639H519.312V15.3083Z" fill="#DBDBDB"/>
<path d="M517.258 0.913574H515.204V2.96922H517.258V0.913574Z" fill="#DBDBDB"/>
<path d="M517.258 5.02484H515.204V7.08047H517.258V5.02484Z" fill="#DBDBDB"/>
<path d="M517.258 7.08051H515.204V9.13615H517.258V7.08051Z" fill="#DBDBDB"/>
<path d="M515.199 0.913574H513.145V2.96922H515.199V0.913574Z" fill="#DBDBDB"/>
<path d="M515.199 5.02484H513.145V7.08047H515.199V5.02484Z" fill="#DBDBDB"/>
<path d="M513.145 0.913574H511.091V2.96922H513.145V0.913574Z" fill="#DBDBDB"/>
<path d="M513.145 5.02484H511.091V7.08047H513.145V5.02484Z" fill="#DBDBDB"/>
<path d="M517.258 9.14136H515.204V11.197H517.258V9.14136Z" fill="#DBDBDB"/>
<path d="M517.258 11.197H515.204V13.2526H517.258V11.197Z" fill="#DBDBDB"/>
<path d="M517.258 13.2526H515.204V15.3083H517.258V13.2526Z" fill="#DBDBDB"/>
<path d="M517.258 15.3083H515.204V17.3639H517.258V15.3083Z" fill="#DBDBDB"/>
<path d="M515.199 9.14136H513.145V11.197H515.199V9.14136Z" fill="#DBDBDB"/>
<path d="M515.199 13.2526H513.145V15.3083H515.199V13.2526Z" fill="#DBDBDB"/>
<path d="M139.296 9.14136H137.242V11.197H139.296V9.14136Z" fill="#DBDBDB"/>
<path d="M139.296 13.2526H137.242V15.3083H139.296V13.2526Z" fill="#DBDBDB"/>
<path d="M137.242 11.197H135.188V13.2526H137.242V11.197Z" fill="#DBDBDB"/>
<path d="M133.134 9.14136H131.08V11.197H133.134V9.14136Z" fill="#DBDBDB"/>
<path d="M133.134 13.2526H131.08V15.3083H133.134V13.2526Z" fill="#DBDBDB"/>
<path d="M131.08 9.14136H129.026V11.197H131.08V9.14136Z" fill="#DBDBDB"/>
<path d="M131.08 11.197H129.026V13.2526H131.08V11.197Z" fill="#DBDBDB"/>
<path d="M131.08 13.2526H129.026V15.3083H131.08V13.2526Z" fill="#DBDBDB"/>
<path d="M131.08 15.3083H129.026V17.3639H131.08V15.3083Z" fill="#DBDBDB"/>
<path d="M129.026 0.913574H126.972V2.96922H129.026V0.913574Z" fill="#DBDBDB"/>
<path d="M129.026 7.08051H126.972V9.13615H129.026V7.08051Z" fill="#DBDBDB"/>
<path d="M126.972 0.913574H124.918V2.96922H126.972V0.913574Z" fill="#DBDBDB"/>
<path d="M126.972 5.02484H124.918V7.08047H126.972V5.02484Z" fill="#DBDBDB"/>
<path d="M124.918 0.913574H122.864V2.96922H124.918V0.913574Z" fill="#DBDBDB"/>
<path d="M124.918 7.08051H122.864V9.13615H124.918V7.08051Z" fill="#DBDBDB"/>
<path d="M122.864 0.913574H120.81V2.96922H122.864V0.913574Z" fill="#DBDBDB"/>
<path d="M122.864 5.02484H120.81V7.08047H122.864V5.02484Z" fill="#DBDBDB"/>
<path d="M120.805 0.913574H118.751V2.96922H120.805V0.913574Z" fill="#DBDBDB"/>
<path d="M120.805 7.08051H118.751V9.13615H120.805V7.08051Z" fill="#DBDBDB"/>
<path d="M129.026 15.3083H126.972V17.3639H129.026V15.3083Z" fill="#DBDBDB"/>
<path d="M126.972 11.197H124.918V13.2526H126.972V11.197Z" fill="#DBDBDB"/>
<path d="M126.972 15.3083H124.918V17.3639H126.972V15.3083Z" fill="#DBDBDB"/>
<path d="M124.918 15.3083H122.864V17.3639H124.918V15.3083Z" fill="#DBDBDB"/>
<path d="M122.864 11.197H120.81V13.2526H122.864V11.197Z" fill="#DBDBDB"/>
<path d="M122.864 15.3083H120.81V17.3639H122.864V15.3083Z" fill="#DBDBDB"/>
<path d="M120.805 15.3083H118.751V17.3639H120.805V15.3083Z" fill="#DBDBDB"/>
<path d="M320.092 15.3083H318.038V17.3639H320.092V15.3083Z" fill="#DBDBDB"/>
<path d="M320.092 11.197H318.038V13.2526H320.092V11.197Z" fill="#DBDBDB"/>
<path d="M318.038 15.3083H315.984V17.3639H318.038V15.3083Z" fill="#DBDBDB"/>
<path d="M318.038 9.14136H315.984V11.197H318.038V9.14136Z" fill="#DBDBDB"/>
<path d="M315.984 15.3083H313.93V17.3639H315.984V15.3083Z" fill="#DBDBDB"/>
<path d="M315.984 11.197H313.93V13.2526H315.984V11.197Z" fill="#DBDBDB"/>
<path d="M313.93 15.3083H311.876V17.3639H313.93V15.3083Z" fill="#DBDBDB"/>
<path d="M313.93 9.14136H311.876V11.197H313.93V9.14136Z" fill="#DBDBDB"/>
<path d="M311.871 15.3083H309.817V17.3639H311.871V15.3083Z" fill="#DBDBDB"/>
<path d="M311.871 11.197H309.817V13.2526H311.871V11.197Z" fill="#DBDBDB"/>
<path d="M320.092 5.02484H318.038V7.08047H320.092V5.02484Z" fill="#DBDBDB"/>
<path d="M320.092 0.913574H318.038V2.96922H320.092V0.913574Z" fill="#DBDBDB"/>
<path d="M318.038 0.913574H315.984V2.96922H318.038V0.913574Z" fill="#DBDBDB"/>
<path d="M315.984 5.02484H313.93V7.08047H315.984V5.02484Z" fill="#DBDBDB"/>
<path d="M315.984 0.913574H313.93V2.96922H315.984V0.913574Z" fill="#DBDBDB"/>
<path d="M313.93 0.913574H311.876V2.96922H313.93V0.913574Z" fill="#DBDBDB"/>
<path d="M311.871 5.02484H309.817V7.08047H311.871V5.02484Z" fill="#DBDBDB"/>
<path d="M311.871 0.913574H309.817V2.96922H311.871V0.913574Z" fill="#DBDBDB"/>
<path d="M309.817 15.3083H307.763V17.3639H309.817V15.3083Z" fill="#DBDBDB"/>
<path d="M307.763 15.3083H305.709V17.3639H307.763V15.3083Z" fill="#DBDBDB"/>
<path d="M307.763 11.197H305.709V13.2526H307.763V11.197Z" fill="#DBDBDB"/>
<path d="M307.763 9.14136H305.709V11.197H307.763V9.14136Z" fill="#DBDBDB"/>
<path d="M305.709 15.3083H303.655V17.3639H305.709V15.3083Z" fill="#DBDBDB"/>
<path d="M305.709 11.197H303.655V13.2526H305.709V11.197Z" fill="#DBDBDB"/>
<path d="M303.655 15.3083H301.601V17.3639H303.655V15.3083Z" fill="#DBDBDB"/>
<path d="M303.655 11.197H301.601V13.2526H303.655V11.197Z" fill="#DBDBDB"/>
<path d="M301.601 15.3083H299.547V17.3639H301.601V15.3083Z" fill="#DBDBDB"/>
<path d="M301.601 11.197H299.547V13.2526H301.601V11.197Z" fill="#DBDBDB"/>
<path d="M299.547 15.3083H297.493V17.3639H299.547V15.3083Z" fill="#DBDBDB"/>
<path d="M299.547 11.197H297.493V13.2526H299.547V11.197Z" fill="#DBDBDB"/>
<path d="M297.493 15.3083H295.439V17.3639H297.493V15.3083Z" fill="#DBDBDB"/>
<path d="M297.493 11.197H295.439V13.2526H297.493V11.197Z" fill="#DBDBDB"/>
<path d="M297.493 9.14136H295.439V11.197H297.493V9.14136Z" fill="#DBDBDB"/>
<path d="M295.439 15.3083H293.385V17.3639H295.439V15.3083Z" fill="#DBDBDB"/>
<path d="M309.817 0.913574H307.763V2.96922H309.817V0.913574Z" fill="#DBDBDB"/>
<path d="M307.763 7.08051H305.709V9.13615H307.763V7.08051Z" fill="#DBDBDB"/>
<path d="M307.763 5.02484H305.709V7.08047H307.763V5.02484Z" fill="#DBDBDB"/>
<path d="M307.763 2.96924H305.709V5.02488H307.763V2.96924Z" fill="#DBDBDB"/>
<path d="M307.763 0.913574H305.709V2.96922H307.763V0.913574Z" fill="#DBDBDB"/>
<path d="M303.655 7.08051H301.601V9.13615H303.655V7.08051Z" fill="#DBDBDB"/>
<path d="M303.655 5.02484H301.601V7.08047H303.655V5.02484Z" fill="#DBDBDB"/>
<path d="M303.655 2.96924H301.601V5.02488H303.655V2.96924Z" fill="#DBDBDB"/>
<path d="M303.655 0.913574H301.601V2.96922H303.655V0.913574Z" fill="#DBDBDB"/>
<path d="M301.601 7.08051H299.547V9.13615H301.601V7.08051Z" fill="#DBDBDB"/>
<path d="M301.601 5.02484H299.547V7.08047H301.601V5.02484Z" fill="#DBDBDB"/>
<path d="M301.601 2.96924H299.547V5.02488H301.601V2.96924Z" fill="#DBDBDB"/>
<path d="M301.601 0.913574H299.547V2.96922H301.601V0.913574Z" fill="#DBDBDB"/>
<path d="M297.493 7.08051H295.439V9.13615H297.493V7.08051Z" fill="#DBDBDB"/>
<path d="M297.493 5.02484H295.439V7.08047H297.493V5.02484Z" fill="#DBDBDB"/>
<path d="M297.493 2.96924H295.439V5.02488H297.493V2.96924Z" fill="#DBDBDB"/>
<path d="M297.493 0.913574H295.439V2.96922H297.493V0.913574Z" fill="#DBDBDB"/>
<path d="M295.439 0.913574H293.385V2.96922H295.439V0.913574Z" fill="#DBDBDB"/>
<path d="M293.385 15.3083H291.331V17.3639H293.385V15.3083Z" fill="#DBDBDB"/>
<path d="M291.326 15.3083H289.272V17.3639H291.326V15.3083Z" fill="#DBDBDB"/>
<path d="M291.326 11.197H289.272V13.2526H291.326V11.197Z" fill="#DBDBDB"/>
<path d="M289.272 15.3083H287.218V17.3639H289.272V15.3083Z" fill="#DBDBDB"/>
<path d="M289.272 11.197H287.218V13.2526H289.272V11.197Z" fill="#DBDBDB"/>
<path d="M287.218 15.3083H285.164V17.3639H287.218V15.3083Z" fill="#DBDBDB"/>
<path d="M287.218 11.197H285.164V13.2526H287.218V11.197Z" fill="#DBDBDB"/>
<path d="M285.164 15.3083H283.11V17.3639H285.164V15.3083Z" fill="#DBDBDB"/>
<path d="M285.164 11.197H283.11V13.2526H285.164V11.197Z" fill="#DBDBDB"/>
<path d="M283.11 15.3083H281.056V17.3639H283.11V15.3083Z" fill="#DBDBDB"/>
<path d="M283.11 11.197H281.056V13.2526H283.11V11.197Z" fill="#DBDBDB"/>
<path d="M281.056 15.3083H279.002V17.3639H281.056V15.3083Z" fill="#DBDBDB"/>
<path d="M281.056 11.197H279.002V13.2526H281.056V11.197Z" fill="#DBDBDB"/>
<path d="M279.002 15.3083H276.948V17.3639H279.002V15.3083Z" fill="#DBDBDB"/>
<path d="M293.385 0.913574H291.331V2.96922H293.385V0.913574Z" fill="#DBDBDB"/>
<path d="M291.326 5.02484H289.272V7.08047H291.326V5.02484Z" fill="#DBDBDB"/>
<path d="M291.326 0.913574H289.272V2.96922H291.326V0.913574Z" fill="#DBDBDB"/>
<path d="M287.218 7.08051H285.164V9.13615H287.218V7.08051Z" fill="#DBDBDB"/>
<path d="M287.218 5.02484H285.164V7.08047H287.218V5.02484Z" fill="#DBDBDB"/>
<path d="M287.218 2.96924H285.164V5.02488H287.218V2.96924Z" fill="#DBDBDB"/>
<path d="M287.218 0.913574H285.164V2.96922H287.218V0.913574Z" fill="#DBDBDB"/>
<path d="M285.164 7.08051H283.11V9.13615H285.164V7.08051Z" fill="#DBDBDB"/>
<path d="M285.164 5.02484H283.11V7.08047H285.164V5.02484Z" fill="#DBDBDB"/>
<path d="M285.164 2.96924H283.11V5.02488H285.164V2.96924Z" fill="#DBDBDB"/>
<path d="M285.164 0.913574H283.11V2.96922H285.164V0.913574Z" fill="#DBDBDB"/>
<path d="M281.056 5.02484H279.002V7.08047H281.056V5.02484Z" fill="#DBDBDB"/>
<path d="M281.056 0.913574H279.002V2.96922H281.056V0.913574Z" fill="#DBDBDB"/>
<path d="M279.002 0.913574H276.948V2.96922H279.002V0.913574Z" fill="#DBDBDB"/>
<path d="M276.948 15.3083H274.894V17.3639H276.948V15.3083Z" fill="#DBDBDB"/>
<path d="M276.948 11.197H274.894V13.2526H276.948V11.197Z" fill="#DBDBDB"/>
<path d="M276.948 9.14136H274.894V11.197H276.948V9.14136Z" fill="#DBDBDB"/>
<path d="M274.894 15.3083H272.84V17.3639H274.894V15.3083Z" fill="#DBDBDB"/>
<path d="M274.894 11.197H272.84V13.2526H274.894V11.197Z" fill="#DBDBDB"/>
<path d="M272.84 15.3083H270.786V17.3639H272.84V15.3083Z" fill="#DBDBDB"/>
<path d="M272.84 11.197H270.786V13.2526H272.84V11.197Z" fill="#DBDBDB"/>
<path d="M270.781 15.3083H268.727V17.3639H270.781V15.3083Z" fill="#DBDBDB"/>
<path d="M270.781 11.197H268.727V13.2526H270.781V11.197Z" fill="#DBDBDB"/>
<path d="M268.727 15.3083H266.673V17.3639H268.727V15.3083Z" fill="#DBDBDB"/>
<path d="M268.727 11.197H266.673V13.2526H268.727V11.197Z" fill="#DBDBDB"/>
<path d="M266.673 15.3083H264.619V17.3639H266.673V15.3083Z" fill="#DBDBDB"/>
<path d="M266.673 11.197H264.619V13.2526H266.673V11.197Z" fill="#DBDBDB"/>
<path d="M264.619 15.3083H262.565V17.3639H264.619V15.3083Z" fill="#DBDBDB"/>
<path d="M264.619 11.197H262.565V13.2526H264.619V11.197Z" fill="#DBDBDB"/>
<path d="M262.565 15.3083H260.511V17.3639H262.565V15.3083Z" fill="#DBDBDB"/>
<path d="M262.565 11.197H260.511V13.2526H262.565V11.197Z" fill="#DBDBDB"/>
<path d="M262.565 9.14136H260.511V11.197H262.565V9.14136Z" fill="#DBDBDB"/>
<path d="M276.948 7.08051H274.894V9.13615H276.948V7.08051Z" fill="#DBDBDB"/>
<path d="M276.948 5.02484H274.894V7.08047H276.948V5.02484Z" fill="#DBDBDB"/>
<path d="M276.948 2.96924H274.894V5.02488H276.948V2.96924Z" fill="#DBDBDB"/>
<path d="M276.948 0.913574H274.894V2.96922H276.948V0.913574Z" fill="#DBDBDB"/>
<path d="M274.894 7.08051H272.84V9.13615H274.894V7.08051Z" fill="#DBDBDB"/>
<path d="M274.894 2.96924H272.84V5.02488H274.894V2.96924Z" fill="#DBDBDB"/>
<path d="M270.781 7.08051H268.727V9.13615H270.781V7.08051Z" fill="#DBDBDB"/>
<path d="M270.781 2.96924H268.727V5.02488H270.781V2.96924Z" fill="#DBDBDB"/>
<path d="M268.727 5.02484H266.673V7.08047H268.727V5.02484Z" fill="#DBDBDB"/>
<path d="M268.727 0.913574H266.673V2.96922H268.727V0.913574Z" fill="#DBDBDB"/>
<path d="M264.619 7.08051H262.565V9.13615H264.619V7.08051Z" fill="#DBDBDB"/>
<path d="M264.619 2.96924H262.565V5.02488H264.619V2.96924Z" fill="#DBDBDB"/>
<path d="M262.565 7.08051H260.511V9.13615H262.565V7.08051Z" fill="#DBDBDB"/>
<path d="M262.565 5.02484H260.511V7.08047H262.565V5.02484Z" fill="#DBDBDB"/>
<path d="M262.565 2.96924H260.511V5.02488H262.565V2.96924Z" fill="#DBDBDB"/>
<path d="M262.565 0.913574H260.511V2.96922H262.565V0.913574Z" fill="#DBDBDB"/>
<path d="M260.511 15.3083H258.457V17.3639H260.511V15.3083Z" fill="#DBDBDB"/>
<path d="M260.511 9.14136H258.457V11.197H260.511V9.14136Z" fill="#DBDBDB"/>
<path d="M258.457 15.3083H256.403V17.3639H258.457V15.3083Z" fill="#DBDBDB"/>
<path d="M258.457 11.197H256.403V13.2526H258.457V11.197Z" fill="#DBDBDB"/>
<path d="M256.403 15.3083H254.349V17.3639H256.403V15.3083Z" fill="#DBDBDB"/>
<path d="M256.403 9.14136H254.349V11.197H256.403V9.14136Z" fill="#DBDBDB"/>
<path d="M254.349 15.3083H252.295V17.3639H254.349V15.3083Z" fill="#DBDBDB"/>
<path d="M254.349 11.197H252.295V13.2526H254.349V11.197Z" fill="#DBDBDB"/>
<path d="M252.295 15.3083H250.241V17.3639H252.295V15.3083Z" fill="#DBDBDB"/>
<path d="M252.295 9.14136H250.241V11.197H252.295V9.14136Z" fill="#DBDBDB"/>
<path d="M250.241 15.3083H248.187V17.3639H250.241V15.3083Z" fill="#DBDBDB"/>
<path d="M250.241 11.197H248.187V13.2526H250.241V11.197Z" fill="#DBDBDB"/>
<path d="M248.182 15.3083H246.128V17.3639H248.182V15.3083Z" fill="#DBDBDB"/>
<path d="M248.182 9.14136H246.128V11.197H248.182V9.14136Z" fill="#DBDBDB"/>
<path d="M246.128 15.3083H244.074V17.3639H246.128V15.3083Z" fill="#DBDBDB"/>
<path d="M246.128 11.197H244.074V13.2526H246.128V11.197Z" fill="#DBDBDB"/>
<path d="M260.511 0.913574H258.457V2.96922H260.511V0.913574Z" fill="#DBDBDB"/>
<path d="M258.457 5.02484H242.02V7.08047H258.457V5.02484Z" fill="#DBDBDB"/>
<path d="M258.457 0.913574H256.403V2.96922H258.457V0.913574Z" fill="#DBDBDB"/>
<path d="M256.403 0.913574H254.349V2.96922H256.403V0.913574Z" fill="#DBDBDB"/>
<path d="M254.349 0.913574H252.295V2.96922H254.349V0.913574Z" fill="#DBDBDB"/>
<path d="M252.295 0.913574H250.241V2.96922H252.295V0.913574Z" fill="#DBDBDB"/>
<path d="M250.241 0.913574H248.187V2.96922H250.241V0.913574Z" fill="#DBDBDB"/>
<path d="M248.182 0.913574H246.128V2.96922H248.182V0.913574Z" fill="#DBDBDB"/>
<path d="M246.128 0.913574H244.074V2.96922H246.128V0.913574Z" fill="#DBDBDB"/>
<path d="M365.243 0.913574H363.189V2.96922H365.243V0.913574Z" fill="#DBDBDB"/>
<path d="M365.243 5.02484H363.189V7.08047H365.243V5.02484Z" fill="#DBDBDB"/>
<path d="M367.297 0.913574H365.243V2.96922H367.297V0.913574Z" fill="#DBDBDB"/>
<path d="M371.405 7.08051H365.243V9.13615H371.405V7.08051Z" fill="#DBDBDB"/>
<path d="M369.351 0.913574H367.297V2.96922H369.351V0.913574Z" fill="#DBDBDB"/>
<path d="M371.405 0.913574H369.351V2.96922H371.405V0.913574Z" fill="#DBDBDB"/>
<path d="M373.459 0.913574H371.405V2.96922H373.459V0.913574Z" fill="#DBDBDB"/>
<path d="M373.459 5.02484H371.405V7.08047H373.459V5.02484Z" fill="#DBDBDB"/>
<path d="M375.513 0.913574H373.459V2.96922H375.513V0.913574Z" fill="#DBDBDB"/>
<path d="M375.513 7.08051H373.459V9.13615H375.513V7.08051Z" fill="#DBDBDB"/>
<path d="M377.567 0.913574H375.513V2.96922H377.567V0.913574Z" fill="#DBDBDB"/>
<path d="M377.567 5.02484H375.513V7.08047H377.567V5.02484Z" fill="#DBDBDB"/>
<path d="M365.243 11.197H363.189V13.2526H365.243V11.197Z" fill="#DBDBDB"/>
<path d="M365.243 15.3083H363.189V17.3639H365.243V15.3083Z" fill="#DBDBDB"/>
<path d="M367.297 15.3083H365.243V17.3639H367.297V15.3083Z" fill="#DBDBDB"/>
<path d="M369.351 9.14136H367.297V13.2526H369.351V9.14136Z" fill="#DBDBDB"/>
<path d="M369.351 15.3083H367.297V17.3639H369.351V15.3083Z" fill="#DBDBDB"/>
<path d="M371.405 15.3083H369.351V17.3639H371.405V15.3083Z" fill="#DBDBDB"/>
<path d="M373.459 11.197H371.405V13.2526H373.459V11.197Z" fill="#DBDBDB"/>
<path d="M373.459 15.3083H371.405V17.3639H373.459V15.3083Z" fill="#DBDBDB"/>
<path d="M375.513 15.3083H373.459V17.3639H375.513V15.3083Z" fill="#DBDBDB"/>
<path d="M377.567 11.197H375.513V13.2526H377.567V11.197Z" fill="#DBDBDB"/>
<path d="M377.567 15.3083H375.513V17.3639H377.567V15.3083Z" fill="#DBDBDB"/>
<path d="M379.621 0.913574H377.567V2.96922H379.621V0.913574Z" fill="#DBDBDB"/>
<path d="M381.68 0.913574H379.626V2.96922H381.68V0.913574Z" fill="#DBDBDB"/>
<path d="M381.68 5.02484H379.626V7.08047H381.68V5.02484Z" fill="#DBDBDB"/>
<path d="M381.68 7.08051H379.626V9.13615H381.68V7.08051Z" fill="#DBDBDB"/>
<path d="M383.734 0.913574H381.68V2.96922H383.734V0.913574Z" fill="#DBDBDB"/>
<path d="M383.734 5.02484H381.68V7.08047H383.734V5.02484Z" fill="#DBDBDB"/>
<path d="M385.788 0.913574H383.734V2.96922H385.788V0.913574Z" fill="#DBDBDB"/>
<path d="M385.788 5.02484H383.734V7.08047H385.788V5.02484Z" fill="#DBDBDB"/>
<path d="M387.842 0.913574H385.788V2.96922H387.842V0.913574Z" fill="#DBDBDB"/>
<path d="M387.842 5.02484H385.788V7.08047H387.842V5.02484Z" fill="#DBDBDB"/>
<path d="M389.896 0.913574H387.842V2.96922H389.896V0.913574Z" fill="#DBDBDB"/>
<path d="M389.896 5.02484H387.842V7.08047H389.896V5.02484Z" fill="#DBDBDB"/>
<path d="M391.95 0.913574H389.896V2.96922H391.95V0.913574Z" fill="#DBDBDB"/>
<path d="M391.95 5.02484H389.896V7.08047H391.95V5.02484Z" fill="#DBDBDB"/>
<path d="M391.95 7.08051H389.896V9.13615H391.95V7.08051Z" fill="#DBDBDB"/>
<path d="M394.004 0.913574H391.95V2.96922H394.004V0.913574Z" fill="#DBDBDB"/>
<path d="M379.621 15.3083H377.567V17.3639H379.621V15.3083Z" fill="#DBDBDB"/>
<path d="M381.68 9.14136H379.626V11.197H381.68V9.14136Z" fill="#DBDBDB"/>
<path d="M381.68 11.197H379.626V13.2526H381.68V11.197Z" fill="#DBDBDB"/>
<path d="M381.68 13.2526H379.626V15.3083H381.68V13.2526Z" fill="#DBDBDB"/>
<path d="M381.68 15.3083H379.626V17.3639H381.68V15.3083Z" fill="#DBDBDB"/>
<path d="M385.788 11.197H383.734V13.2526H385.788V11.197Z" fill="#DBDBDB"/>
<path d="M385.788 15.3083H383.734V17.3639H385.788V15.3083Z" fill="#DBDBDB"/>
<path d="M387.842 9.14136H385.788V11.197H387.842V9.14136Z" fill="#DBDBDB"/>
<path d="M387.842 13.2526H385.788V15.3083H387.842V13.2526Z" fill="#DBDBDB"/>
<path d="M391.95 9.14136H389.896V11.197H391.95V9.14136Z" fill="#DBDBDB"/>
<path d="M391.95 11.197H389.896V13.2526H391.95V11.197Z" fill="#DBDBDB"/>
<path d="M391.95 13.2526H389.896V15.3083H391.95V13.2526Z" fill="#DBDBDB"/>
<path d="M391.95 15.3083H389.896V17.3639H391.95V15.3083Z" fill="#DBDBDB"/>
<path d="M394.004 15.3083H391.95V17.3639H394.004V15.3083Z" fill="#DBDBDB"/>
<path d="M396.058 0.913574H394.004V2.96922H396.058V0.913574Z" fill="#DBDBDB"/>
<path d="M398.112 0.913574H396.058V2.96922H398.112V0.913574Z" fill="#DBDBDB"/>
<path d="M398.112 5.02484H396.058V7.08047H398.112V5.02484Z" fill="#DBDBDB"/>
<path d="M400.166 0.913574H398.112V2.96922H400.166V0.913574Z" fill="#DBDBDB"/>
<path d="M400.166 5.02484H398.112V7.08047H400.166V5.02484Z" fill="#DBDBDB"/>
<path d="M402.225 0.913574H400.171V2.96922H402.225V0.913574Z" fill="#DBDBDB"/>
<path d="M402.225 5.02484H400.171V7.08047H402.225V5.02484Z" fill="#DBDBDB"/>
<path d="M404.279 0.913574H402.225V2.96922H404.279V0.913574Z" fill="#DBDBDB"/>
<path d="M404.279 5.02484H402.225V7.08047H404.279V5.02484Z" fill="#DBDBDB"/>
<path d="M406.333 0.913574H404.279V2.96922H406.333V0.913574Z" fill="#DBDBDB"/>
<path d="M406.333 5.02484H404.279V7.08047H406.333V5.02484Z" fill="#DBDBDB"/>
<path d="M408.387 0.913574H406.333V2.96922H408.387V0.913574Z" fill="#DBDBDB"/>
<path d="M408.387 5.02484H406.333V7.08047H408.387V5.02484Z" fill="#DBDBDB"/>
<path d="M410.441 0.913574H408.387V2.96922H410.441V0.913574Z" fill="#DBDBDB"/>
<path d="M396.058 15.3083H394.004V17.3639H396.058V15.3083Z" fill="#DBDBDB"/>
<path d="M398.112 11.197H391.591V13.2526H398.112V11.197Z" fill="#DBDBDB"/>
<path d="M400.166 15.3083H396.058V17.3639H400.166V15.3083Z" fill="#DBDBDB"/>
<path d="M402.225 9.14136H400.171V11.197H402.225V9.14136Z" fill="#DBDBDB"/>
<path d="M402.225 11.197H400.171V13.2526H402.225V11.197Z" fill="#DBDBDB"/>
<path d="M402.225 13.2526H400.171V15.3083H402.225V13.2526Z" fill="#DBDBDB"/>
<path d="M402.225 15.3083H400.171V17.3639H402.225V15.3083Z" fill="#DBDBDB"/>
<path d="M404.279 7.08051H402.225V11.1918H404.279V7.08051Z" fill="#DBDBDB"/>
<path d="M404.279 11.197H402.225V13.2526H404.279V11.197Z" fill="#DBDBDB"/>
<path d="M404.279 13.2526H402.225V15.3083H404.279V13.2526Z" fill="#DBDBDB"/>
<path d="M404.279 15.3083H402.225V17.3639H404.279V15.3083Z" fill="#DBDBDB"/>
<path d="M408.387 11.197H406.333V13.2526H408.387V11.197Z" fill="#DBDBDB"/>
<path d="M408.387 15.3083H406.333V17.3639H408.387V15.3083Z" fill="#DBDBDB"/>
<path d="M410.441 15.3083H408.387V17.3639H410.441V15.3083Z" fill="#DBDBDB"/>
<path d="M412.495 0.913574H410.441V2.96922H412.495V0.913574Z" fill="#DBDBDB"/>
<path d="M412.495 5.02484H410.441V7.08047H412.495V5.02484Z" fill="#DBDBDB"/>
<path d="M412.495 7.08051H410.441V9.13615H412.495V7.08051Z" fill="#DBDBDB"/>
<path d="M414.549 0.913574H412.495V2.96922H414.549V0.913574Z" fill="#DBDBDB"/>
<path d="M414.549 5.02484H412.495V7.08047H414.549V5.02484Z" fill="#DBDBDB"/>
<path d="M416.603 0.913574H414.549V2.96922H416.603V0.913574Z" fill="#DBDBDB"/>
<path d="M416.603 5.02484H414.549V7.08047H416.603V5.02484Z" fill="#DBDBDB"/>
<path d="M418.657 0.913574H416.603V2.96922H418.657V0.913574Z" fill="#DBDBDB"/>
<path d="M418.657 5.02484H416.603V7.08047H418.657V5.02484Z" fill="#DBDBDB"/>
<path d="M420.711 0.913574H418.657V2.96922H420.711V0.913574Z" fill="#DBDBDB"/>
<path d="M420.711 5.02484H418.657V7.08047H420.711V5.02484Z" fill="#DBDBDB"/>
<path d="M422.765 0.913574H420.711V2.96922H422.765V0.913574Z" fill="#DBDBDB"/>
<path d="M422.765 5.02484H420.711V7.08047H422.765V5.02484Z" fill="#DBDBDB"/>
<path d="M424.824 0.913574H422.77V2.96922H424.824V0.913574Z" fill="#DBDBDB"/>
<path d="M424.824 5.02484H422.77V7.08047H424.824V5.02484Z" fill="#DBDBDB"/>
<path d="M426.878 0.913574H424.824V2.96922H426.878V0.913574Z" fill="#DBDBDB"/>
<path d="M426.878 5.02484H424.824V7.08047H426.878V5.02484Z" fill="#DBDBDB"/>
<path d="M426.878 7.08051H424.824V9.13615H426.878V7.08051Z" fill="#DBDBDB"/>
<path d="M412.495 9.14136H410.441V11.197H412.495V9.14136Z" fill="#DBDBDB"/>
<path d="M412.495 11.197H410.441V13.2526H412.495V11.197Z" fill="#DBDBDB"/>
<path d="M412.495 13.2526H410.441V15.3083H412.495V13.2526Z" fill="#DBDBDB"/>
<path d="M412.495 15.3083H410.441V17.3639H412.495V15.3083Z" fill="#DBDBDB"/>
<path d="M414.549 9.14136H412.495V11.197H414.549V9.14136Z" fill="#DBDBDB"/>
<path d="M414.549 13.2526H412.495V15.3083H414.549V13.2526Z" fill="#DBDBDB"/>
<path d="M418.657 9.14136H416.603V11.197H418.657V9.14136Z" fill="#DBDBDB"/>
<path d="M418.657 13.2526H416.603V15.3083H418.657V13.2526Z" fill="#DBDBDB"/>
<path d="M420.711 11.197H418.657V13.2526H420.711V11.197Z" fill="#DBDBDB"/>
<path d="M420.711 15.3083H418.657V17.3639H420.711V15.3083Z" fill="#DBDBDB"/>
<path d="M424.824 9.14136H422.77V11.197H424.824V9.14136Z" fill="#DBDBDB"/>
<path d="M424.824 13.2526H422.77V15.3083H424.824V13.2526Z" fill="#DBDBDB"/>
<path d="M426.878 9.14136H424.824V11.197H426.878V9.14136Z" fill="#DBDBDB"/>
<path d="M426.878 11.197H424.824V13.2526H426.878V11.197Z" fill="#DBDBDB"/>
<path d="M426.878 13.2526H424.824V15.3083H426.878V13.2526Z" fill="#DBDBDB"/>
<path d="M426.878 15.3083H424.824V17.3639H426.878V15.3083Z" fill="#DBDBDB"/>
<path d="M428.932 0.913574H426.878V2.96922H428.932V0.913574Z" fill="#DBDBDB"/>
<path d="M428.932 7.08051H426.878V9.13615H428.932V7.08051Z" fill="#DBDBDB"/>
<path d="M430.986 0.913574H428.932V2.96922H430.986V0.913574Z" fill="#DBDBDB"/>
<path d="M430.986 5.02484H428.932V7.08047H430.986V5.02484Z" fill="#DBDBDB"/>
<path d="M433.04 0.913574H430.986V2.96922H433.04V0.913574Z" fill="#DBDBDB"/>
<path d="M433.04 7.08051H430.986V9.13615H433.04V7.08051Z" fill="#DBDBDB"/>
<path d="M435.094 0.913574H433.04V2.96922H435.094V0.913574Z" fill="#DBDBDB"/>
<path d="M435.094 5.02484H433.04V7.08047H435.094V5.02484Z" fill="#DBDBDB"/>
<path d="M437.148 0.913574H435.094V2.96922H437.148V0.913574Z" fill="#DBDBDB"/>
<path d="M437.148 7.08051H435.094V9.13615H437.148V7.08051Z" fill="#DBDBDB"/>
<path d="M428.932 15.3083H426.878V17.3639H428.932V15.3083Z" fill="#DBDBDB"/>
<path d="M430.986 11.197H428.932V13.2526H430.986V11.197Z" fill="#DBDBDB"/>
<path d="M430.986 15.3083H428.932V17.3639H430.986V15.3083Z" fill="#DBDBDB"/>
<path d="M433.04 15.3083H430.986V17.3639H433.04V15.3083Z" fill="#DBDBDB"/>
<path d="M435.094 11.197H433.04V13.2526H435.094V11.197Z" fill="#DBDBDB"/>
<path d="M435.094 15.3083H433.04V17.3639H435.094V15.3083Z" fill="#DBDBDB"/>
<path d="M437.148 15.3083H435.094V17.3639H437.148V15.3083Z" fill="#DBDBDB"/>
<path d="M511.111 0.913574H509.057V2.96922H511.111V0.913574Z" fill="#DBDBDB"/>
<path d="M511.111 5.02484H509.057V7.08047H511.111V5.02484Z" fill="#DBDBDB"/>
<path d="M509.057 0.913574H507.004V2.96922H509.057V0.913574Z" fill="#DBDBDB"/>
<path d="M509.057 7.08051H507.004V9.13615H509.057V7.08051Z" fill="#DBDBDB"/>
<path d="M506.998 0.913574H504.944V2.96922H506.998V0.913574Z" fill="#DBDBDB"/>
<path d="M506.998 5.02484H504.944V7.08047H506.998V5.02484Z" fill="#DBDBDB"/>
<path d="M504.944 0.913574H502.89V2.96922H504.944V0.913574Z" fill="#DBDBDB"/>
<path d="M504.944 7.08051H502.89V9.13615H504.944V7.08051Z" fill="#DBDBDB"/>
<path d="M502.89 0.913574H500.836V2.96922H502.89V0.913574Z" fill="#DBDBDB"/>
<path d="M502.89 5.02484H500.836V7.08047H502.89V5.02484Z" fill="#DBDBDB"/>
<path d="M500.836 0.913574H498.782V2.96922H500.836V0.913574Z" fill="#DBDBDB"/>
<path d="M500.836 7.08051H498.782V9.13615H500.836V7.08051Z" fill="#DBDBDB"/>
<path d="M498.782 0.913574H496.729V2.96922H498.782V0.913574Z" fill="#DBDBDB"/>
<path d="M498.782 5.02484H496.729V7.08047H498.782V5.02484Z" fill="#DBDBDB"/>
<path d="M511.111 11.197H509.057V13.2526H511.111V11.197Z" fill="#DBDBDB"/>
<path d="M511.111 15.3083H509.057V17.3639H511.111V15.3083Z" fill="#DBDBDB"/>
<path d="M509.057 15.3083H507.004V17.3639H509.057V15.3083Z" fill="#DBDBDB"/>
<path d="M506.998 11.197H504.944V13.2526H506.998V11.197Z" fill="#DBDBDB"/>
<path d="M506.998 15.3083H504.944V17.3639H506.998V15.3083Z" fill="#DBDBDB"/>
<path d="M504.944 15.3083H502.89V17.3639H504.944V15.3083Z" fill="#DBDBDB"/>
<path d="M502.89 11.197H500.836V13.2526H502.89V11.197Z" fill="#DBDBDB"/>
<path d="M502.89 15.3083H500.836V17.3639H502.89V15.3083Z" fill="#DBDBDB"/>
<path d="M500.836 15.3083H498.782V17.3639H500.836V15.3083Z" fill="#DBDBDB"/>
<path d="M498.782 11.197H496.729V13.2526H498.782V11.197Z" fill="#DBDBDB"/>
<path d="M498.782 15.3083H496.729V17.3639H498.782V15.3083Z" fill="#DBDBDB"/>
<path d="M496.728 0.913574H494.674V2.96922H496.728V0.913574Z" fill="#DBDBDB"/>
<path d="M494.674 0.913574H492.62V2.96922H494.674V0.913574Z" fill="#DBDBDB"/>
<path d="M494.674 5.02484H492.62V7.08047H494.674V5.02484Z" fill="#DBDBDB"/>
<path d="M494.674 7.08051H492.62V9.13615H494.674V7.08051Z" fill="#DBDBDB"/>
<path d="M492.621 0.913574H490.567V2.96922H492.621V0.913574Z" fill="#DBDBDB"/>
<path d="M492.621 5.02484H490.567V7.08047H492.621V5.02484Z" fill="#DBDBDB"/>
<path d="M490.567 0.913574H488.513V2.96922H490.567V0.913574Z" fill="#DBDBDB"/>
<path d="M490.567 5.02484H488.513V7.08047H490.567V5.02484Z" fill="#DBDBDB"/>
<path d="M488.513 0.913574H486.459V2.96922H488.513V0.913574Z" fill="#DBDBDB"/>
<path d="M488.513 5.02484H486.459V7.08047H488.513V5.02484Z" fill="#DBDBDB"/>
<path d="M486.453 0.913574H484.399V2.96922H486.453V0.913574Z" fill="#DBDBDB"/>
<path d="M486.453 5.02484H484.399V7.08047H486.453V5.02484Z" fill="#DBDBDB"/>
<path d="M484.399 0.913574H482.345V2.96922H484.399V0.913574Z" fill="#DBDBDB"/>
<path d="M484.399 5.02484H482.345V7.08047H484.399V5.02484Z" fill="#DBDBDB"/>
<path d="M484.399 7.08051H482.345V9.13615H484.399V7.08051Z" fill="#DBDBDB"/>
<path d="M482.345 0.913574H480.292V2.96922H482.345V0.913574Z" fill="#DBDBDB"/>
<path d="M496.728 15.3083H494.674V17.3639H496.728V15.3083Z" fill="#DBDBDB"/>
<path d="M494.674 9.14136H492.62V11.197H494.674V9.14136Z" fill="#DBDBDB"/>
<path d="M494.674 11.197H492.62V13.2526H494.674V11.197Z" fill="#DBDBDB"/>
<path d="M494.674 13.2526H492.62V15.3083H494.674V13.2526Z" fill="#DBDBDB"/>
<path d="M494.674 15.3083H492.62V17.3639H494.674V15.3083Z" fill="#DBDBDB"/>
<path d="M490.567 9.14136H488.513V11.197H490.567V9.14136Z" fill="#DBDBDB"/>
<path d="M490.567 11.197H488.513V13.2526H490.567V11.197Z" fill="#DBDBDB"/>
<path d="M490.567 13.2526H488.513V15.3083H490.567V13.2526Z" fill="#DBDBDB"/>
<path d="M490.567 15.3083H488.513V17.3639H490.567V15.3083Z" fill="#DBDBDB"/>
<path d="M488.513 9.14136H486.459V11.197H488.513V9.14136Z" fill="#DBDBDB"/>
<path d="M488.513 11.197H486.459V13.2526H488.513V11.197Z" fill="#DBDBDB"/>
<path d="M488.513 13.2526H486.459V15.3083H488.513V13.2526Z" fill="#DBDBDB"/>
<path d="M488.513 15.3083H486.459V17.3639H488.513V15.3083Z" fill="#DBDBDB"/>
<path d="M484.399 9.14136H482.345V11.197H484.399V9.14136Z" fill="#DBDBDB"/>
<path d="M484.399 11.197H482.345V13.2526H484.399V11.197Z" fill="#DBDBDB"/>
<path d="M484.399 13.2526H482.345V15.3083H484.399V13.2526Z" fill="#DBDBDB"/>
<path d="M484.399 15.3083H482.345V17.3639H484.399V15.3083Z" fill="#DBDBDB"/>
<path d="M482.345 15.3083H480.292V17.3639H482.345V15.3083Z" fill="#DBDBDB"/>
<path d="M480.292 0.913574H478.238V2.96922H480.292V0.913574Z" fill="#DBDBDB"/>
<path d="M478.238 0.913574H476.184V2.96922H478.238V0.913574Z" fill="#DBDBDB"/>
<path d="M478.238 5.02484H476.184V7.08047H478.238V5.02484Z" fill="#DBDBDB"/>
<path d="M476.184 0.913574H474.13V2.96922H476.184V0.913574Z" fill="#DBDBDB"/>
<path d="M476.184 5.02484H474.13V7.08047H476.184V5.02484Z" fill="#DBDBDB"/>
<path d="M474.13 0.913574H472.076V2.96922H474.13V0.913574Z" fill="#DBDBDB"/>
<path d="M474.13 5.02484H472.076V7.08047H474.13V5.02484Z" fill="#DBDBDB"/>
<path d="M472.076 0.913574H470.022V2.96922H472.076V0.913574Z" fill="#DBDBDB"/>
<path d="M472.076 5.02484H470.022V7.08047H472.076V5.02484Z" fill="#DBDBDB"/>
<path d="M470.022 0.913574H467.968V2.96922H470.022V0.913574Z" fill="#DBDBDB"/>
<path d="M470.022 5.02484H467.968V7.08047H470.022V5.02484Z" fill="#DBDBDB"/>
<path d="M467.968 0.913574H465.914V2.96922H467.968V0.913574Z" fill="#DBDBDB"/>
<path d="M467.968 5.02484H465.914V7.08047H467.968V5.02484Z" fill="#DBDBDB"/>
<path d="M465.914 0.913574H463.86V2.96922H465.914V0.913574Z" fill="#DBDBDB"/>
<path d="M480.292 15.3083H478.238V17.3639H480.292V15.3083Z" fill="#DBDBDB"/>
<path d="M482.345 11.197H476.184V13.2526H482.345V11.197Z" fill="#DBDBDB"/>
<path d="M478.238 15.3083H476.184V17.3639H478.238V15.3083Z" fill="#DBDBDB"/>
<path d="M474.13 9.14136H472.076V11.197H474.13V9.14136Z" fill="#DBDBDB"/>
<path d="M474.13 11.197H472.076V13.2526H474.13V11.197Z" fill="#DBDBDB"/>
<path d="M474.13 13.2526H472.076V15.3083H474.13V13.2526Z" fill="#DBDBDB"/>
<path d="M474.13 15.3083H472.076V17.3639H474.13V15.3083Z" fill="#DBDBDB"/>
<path d="M472.076 9.14136H470.022V11.197H472.076V9.14136Z" fill="#DBDBDB"/>
<path d="M472.076 11.197H470.022V13.2526H472.076V11.197Z" fill="#DBDBDB"/>
<path d="M472.076 13.2526H470.022V15.3083H472.076V13.2526Z" fill="#DBDBDB"/>
<path d="M472.076 15.3083H470.022V17.3639H472.076V15.3083Z" fill="#DBDBDB"/>
<path d="M467.968 11.197H465.914V13.2526H467.968V11.197Z" fill="#DBDBDB"/>
<path d="M467.968 15.3083H465.914V17.3639H467.968V15.3083Z" fill="#DBDBDB"/>
<path d="M465.914 15.3083H463.86V17.3639H465.914V15.3083Z" fill="#DBDBDB"/>
<path d="M463.854 0.913574H461.801V2.96922H463.854V0.913574Z" fill="#DBDBDB"/>
<path d="M463.854 5.02484H461.801V7.08047H463.854V5.02484Z" fill="#DBDBDB"/>
<path d="M463.854 7.08051H461.801V9.13615H463.854V7.08051Z" fill="#DBDBDB"/>
<path d="M461.801 0.913574H459.747V2.96922H461.801V0.913574Z" fill="#DBDBDB"/>
<path d="M461.801 5.02484H459.747V7.08047H461.801V5.02484Z" fill="#DBDBDB"/>
<path d="M459.747 0.913574H457.693V2.96922H459.747V0.913574Z" fill="#DBDBDB"/>
<path d="M459.747 5.02484H457.693V7.08047H459.747V5.02484Z" fill="#DBDBDB"/>
<path d="M457.693 0.913574H455.639V2.96922H457.693V0.913574Z" fill="#DBDBDB"/>
<path d="M457.693 5.02484H455.639V7.08047H457.693V5.02484Z" fill="#DBDBDB"/>
<path d="M455.639 0.913574H453.585V2.96922H455.639V0.913574Z" fill="#DBDBDB"/>
<path d="M455.639 5.02484H453.585V7.08047H455.639V5.02484Z" fill="#DBDBDB"/>
<path d="M453.585 0.913574H451.531V2.96922H453.585V0.913574Z" fill="#DBDBDB"/>
<path d="M453.585 5.02484H451.531V7.08047H453.585V5.02484Z" fill="#DBDBDB"/>
<path d="M451.531 0.913574H449.477V2.96922H451.531V0.913574Z" fill="#DBDBDB"/>
<path d="M451.531 5.02484H449.477V7.08047H451.531V5.02484Z" fill="#DBDBDB"/>
<path d="M449.477 0.913574H447.423V2.96922H449.477V0.913574Z" fill="#DBDBDB"/>
<path d="M449.477 5.02484H447.423V7.08047H449.477V5.02484Z" fill="#DBDBDB"/>
<path d="M449.477 7.08051H447.423V9.13615H449.477V7.08051Z" fill="#DBDBDB"/>
<path d="M463.854 9.14136H461.801V11.197H463.854V9.14136Z" fill="#DBDBDB"/>
<path d="M463.854 11.197H461.801V13.2526H463.854V11.197Z" fill="#DBDBDB"/>
<path d="M463.854 13.2526H461.801V15.3083H463.854V13.2526Z" fill="#DBDBDB"/>
<path d="M463.854 15.3083H461.801V17.3639H463.854V15.3083Z" fill="#DBDBDB"/>
<path d="M461.801 9.14136H459.747V11.197H461.801V9.14136Z" fill="#DBDBDB"/>
<path d="M461.801 13.2526H459.747V15.3083H461.801V13.2526Z" fill="#DBDBDB"/>
<path d="M457.693 9.14136H455.639V11.197H457.693V9.14136Z" fill="#DBDBDB"/>
<path d="M457.693 13.2526H455.639V15.3083H457.693V13.2526Z" fill="#DBDBDB"/>
<path d="M455.639 11.197H453.585V13.2526H455.639V11.197Z" fill="#DBDBDB"/>
<path d="M455.639 15.3083H453.585V19.4196H455.639V15.3083Z" fill="#DBDBDB"/>
<path d="M451.531 9.14136H449.477V11.197H451.531V9.14136Z" fill="#DBDBDB"/>
<path d="M451.531 13.2526H449.477V15.3083H451.531V13.2526Z" fill="#DBDBDB"/>
<path d="M449.477 9.14136H447.423V11.197H449.477V9.14136Z" fill="#DBDBDB"/>
<path d="M449.477 11.197H447.423V13.2526H449.477V11.197Z" fill="#DBDBDB"/>
<path d="M449.477 13.2526H447.423V15.3083H449.477V13.2526Z" fill="#DBDBDB"/>
<path d="M449.477 15.3083H447.423V17.3639H449.477V15.3083Z" fill="#DBDBDB"/>
<path d="M447.423 0.913574H445.369V2.96922H447.423V0.913574Z" fill="#DBDBDB"/>
<path d="M447.423 7.08051H445.369V9.13615H447.423V7.08051Z" fill="#DBDBDB"/>
<path d="M445.369 0.913574H443.315V2.96922H445.369V0.913574Z" fill="#DBDBDB"/>
<path d="M445.369 5.02484H443.315V7.08047H445.369V5.02484Z" fill="#DBDBDB"/>
<path d="M443.31 0.913574H441.256V2.96922H443.31V0.913574Z" fill="#DBDBDB"/>
<path d="M443.31 7.08051H441.256V9.13615H443.31V7.08051Z" fill="#DBDBDB"/>
<path d="M441.256 0.913574H439.202V2.96922H441.256V0.913574Z" fill="#DBDBDB"/>
<path d="M441.256 5.02484H439.202V7.08047H441.256V5.02484Z" fill="#DBDBDB"/>
<path d="M439.202 0.913574H437.148V2.96922H439.202V0.913574Z" fill="#DBDBDB"/>
<path d="M439.202 7.08051H437.148V9.13615H439.202V7.08051Z" fill="#DBDBDB"/>
<path d="M447.423 15.3083H445.369V17.3639H447.423V15.3083Z" fill="#DBDBDB"/>
<path d="M445.369 11.197H443.315V13.2526H445.369V11.197Z" fill="#DBDBDB"/>
<path d="M445.369 15.3083H443.315V17.3639H445.369V15.3083Z" fill="#DBDBDB"/>
<path d="M443.31 15.3083H441.256V17.3639H443.31V15.3083Z" fill="#DBDBDB"/>
<path d="M441.256 11.197H439.202V13.2526H441.256V11.197Z" fill="#DBDBDB"/>
<path d="M441.256 15.3083H439.202V17.3639H441.256V15.3083Z" fill="#DBDBDB"/>
<path d="M439.202 15.3083H437.148V17.3639H439.202V15.3083Z" fill="#DBDBDB"/>
<path d="M612.671 19.4196H9.74988V21.4752H612.671V19.4196Z" fill="#DBDBDB"/>
<path d="M613.8 0.913574H611.746V2.96922H613.8V0.913574Z" fill="#DBDBDB"/>
<path d="M613.8 5.02484H611.746V7.08047H613.8V5.02484Z" fill="#DBDBDB"/>
<path d="M611.746 0.913574H609.692V2.96922H611.746V0.913574Z" fill="#DBDBDB"/>
<path d="M611.746 5.02484H609.692V7.08047H611.746V5.02484Z" fill="#DBDBDB"/>
<path d="M613.8 9.14136H611.746V11.197H613.8V9.14136Z" fill="#DBDBDB"/>
<path d="M613.8 13.2526H611.746V15.3083H613.8V13.2526Z" fill="#DBDBDB"/>
<path d="M609.707 0.913574H607.653V2.96922H609.707V0.913574Z" fill="#DBDBDB"/>
<path d="M609.707 5.02484H607.653V7.08047H609.707V5.02484Z" fill="#DBDBDB"/>
<path d="M605.599 2.96922H607.653V0.913574H605.599" fill="#DBDBDB"/>
<path d="M605.599 9.14136H607.653V7.08051H605.599" fill="#DBDBDB"/>
<path d="M603.519 11.223H605.573V9.16217H603.519" fill="#DBDBDB"/>
<path d="M609.707 11.197H607.653V13.2526H609.707V11.197Z" fill="#DBDBDB"/>
<path d="M605.599 17.3639H607.653V15.3083H605.599" fill="#DBDBDB"/>
<path d="M10 23H4.32357C2.00285 23 0.119598 21.3014 0.119598 19.2082V0.999939H10V23Z" fill="#DBDBDB"/>
<path d="M611.33 23H616.862C619.124 23 620.96 21.3015 620.96 19.2083V1H611.33V23Z" fill="#DBDBDB"/>
</svg>
