<svg width="23" height="19" viewBox="0 0 23 19" fill="none" xmlns="http://www.w3.org/2000/svg">
<path d="M23 7.74572C23 7.31077 22.7634 6.96644 22.4761 6.94832C22.1211 6.07842 21.4282 5.09979 20.4648 4.6286H20.4479C20.4479 4.6286 20.3465 4.57423 20.2789 4.53798H20.2451C20.2451 4.53798 20.1437 4.48361 20.0929 4.46549H20.0422C20.0422 4.46549 19.907 4.41112 19.8394 4.393C19.5183 4.32051 19.1972 4.28426 18.876 4.28426C18.4028 4.08491 17.5915 3.50498 16.5605 1.87393C15.3774 0.0072741 14.0929 0.0616424 12.8253 0.0616424C11.7943 0.0616424 10.6788 -0.2102 10.4929 0.387853C10.4084 0.659696 10.5943 0.913415 10.9155 1.2215C10.1887 1.18526 9.56333 1.14901 9.42812 1.58396C9.25911 2.14577 10.1887 2.61696 11.0845 3.48686C11.9971 4.393 13.1126 5.53474 14.8028 6.31402C14.3803 6.36839 14.0253 6.40463 13.8394 6.40463C13.2479 6.40463 11.9633 5.84283 11.6084 5.67972H11.5577L11.507 5.64347C10.4929 5.17228 9.34362 4.90044 8.10981 4.90044C5.10135 4.90044 2.51542 6.51337 1.39993 8.81497C1.045 8.43439 0.487247 8.48876 0.0816123 10.1561C-0.256417 11.5515 0.521051 12.8745 1.21401 13.7444C1.16331 14.0525 1.1295 14.3787 1.1295 14.723C1.1295 15.7198 1.36612 16.6259 1.78866 17.3327C2.245 18.2388 3.12388 18.8369 4.13796 18.8369H4.37458C4.37458 18.8369 4.42529 18.8369 4.45909 18.8369C4.4929 18.8369 4.5098 18.8369 4.5436 18.8369H11.7267V18.4019C11.7267 17.9308 11.5915 17.4958 11.3887 17.1152C11.4394 17.0971 11.4901 17.079 11.5408 17.0427L13.5183 17.2058C13.8901 18.257 14.8028 19 15.9183 19H17.6253C17.8451 19 18.031 18.8006 18.031 18.5651C18.031 17.4777 17.3549 16.5534 16.4422 16.2453C15.8507 15.5023 17.2197 14.4693 18.031 13.7987C18.6732 13.2732 19.4507 11.4971 19.8056 10.6816C19.8394 10.6273 19.8563 10.5729 19.8732 10.5366C21.1746 10.2467 22.2901 9.23179 22.5606 8.48876C22.7634 8.38002 22.9155 8.09006 22.9155 7.74572H23Z" fill="#DCDCDC"/>
</svg>
