<svg width="20" height="16" viewBox="0 0 20 16" fill="none" xmlns="http://www.w3.org/2000/svg">
<path d="M13.18 8.8009C12.462 8.8009 11.88 9.5806 11.88 10.5391C11.88 11.4994 12.462 12.2791 13.18 12.2791C13.898 12.2791 14.48 11.4994 14.48 10.5391C14.479 9.5806 13.898 8.8009 13.18 8.8009ZM17.706 4.27629C17.855 3.92364 17.861 1.91979 17.071 0C17.071 0 15.26 0.19227 12.52 2.00965C11.945 1.85506 10.972 1.7797 10.001 1.7797C9.02805 1.7797 8.05605 1.85506 7.48105 2.00965C4.74005 0.19227 2.92905 0 2.92905 0C2.14005 1.91979 2.14805 3.92364 2.29505 4.27629C1.36705 5.2502 0.800049 6.42024 0.800049 8.01637C0.800049 14.9593 6.76305 15.0704 8.26705 15.0704L10.001 15.0723L11.733 15.0704C13.239 15.0704 19.2001 14.9593 19.2001 8.01637C19.2001 6.42024 18.634 5.2502 17.706 4.27629ZM10.028 14.2173H9.97205C6.20105 14.2173 3.26305 13.7835 3.26305 10.2415C3.26305 9.3922 3.57305 8.60573 4.31005 7.9526C5.53705 6.86372 7.61505 7.43956 9.97205 7.43956H10.028C12.385 7.43956 14.464 6.86372 15.692 7.9526C16.427 8.60573 16.737 9.3922 16.737 10.2415C16.737 13.7835 13.8 14.2173 10.028 14.2173ZM6.82105 8.8009C6.10305 8.8009 5.52105 9.5806 5.52105 10.5391C5.52105 11.4994 6.10305 12.2791 6.82105 12.2791C7.54005 12.2791 8.12205 11.4994 8.12205 10.5391C8.12205 9.5806 7.54005 8.8009 6.82105 8.8009Z" fill="#DBDBDB"/>
<path d="M13.18 8.8009C12.462 8.8009 11.88 9.5806 11.88 10.5391C11.88 11.4994 12.462 12.2791 13.18 12.2791C13.898 12.2791 14.48 11.4994 14.48 10.5391C14.479 9.5806 13.898 8.8009 13.18 8.8009ZM17.706 4.27629C17.855 3.92364 17.861 1.91979 17.071 0C17.071 0 15.26 0.19227 12.52 2.00965C11.945 1.85506 10.972 1.7797 10.001 1.7797C9.02805 1.7797 8.05605 1.85506 7.48105 2.00965C4.74005 0.19227 2.92905 0 2.92905 0C2.14005 1.91979 2.14805 3.92364 2.29505 4.27629C1.36705 5.2502 0.800049 6.42024 0.800049 8.01637C0.800049 14.9593 6.76305 15.0704 8.26705 15.0704L10.001 15.0723L11.733 15.0704C13.239 15.0704 19.2001 14.9593 19.2001 8.01637C19.2001 6.42024 18.634 5.2502 17.706 4.27629ZM10.028 14.2173H9.97205C6.20105 14.2173 3.26305 13.7835 3.26305 10.2415C3.26305 9.3922 3.57305 8.60573 4.31005 7.9526C5.53705 6.86372 7.61505 7.43956 9.97205 7.43956H10.028C12.385 7.43956 14.464 6.86372 15.692 7.9526C16.427 8.60573 16.737 9.3922 16.737 10.2415C16.737 13.7835 13.8 14.2173 10.028 14.2173ZM6.82105 8.8009C6.10305 8.8009 5.52105 9.5806 5.52105 10.5391C5.52105 11.4994 6.10305 12.2791 6.82105 12.2791C7.54005 12.2791 8.12205 11.4994 8.12205 10.5391C8.12205 9.5806 7.54005 8.8009 6.82105 8.8009Z" fill="#DBDBDB"/>
</svg>
