<svg width="20" height="19" viewBox="0 0 20 19" fill="none" xmlns="http://www.w3.org/2000/svg">
<path d="M20 9.62253C20 10.0457 19.8903 10.4306 19.6708 10.7772C19.4513 11.1238 19.1555 11.3883 18.7835 11.5707C18.8728 11.9063 18.9174 12.2565 18.9174 12.6214C18.9174 13.7523 18.5212 14.7994 17.7288 15.7625C16.9364 16.7256 15.8557 17.4863 14.4866 18.0445C13.1176 18.6026 11.6295 18.8817 10.0223 18.8817C8.41518 18.8817 6.92894 18.6026 5.56362 18.0445C4.19829 17.4863 3.11942 16.7256 2.32701 15.7625C1.5346 14.7994 1.13839 13.7523 1.13839 12.6214C1.13839 12.2784 1.17932 11.9355 1.26116 11.5926C0.881696 11.4102 0.576637 11.142 0.345982 10.7881C0.115327 10.4343 0 10.0457 0 9.62253C0 9.02422 0.215774 8.51164 0.647321 8.0848C1.07887 7.65796 1.60342 7.44454 2.22098 7.44454C2.85342 7.44454 3.39286 7.67438 3.83929 8.13406C5.46131 7.025 7.37723 6.43399 9.58705 6.36102L10.8817 0.658844C10.904 0.56399 10.9598 0.48738 11.0491 0.429008C11.1384 0.370637 11.2351 0.352401 11.3393 0.37429L15.4576 1.2608C15.5915 0.990835 15.7924 0.773766 16.0603 0.609596C16.3281 0.445426 16.622 0.363342 16.942 0.363342C17.4033 0.363342 17.7976 0.522036 18.125 0.839432C18.4524 1.15683 18.6161 1.54172 18.6161 1.99409C18.6161 2.44647 18.4524 2.83318 18.125 3.15423C17.7976 3.47527 17.4033 3.6358 16.942 3.6358C16.4807 3.6358 16.0882 3.4771 15.7645 3.15971C15.4408 2.84231 15.279 2.45742 15.279 2.00504L11.5513 1.19514L10.3906 6.36102C12.6228 6.42669 14.5536 7.0104 16.183 8.11217C16.6146 7.66708 17.1466 7.44454 17.779 7.44454C18.3966 7.44454 18.9211 7.65796 19.3527 8.0848C19.7842 8.51164 20 9.02422 20 9.62253ZM4.66518 11.8005C4.66518 12.2529 4.82701 12.6396 5.15067 12.9607C5.47433 13.2817 5.86682 13.4422 6.32812 13.4422C6.78943 13.4422 7.18378 13.2817 7.51116 12.9607C7.83854 12.6396 8.00223 12.2529 8.00223 11.8005C8.00223 11.3481 7.83854 10.9633 7.51116 10.6459C7.18378 10.3285 6.78943 10.1698 6.32812 10.1698C5.87426 10.1698 5.48363 10.3303 5.15625 10.6513C4.82887 10.9724 4.66518 11.3554 4.66518 11.8005ZM13.7054 15.6859C13.7872 15.6056 13.8281 15.5108 13.8281 15.4013C13.8281 15.2919 13.7872 15.197 13.7054 15.1168C13.631 15.0438 13.5379 15.0073 13.4263 15.0073C13.3147 15.0073 13.218 15.0438 13.1362 15.1168C12.8311 15.4232 12.381 15.6494 11.7857 15.7953C11.1905 15.9413 10.5952 16.0142 10 16.0142C9.40476 16.0142 8.80952 15.9413 8.21429 15.7953C7.61905 15.6494 7.1689 15.4232 6.86384 15.1168C6.78199 15.0438 6.68527 15.0073 6.57366 15.0073C6.46205 15.0073 6.36905 15.0438 6.29464 15.1168C6.2128 15.1897 6.17188 15.2827 6.17188 15.3958C6.17188 15.5089 6.2128 15.6056 6.29464 15.6859C6.61458 15.9996 7.05543 16.2477 7.61719 16.4301C8.17894 16.6125 8.63467 16.7201 8.98438 16.753C9.33408 16.7858 9.67262 16.8022 10 16.8022C10.3274 16.8022 10.6659 16.7858 11.0156 16.753C11.3653 16.7201 11.8211 16.6125 12.3828 16.4301C12.9446 16.2477 13.3854 15.9996 13.7054 15.6859ZM13.6719 13.4422C14.1332 13.4422 14.5257 13.2817 14.8493 12.9607C15.173 12.6396 15.3348 12.2529 15.3348 11.8005C15.3348 11.3554 15.1711 10.9724 14.8438 10.6513C14.5164 10.3303 14.1257 10.1698 13.6719 10.1698C13.2106 10.1698 12.8162 10.3285 12.4888 10.6459C12.1615 10.9633 11.9978 11.3481 11.9978 11.8005C11.9978 12.2529 12.1615 12.6396 12.4888 12.9607C12.8162 13.2817 13.2106 13.4422 13.6719 13.4422Z" fill="#DBDBDB"/>
</svg>
