<svg width="19" height="13" viewBox="0 0 19 13" fill="none" xmlns="http://www.w3.org/2000/svg">
<path d="M15.4991 1.3699C14.3771 0.883794 13.1744 0.524502 11.9168 0.320196C11.9056 0.31813 11.894 0.319459 11.8836 0.324003C11.8732 0.328547 11.8646 0.336079 11.8588 0.345556C11.7048 0.605518 11.5332 0.944384 11.413 1.2121C10.0791 1.02064 8.72303 1.02064 7.38916 1.2121C7.25521 0.915401 7.10415 0.626106 6.9367 0.345556C6.93102 0.335963 6.92243 0.32826 6.91208 0.323477C6.90173 0.318693 6.89011 0.317057 6.87876 0.318785C5.62183 0.523091 4.41916 0.882388 3.29643 1.3692C3.28677 1.37309 3.27858 1.37973 3.27296 1.38822C0.990829 4.61132 0.365295 7.75483 0.672562 10.8589C0.673417 10.8665 0.675873 10.8738 0.679781 10.8805C0.68369 10.8871 0.688968 10.893 0.695295 10.8976C2.02732 11.8293 3.51301 12.539 5.09016 12.997C5.10116 13.0003 5.11292 13.0003 5.1239 12.997C5.13489 12.9937 5.1446 12.9874 5.15176 12.9787C5.49114 12.5427 5.79189 12.0801 6.05083 11.5958C6.05442 11.5891 6.05649 11.5819 6.0569 11.5744C6.05731 11.5669 6.05605 11.5595 6.0532 11.5525C6.05034 11.5456 6.04597 11.5393 6.04038 11.5341C6.03478 11.529 6.02809 11.525 6.02076 11.5225C5.54703 11.3511 5.08802 11.1443 4.64796 10.904C4.64005 10.8996 4.63339 10.8935 4.62857 10.886C4.62375 10.8786 4.62092 10.8702 4.62034 10.8614C4.61976 10.8527 4.62144 10.844 4.62524 10.836C4.62904 10.8281 4.63483 10.8212 4.6421 10.8159C4.7345 10.7504 4.8269 10.682 4.9149 10.6137C4.92282 10.6076 4.93236 10.6036 4.94246 10.6024C4.95256 10.6011 4.96282 10.6026 4.9721 10.6066C7.8519 11.8494 10.9708 11.8494 13.8168 10.6066C13.8261 10.6024 13.8365 10.6007 13.8467 10.6018C13.857 10.603 13.8667 10.6068 13.8748 10.613C13.9628 10.682 14.0544 10.7504 14.1476 10.8159C14.1549 10.8211 14.1608 10.8279 14.1647 10.8358C14.1686 10.8436 14.1704 10.8523 14.17 10.8611C14.1696 10.8698 14.1669 10.8783 14.1622 10.8857C14.1575 10.8932 14.151 10.8995 14.1432 10.904C13.7046 11.1463 13.2485 11.3513 12.7696 11.5218C12.7623 11.5244 12.7556 11.5284 12.75 11.5337C12.7444 11.5389 12.74 11.5452 12.7372 11.5523C12.7343 11.5593 12.7331 11.5667 12.7335 11.5743C12.7339 11.5818 12.736 11.5891 12.7396 11.5958C13.0036 12.0798 13.3057 12.5405 13.6379 12.978C13.6448 12.987 13.6544 12.9937 13.6654 12.9972C13.6765 13.0008 13.6884 13.0009 13.6995 12.9977C15.2794 12.541 16.7675 11.8309 18.101 10.8976C18.1075 10.8932 18.1129 10.8876 18.117 10.881C18.121 10.8745 18.1236 10.8671 18.1244 10.8596C18.4911 7.27082 17.5099 4.15269 15.5218 1.38963C15.517 1.38065 15.5089 1.37365 15.4991 1.3699ZM6.4813 8.96869C5.6145 8.96869 4.8995 8.21556 4.8995 7.29196C4.8995 6.36765 5.60056 5.61524 6.4813 5.61524C7.36863 5.61524 8.07703 6.37399 8.0631 7.29196C8.0631 8.21627 7.36203 8.96869 6.4813 8.96869ZM12.3296 8.96869C11.4621 8.96869 10.7478 8.21556 10.7478 7.29196C10.7478 6.36765 11.4482 5.61524 12.3296 5.61524C13.217 5.61524 13.9254 6.37399 13.9114 7.29196C13.9114 8.21627 13.2177 8.96869 12.3296 8.96869Z" fill="#DBDBDB"/>
</svg>
