<?xml version="1.0" encoding="utf-8"?>
<!-- Generator: Adobe Illustrator 26.3.1, SVG Export Plug-In . SVG Version: 6.00 Build 0)  -->
<svg version="1.1" id="Layer_1" xmlns="http://www.w3.org/2000/svg" xmlns:xlink="http://www.w3.org/1999/xlink" x="0px" y="0px"
	 viewBox="0 0 210.2 158.5" style="enable-background:new 0 0 210.2 158.5;" xml:space="preserve">
<style type="text/css">
	.st0{fill:#FFFFFF;}
</style>
<g>
	<path class="st0" d="M120.5,79.1c0,21.7,0,43.4,0,65.1c0,4.5-2.8,6.4-6.7,4.2c-7.9-4.4-15.8-8.9-23.5-13.8
		c-12.9-8.1-25.6-16.5-38.4-24.7c-0.9-0.6-2.1-0.9-3.1-0.9c-7.5-0.1-15.1-0.1-22.6-0.1c-5.8,0-9.4-3.6-9.4-9.4c0-13.6,0-27.1,0-40.7
		c0-5.9,3.5-9.5,9.5-9.5c7.5,0,15.1,0,22.6-0.1c1,0,2.1-0.4,3-0.9c17.7-11.3,35.5-22.6,53.2-33.8c2.8-1.8,5.7-3.3,8.6-4.7
		c4.2-2.1,6.8-0.4,6.8,4.3C120.5,35.7,120.5,57.4,120.5,79.1z"/>
	<path class="st0" d="M152.1,29.8c2.5-3.3,5-6.6,7.6-10.1c17.4,13.8,27.6,31.5,29.2,53.6c1.9,26.7-8.3,48.3-29.1,65.3
		c-1.4-1.8-2.6-3.5-3.9-5.1c-1.3-1.7-2.5-3.3-3.8-5.1c15.7-12.7,24.4-29,24.4-49.3C176.5,58.8,167.9,42.5,152.1,29.8z"/>
	<path class="st0" d="M133.9,112.1c10.5-8.6,16.3-19.5,16.3-33.1c0-13.5-5.8-24.4-16.3-32.9c2.5-3.4,5-6.6,7.5-9.9
		c27.5,19.5,29.8,63.6,0.1,86C138.9,118.8,136.4,115.5,133.9,112.1z"/>
</g>
</svg>
