<?xml version="1.0" encoding="utf-8"?>
<!-- Generator: Adobe Illustrator 26.3.1, SVG Export Plug-In . SVG Version: 6.00 Build 0)  -->
<svg version="1.1" id="Layer_1" xmlns="http://www.w3.org/2000/svg" xmlns:xlink="http://www.w3.org/1999/xlink" x="0px" y="0px"
	 viewBox="0 0 210.2 158.5" style="enable-background:new 0 0 210.2 158.5;" xml:space="preserve">
<style type="text/css">
	.st0{fill:#FFFFFF;}
</style>
<g>
	<path class="st0" d="M114.3,79.2c0,18.9,0,37.9,0,56.8c0,3.7-2.4,5.4-5.7,3.6c-5.8-3.1-11.6-6.4-17.2-9.9
		c-12.4-7.8-24.7-15.9-37-23.8c-0.7-0.5-1.7-0.7-2.6-0.8c-6.5-0.1-13,0-19.5,0c-5.3,0-8.4-3.1-8.4-8.3c0-11.8,0-23.5,0-35.3
		c0-5.2,3.1-8.3,8.4-8.3c6.5,0,13,0,19.5-0.1c0.9,0,1.9-0.3,2.7-0.8c15.9-10.1,31.8-20.2,47.7-30.3c1.9-1.2,4-2.3,6-3.3
		c3.6-1.8,5.9-0.3,5.9,3.7C114.3,41.4,114.3,60.3,114.3,79.2C114.3,79.2,114.3,79.2,114.3,79.2z"/>
	<path class="st0" d="M165.3,84.3c5.5,5.5,11,10.9,16.4,16.3c0.9,0.9,1.9,1.8,2.7,2.8c2.4,2.6,2.2,6.6-0.3,9
		c-2.4,2.3-6.3,2.2-8.8-0.2c-5.9-5.8-11.7-11.7-17.6-17.6c-0.4-0.4-0.8-0.9-1.4-1.7c-2.5,2.5-4.7,4.9-7,7.2
		c-3.9,4-7.8,7.9-11.8,11.8c-3.6,3.5-9.3,2.3-10.7-2.2c-0.8-2.5-0.3-4.8,1.7-6.7c5.4-5.4,10.8-10.8,16.2-16.2
		c0.8-0.8,1.7-1.6,2.8-2.7c-1.5-1.4-3-2.7-4.3-4c-4.9-4.8-9.7-9.7-14.6-14.6c-1.9-1.9-2.6-4.1-1.9-6.7c1.3-4.6,7-6,10.4-2.6
		c5.8,5.8,11.6,11.5,17.3,17.3c0.5,0.5,1,1.1,1.6,1.8c0.7-0.7,1.3-1.3,1.9-1.8c5.6-5.6,11.1-11.1,16.7-16.7c1.9-1.9,4.1-2.9,6.8-2.2
		c4.8,1.3,6.3,7,2.7,10.6c-5.9,5.9-11.8,11.9-17.8,17.8C166.1,83.4,165.8,83.8,165.3,84.3z"/>
</g>
</svg>
