<svg width="557" height="124" viewBox="0 0 557 124" fill="none" xmlns="http://www.w3.org/2000/svg">
<path d="M87.4251 69.5114C80.6906 54.8517 63.2031 45.0165 43.88 45.0165H43.7932C24.5073 45.0413 7.04461 54.8889 0.334867 69.5114L0 70.2431L0.334867 70.9749C7.06942 85.6346 24.5569 95.4698 43.88 95.4698H43.9668C63.2403 95.445 80.7154 85.5974 87.4251 70.9749L87.76 70.2431L87.4251 69.5114ZM43.9668 91.9599H43.88C26.2437 91.9599 10.2941 83.2782 3.88198 70.2555C10.2817 57.2701 26.1941 48.576 43.7932 48.5512H43.88C61.5287 48.5512 77.4659 57.2329 83.878 70.2555C77.4783 83.2409 61.566 91.9351 43.9668 91.9599Z" fill="white"/>
<path d="M43.8674 57.8029C36.9965 57.8029 31.4277 63.3716 31.4277 70.2426C31.4277 77.1135 36.9965 82.6822 43.8674 82.6822C50.7384 82.6822 56.3071 77.1135 56.3071 70.2426C56.3071 63.3716 50.7384 57.8029 43.8674 57.8029ZM44.9837 77.5476C44.7604 78.0065 44.3139 78.2422 43.8674 78.2422C43.4209 78.2422 42.9869 78.0189 42.7636 77.5476L40.8784 73.7897C40.7668 73.554 40.5684 73.3556 40.3327 73.2316L36.5748 71.3588C35.657 70.8999 35.657 69.5976 36.5748 69.1387L40.3327 67.2536C40.5684 67.1419 40.7668 66.9311 40.8784 66.6954L42.7636 62.9375C42.9869 62.4786 43.4333 62.2553 43.8674 62.2553C44.3015 62.2553 44.748 62.4786 44.9837 62.9375L46.8564 66.6954C46.9805 66.9311 47.1789 67.1295 47.4145 67.2536L51.1725 69.1387C52.0903 69.5976 52.0903 70.8999 51.1725 71.3588L47.4145 73.2316C47.1789 73.3432 46.9805 73.554 46.8564 73.7897L44.9837 77.5476Z" fill="white"/>
<path d="M43.8671 51.7505C33.6723 51.7505 25.375 60.0478 25.375 70.2426C25.375 80.4374 33.6599 88.7347 43.8671 88.7347C54.0744 88.7347 62.3592 80.4374 62.3592 70.2426C62.3592 60.0478 54.062 51.7505 43.8671 51.7505ZM43.8671 85.2248C35.6071 85.2248 28.8973 78.5027 28.8973 70.255C28.8973 62.0073 35.6071 55.2852 43.8671 55.2852C52.1272 55.2852 58.8369 62.0073 58.8369 70.255C58.8369 78.5027 52.1148 85.2248 43.8671 85.2248Z" fill="#FF5C9D"/>
<path d="M52.2272 67.0308L48.7917 65.3069L47.0802 61.8838C46.4601 60.656 45.2322 59.8994 43.868 59.8994C42.5037 59.8994 41.2634 60.656 40.6557 61.8838L38.9442 65.3069L35.5087 67.0308C34.2808 67.6386 33.5243 68.8788 33.5243 70.2431C33.5243 71.6074 34.2808 72.8476 35.5087 73.4553L38.9442 75.1793L40.6557 78.6024C41.2634 79.8302 42.5037 80.5868 43.868 80.5868C45.2322 80.5868 46.4725 79.8302 47.0802 78.6024L48.7917 75.1793L52.2272 73.4553C53.4427 72.8476 54.2116 71.6074 54.2116 70.2431C54.2116 68.8788 53.4427 67.6386 52.2272 67.0308ZM51.173 71.3593L47.4151 73.2321C47.1794 73.3437 46.981 73.5546 46.857 73.7902L44.9842 77.5482C44.7609 78.007 44.3145 78.2427 43.868 78.2427C43.4215 78.2427 42.9874 78.0194 42.7641 77.5482L40.879 73.7902C40.7673 73.5546 40.5689 73.3561 40.3333 73.2321L36.5753 71.3593C35.6575 70.9004 35.6575 69.5982 36.5753 69.1393L40.3333 67.2541C40.5689 67.1425 40.7673 66.9316 40.879 66.696L42.7641 62.938C42.9874 62.4791 43.4339 62.2559 43.868 62.2559C44.3021 62.2559 44.7485 62.4791 44.9842 62.938L46.857 66.696C46.981 66.9316 47.1794 67.1301 47.4151 67.2541L51.173 69.1393C52.0908 69.5982 52.0908 70.9004 51.173 71.3593Z" fill="white"/>
<path d="M11.5595 50.2749C10.989 50.2749 10.4433 50.002 10.096 49.5059L5.74271 43.0691C5.197 42.2629 5.40784 41.1715 6.214 40.6258C7.02017 40.0801 8.11158 40.2909 8.65729 41.0971L13.0106 47.534C13.5563 48.3401 13.3454 49.4315 12.5393 49.9772C12.2416 50.1757 11.8943 50.2749 11.5595 50.2749Z" fill="white"/>
<path d="M21.6054 44.979C20.9357 44.979 20.2908 44.5945 20.0055 43.9496L16.5576 36.3593C16.1607 35.4787 16.5576 34.4245 17.4258 34.0276C18.3188 33.6307 19.3606 34.0276 19.7575 34.9082L23.2053 42.4985C23.6022 43.3791 23.2054 44.4209 22.3248 44.8302C22.0891 44.9418 21.8411 44.9914 21.593 44.9914L21.6054 44.979Z" fill="white"/>
<path d="M33.0404 41.6924C32.2218 41.6924 31.4901 41.1219 31.3164 40.2909L29.5429 31.6836C29.3444 30.7286 29.9646 29.7984 30.9071 29.6C31.8621 29.4016 32.7923 30.0217 32.9908 30.9643L34.7643 39.5716C34.9628 40.5266 34.3426 41.4568 33.4 41.6552C33.276 41.68 33.1644 41.6924 33.0404 41.6924Z" fill="white"/>
<path d="M43.8678 40.7125C42.9005 40.7125 42.1067 39.9188 42.1067 38.9514V29.7612C42.1067 28.7938 42.9005 28 43.8678 28C44.8352 28 45.629 28.7938 45.629 29.7612V38.9514C45.629 39.9188 44.8352 40.7125 43.8678 40.7125Z" fill="white"/>
<path d="M76.1889 50.2751C75.854 50.2751 75.5068 50.1759 75.2091 49.9775C74.403 49.4318 74.1921 48.3404 74.7378 47.5342L79.0911 41.0973C79.6368 40.2911 80.7282 40.0803 81.5344 40.626C82.3406 41.1717 82.5514 42.2631 82.0057 43.0693L77.6524 49.5062C77.3175 50.0147 76.7594 50.2751 76.1889 50.2751Z" fill="white"/>
<path d="M66.1307 44.9787C65.8826 44.9787 65.6346 44.9291 65.3989 44.8175C64.5183 44.4206 64.1214 43.3664 64.5183 42.4858L67.9662 34.8955C68.3631 34.0149 69.4173 33.618 70.2979 34.0149C71.1785 34.4118 71.5753 35.466 71.1785 36.3466L67.7306 43.9369C67.4329 44.5818 66.8004 44.9663 66.1307 44.9663V44.9787Z" fill="white"/>
<path d="M54.7078 41.6925C54.5962 41.6925 54.4721 41.6925 54.3481 41.6553C53.3931 41.4568 52.7854 40.5266 52.9838 39.5716L54.7574 30.9643C54.9558 30.0093 55.886 29.4016 56.841 29.6C57.796 29.7985 58.4037 30.7287 58.2053 31.6837L56.4317 40.291C56.2581 41.122 55.5263 41.6925 54.7078 41.6925Z" fill="white"/>
<g filter="url(#filter0_d_498_2378)">
<path d="M146.376 50.36H117.544V55H114.6V31.96H146.376C147.379 31.96 148.307 32.152 149.16 32.536C150.035 32.8987 150.792 33.4107 151.432 34.072C152.093 34.712 152.605 35.4693 152.968 36.344C153.352 37.1973 153.544 38.1253 153.544 39.128V43.192C153.544 44.1733 153.352 45.1013 152.968 45.976C152.605 46.8507 152.093 47.6187 151.432 48.28C150.792 48.92 150.035 49.432 149.16 49.816C148.307 50.1787 147.379 50.36 146.376 50.36ZM150.568 42.264V40.088C150.568 39.4267 150.472 38.7867 150.28 38.168C150.088 37.528 149.779 36.9733 149.352 36.504C148.925 36.0133 148.36 35.6293 147.656 35.352C146.952 35.0533 146.088 34.904 145.064 34.904H117.544V47.416H145.064C146.067 47.416 146.909 47.2773 147.592 47C148.296 46.7227 148.861 46.3493 149.288 45.88C149.736 45.3893 150.056 44.8347 150.248 44.216C150.461 43.5973 150.568 42.9467 150.568 42.264ZM198.076 55H194.428L189.852 48.344H162.588V55H159.644V31.96H191.292C192.294 31.96 193.222 32.1413 194.076 32.504C194.95 32.8667 195.708 33.3467 196.348 33.944C197.009 34.5413 197.521 35.2347 197.884 36.024C198.268 36.792 198.46 37.5813 198.46 38.392V41.752C198.46 42.4347 198.31 43.128 198.012 43.832C197.734 44.536 197.35 45.1867 196.86 45.784C196.39 46.3813 195.836 46.8933 195.196 47.32C194.577 47.7253 193.937 47.992 193.276 48.12L198.076 55ZM195.484 40.984V39.16C195.484 38.584 195.356 38.04 195.1 37.528C194.865 37.016 194.524 36.568 194.076 36.184C193.628 35.7787 193.094 35.4693 192.476 35.256C191.878 35.0213 191.217 34.904 190.492 34.904H162.588V45.4H190.492C191.409 45.4 192.177 45.2613 192.796 44.984C193.436 44.7067 193.948 44.3547 194.332 43.928C194.737 43.5013 195.025 43.032 195.196 42.52C195.388 41.9867 195.484 41.4747 195.484 40.984ZM204.563 31.96H242.419V34.904H207.507V42.008H241.651V44.952H207.507V52.056H242.419V55H204.563V31.96ZM284.808 40.024C284.808 39.512 284.701 38.9573 284.488 38.36C284.275 37.7627 283.944 37.208 283.496 36.696C283.048 36.184 282.483 35.7573 281.8 35.416C281.139 35.0747 280.349 34.904 279.432 34.904H255.944C255.283 34.904 254.653 35 254.056 35.192C253.48 35.384 252.968 35.672 252.52 36.056C252.072 36.4187 251.72 36.8773 251.464 37.432C251.208 37.9653 251.08 38.5947 251.08 39.32C251.08 40.2587 251.485 40.9733 252.296 41.464C253.107 41.9333 254.419 42.168 256.232 42.168H280.52C281.544 42.168 282.493 42.264 283.368 42.456C284.243 42.648 285.011 42.968 285.672 43.416C286.333 43.8427 286.845 44.4187 287.208 45.144C287.592 45.8693 287.784 46.7653 287.784 47.832C287.784 48.8133 287.592 49.7413 287.208 50.616C286.845 51.4907 286.333 52.2587 285.672 52.92C285.032 53.56 284.275 54.072 283.4 54.456C282.547 54.8187 281.619 55 280.616 55H255.656C254.547 55 253.533 54.7653 252.616 54.296C251.72 53.8053 250.941 53.176 250.28 52.408C249.619 51.64 249.107 50.776 248.744 49.816C248.381 48.856 248.2 47.896 248.2 46.936H251.144C251.144 47.4053 251.24 47.9387 251.432 48.536C251.624 49.1333 251.933 49.6987 252.36 50.232C252.787 50.744 253.341 51.1813 254.024 51.544C254.728 51.8853 255.581 52.056 256.584 52.056L279.912 52.024C280.68 52.024 281.363 51.896 281.96 51.64C282.579 51.384 283.101 51.0533 283.528 50.648C283.976 50.2427 284.307 49.784 284.52 49.272C284.755 48.7387 284.872 48.2053 284.872 47.672C284.872 47.0747 284.765 46.5947 284.552 46.232C284.339 45.8693 284.019 45.592 283.592 45.4C283.187 45.208 282.675 45.08 282.056 45.016C281.437 44.952 280.723 44.92 279.912 44.92H255.976C254.995 44.92 254.035 44.824 253.096 44.632C252.157 44.44 251.325 44.12 250.6 43.672C249.875 43.2027 249.288 42.6053 248.84 41.88C248.413 41.1333 248.2 40.216 248.2 39.128C248.2 38.1253 248.381 37.1973 248.744 36.344C249.128 35.4693 249.64 34.712 250.28 34.072C250.941 33.4107 251.709 32.8987 252.584 32.536C253.459 32.152 254.387 31.96 255.368 31.96H280.328C281.437 31.96 282.451 32.2053 283.368 32.696C284.285 33.1653 285.064 33.784 285.704 34.552C286.365 35.32 286.877 36.184 287.24 37.144C287.603 38.104 287.784 39.064 287.784 40.024H284.808ZM293.869 31.96H331.725V34.904H296.813V42.008H330.957V44.952H296.813V52.056H331.725V55H293.869V31.96ZM373.275 51.672V31.96H376.219V55H372.571L340.763 35.224V55H337.819V31.96H341.563L373.275 51.672ZM421.34 31.96V34.904H403.196V55H400.252V34.904H382.3V31.96H421.34ZM429.677 31.96H432.621V55H429.677V31.96ZM476.75 51.672V31.96H479.694V55H476.046L444.238 35.224V55H441.294V31.96H445.038L476.75 51.672ZM525.327 37.112C524.794 36.6427 524.186 36.2693 523.503 35.992C522.82 35.6933 522.084 35.4693 521.295 35.32C520.506 35.1493 519.663 35.0427 518.767 35C517.892 34.936 516.996 34.904 516.079 34.904H494.191C493.402 34.904 492.666 35.0427 491.983 35.32C491.322 35.5973 490.746 35.9813 490.255 36.472C489.764 36.9413 489.38 37.5067 489.103 38.168C488.847 38.8293 488.719 39.5333 488.719 40.28V46.776C488.719 47.48 488.858 48.152 489.135 48.792C489.412 49.432 489.786 49.9973 490.255 50.488C490.746 50.9573 491.322 51.3413 491.983 51.64C492.644 51.9173 493.359 52.056 494.127 52.056H515.759C516.463 52.056 517.124 51.8853 517.743 51.544C518.383 51.2027 518.938 50.776 519.407 50.264C519.898 49.7307 520.303 49.144 520.623 48.504C520.943 47.8427 521.146 47.192 521.231 46.552C521.338 45.848 521.348 45.3787 521.263 45.144C521.178 44.9093 521.05 44.792 520.879 44.792H510.351V41.848H521.263C522.522 41.848 523.418 42.0933 523.951 42.584C524.484 43.0747 524.762 43.7893 524.783 44.728L525.327 55.064L522.383 55L522.223 46.424H521.807C521.807 47.704 521.562 48.8773 521.071 49.944C520.602 50.9893 519.994 51.8853 519.247 52.632C518.522 53.3787 517.711 53.9653 516.815 54.392C515.94 54.7973 515.098 55 514.287 55H492.943C491.962 55 491.034 54.8187 490.159 54.456C489.284 54.072 488.516 53.56 487.855 52.92C487.215 52.2587 486.703 51.4907 486.319 50.616C485.956 49.7413 485.775 48.8133 485.775 47.832V39.128C485.775 38.1253 485.956 37.1973 486.319 36.344C486.703 35.4693 487.215 34.712 487.855 34.072C488.516 33.4107 489.284 32.8987 490.159 32.536C491.034 32.152 491.962 31.96 492.943 31.96H517.871C519.258 31.96 520.602 32.1307 521.903 32.472C523.226 32.792 524.367 33.3253 525.327 34.072V37.112ZM154.952 88.36H120.648V93H114.6V69.96H154.952C155.955 69.96 156.883 70.152 157.736 70.536C158.611 70.8987 159.368 71.4107 160.008 72.072C160.669 72.712 161.181 73.4693 161.544 74.344C161.928 75.1973 162.12 76.1253 162.12 77.128V81.192C162.12 82.1733 161.928 83.1013 161.544 83.976C161.181 84.8507 160.669 85.6187 160.008 86.28C159.368 86.92 158.611 87.432 157.736 87.816C156.883 88.1787 155.955 88.36 154.952 88.36ZM156.104 79.432V78.92C156.104 77.9387 155.848 77.2133 155.336 76.744C154.845 76.2533 153.992 76.008 152.776 76.008H120.648V82.312H152.776C153.949 82.312 154.792 82.088 155.304 81.64C155.837 81.192 156.104 80.456 156.104 79.432ZM212.166 93H205.222L202.79 89.064H172.134L169.766 93H162.822L176.454 69.96H198.502L212.166 93ZM179.974 76.008L175.654 83.016H199.366L194.982 76.008H179.974ZM264.068 93H256.708L252.132 86.344H223.236V93H217.188V69.96H257.284C258.286 69.96 259.214 70.1413 260.068 70.504C260.942 70.8667 261.7 71.3467 262.34 71.944C263.001 72.5413 263.513 73.2347 263.876 74.024C264.26 74.792 264.452 75.5813 264.452 76.392V79.752C264.452 80.4347 264.302 81.128 264.004 81.832C263.726 82.536 263.342 83.1867 262.852 83.784C262.382 84.3813 261.828 84.8933 261.188 85.32C260.569 85.7253 259.929 85.992 259.268 86.12L264.068 93ZM258.436 78.312V77.864C258.436 77.3733 258.212 76.9467 257.764 76.584C257.337 76.2 256.75 76.008 256.004 76.008H223.236V80.296H256.004C256.836 80.296 257.444 80.0933 257.828 79.688C258.233 79.2827 258.436 78.824 258.436 78.312ZM317.216 69.96V76.008H296.544V93H290.496V76.008H269.888V69.96H317.216ZM364.298 86.728V69.96H370.346V93H362.698L329.354 76.264V93H323.306V69.96H330.954L364.298 86.728ZM376.756 69.96H423.54V76.008H382.804V78.472H422.772V84.488H382.804V86.952H423.54V93H376.756V69.96ZM476.493 93H469.133L464.557 86.344H435.661V93H429.613V69.96H469.709C470.711 69.96 471.639 70.1413 472.493 70.504C473.367 70.8667 474.125 71.3467 474.765 71.944C475.426 72.5413 475.938 73.2347 476.301 74.024C476.685 74.792 476.877 75.5813 476.877 76.392V79.752C476.877 80.4347 476.727 81.128 476.429 81.832C476.151 82.536 475.767 83.1867 475.277 83.784C474.807 84.3813 474.253 84.8933 473.613 85.32C472.994 85.7253 472.354 85.992 471.693 86.12L476.493 93ZM470.861 78.312V77.864C470.861 77.3733 470.637 76.9467 470.189 76.584C469.762 76.2 469.175 76.008 468.429 76.008H435.661V80.296H468.429C469.261 80.296 469.869 80.0933 470.253 79.688C470.658 79.2827 470.861 78.824 470.861 78.312Z" fill="#DBDBDB"/>
</g>
<defs>
<filter id="filter0_d_498_2378" x="83.6" y="0.959961" width="472.727" height="123.04" filterUnits="userSpaceOnUse" color-interpolation-filters="sRGB">
<feFlood flood-opacity="0" result="BackgroundImageFix"/>
<feColorMatrix in="SourceAlpha" type="matrix" values="0 0 0 0 0 0 0 0 0 0 0 0 0 0 0 0 0 0 127 0" result="hardAlpha"/>
<feOffset/>
<feGaussianBlur stdDeviation="15.5"/>
<feComposite in2="hardAlpha" operator="out"/>
<feColorMatrix type="matrix" values="0 0 0 0 0.225 0 0 0 0 0.225 0 0 0 0 0.225 0 0 0 1 0"/>
<feBlend mode="normal" in2="BackgroundImageFix" result="effect1_dropShadow_498_2378"/>
<feBlend mode="normal" in="SourceGraphic" in2="effect1_dropShadow_498_2378" result="shape"/>
</filter>
</defs>
</svg>
